<svg xmlns="http://www.w3.org/2000/svg" version="1.1" xmlns:xlink="http://www.w3.org/1999/xlink" width="512" height="512" x="0" y="0" viewBox="0 0 512 512" style="enable-background:new 0 0 512 512" xml:space="preserve" class=""><g><path d="M433.96 221.1c-10.42-9.12-26.45-8.15-36.5 2.21l-89.24 92.11H205.99l-89.24-92.11c-10.04-10.37-26.08-11.34-36.5-2.21-5.21 4.56-8.33 10.9-8.8 17.85-.46 6.95 1.8 13.64 6.36 18.85l105.63 120.66V491c0 3.31 2.69 6 6 6h135.34c3.31 0 6-2.69 6-6V378.47L436.4 257.81c4.56-5.21 6.82-11.91 6.36-18.85-.46-6.96-3.59-13.29-8.8-17.86zm-6.59 28.8L320.26 372.26a5.987 5.987 0 0 0-1.49 3.95V485H195.44V376.21c0-1.45-.53-2.86-1.49-3.95L86.84 249.9c-2.45-2.8-3.66-6.41-3.41-10.16s1.93-7.16 4.73-9.61c5.71-4.99 14.29-4.33 19.98 1.54l91.01 93.94a6 6 0 0 0 4.31 1.83h107.32a6 6 0 0 0 4.31-1.83l91.01-93.94c5.68-5.87 14.27-6.53 19.98-1.54 2.8 2.45 4.48 5.87 4.73 9.61s-.99 7.36-3.44 10.16zm-170.26 48.12c36.01 0 65.31-29.3 65.31-65.31s-29.3-65.31-65.31-65.31-65.31 29.3-65.31 65.31 29.29 65.31 65.31 65.31zm0-118.63c29.4 0 53.31 23.92 53.31 53.31s-23.92 53.31-53.31 53.31-53.31-23.92-53.31-53.31 23.91-53.31 53.31-53.31zm-7.57-75.45V21c0-3.31 2.69-6 6-6s6 2.69 6 6v82.94c0 3.31-2.69 6-6 6s-6-2.68-6-6zm-147.15 67.22-58.65-58.65c-2.34-2.34-2.34-6.14 0-8.49a6 6 0 0 1 8.48 0l58.65 58.65c2.34 2.34 2.34 6.14 0 8.49a5.991 5.991 0 0 1-8.48 0zm365.87-60.86-58.65 58.65a5.991 5.991 0 0 1-8.48 0c-2.34-2.34-2.34-6.14 0-8.49l58.65-58.65a6 6 0 0 1 8.48 0c2.34 2.35 2.34 6.15 0 8.49zm-314.4-18.14c-1.66-2.87-.67-6.54 2.2-8.2s6.54-.67 8.2 2.2L185 122.08c1.66 2.87.67 6.54-2.2 8.2-.95.55-1.98.8-2.99.8-2.07 0-4.09-1.08-5.2-3zm172.66 28.36 20.74-35.92a6.012 6.012 0 0 1 8.2-2.2 6.012 6.012 0 0 1 2.2 8.2l-20.74 35.92c-1.11 1.92-3.13 3-5.2 3-1.02 0-2.05-.26-2.99-.8a5.99 5.99 0 0 1-2.21-8.2z" fill="#ffffff" opacity="1" data-original="#000000"></path></g></svg>