<svg xmlns="http://www.w3.org/2000/svg" version="1.1" xmlns:xlink="http://www.w3.org/1999/xlink" width="512" height="512" x="0" y="0" viewBox="0 0 512 512" style="enable-background:new 0 0 512 512" xml:space="preserve" class=""><g><path d="m508.9 242-9-45c-.4-1.8-1.6-3.2-3.3-3.8l-27-9c-1.8-.6-3.8-.1-5.1 1.2l-18 18c-1.5 1.5-1.9 3.8-.9 5.8l9 18c.8 1.7 2.6 2.8 4.5 2.8h5.9l6.5 13-33.1 66.2-25.2-6.3c-5.3-1.3-10.8-1.4-16.1-.3l-36.7 7.3-25.7-8.6c-.5-.2-1-.3-1.6-.3H180c-.5 0-1.1.1-1.6.3l-25.7 8.6-36.6-7.3c-5.2-1.1-10.6-1-16.3.3l-25.1 6.3L41.6 243l6.5-13H54c1.9 0 3.6-1.1 4.5-2.8l9-18c1-1.9.6-4.2-.9-5.8l-18-18c-1.3-1.3-3.3-1.8-5.1-1.2l-27 9c-1.7.6-3 2-3.3 3.8l-9 45c-.2.8-.1 1.7.1 2.4L38.6 356v.1c1.7 5.1 6 8.8 11.3 9.6l57.4 8.2H148.6L166 504.7c.3 2.5 2.5 4.3 5 4.3h171c2.5 0 4.6-1.9 5-4.3L364.4 374H405.7l57.4-8.2c5.4-.8 9.8-4.5 11.4-9.7l34.3-111.6c.2-.8.3-1.7.1-2.5zm-250.3 69 3.8 5.7-2.8 3.1c-1.1 1.2-1.5 2.7-1.2 4.3l24.3 133.1-21.7 24.6-4.9 5.6-26.6-30.2 24.3-133.1c.3-1.6-.2-3.2-1.3-4.3l-2.8-3 3.8-5.8zM158 368.3c-.3-2.5-2.5-4.3-5-4.3h-44.6l-57-8.1c-1.5-.2-2.8-1.3-3.3-2.8L14.2 242.7l8.2-40.9 21.3-7.1L56.9 208l-6 12H45c-1.9 0-3.6 1.1-4.5 2.8l-9 18c-.7 1.4-.7 3.1 0 4.5l36 72c1 2.1 3.4 3.2 5.7 2.6l28.9-7.3c4.1-1 8.1-1.1 11.9-.3l38 7.6c.9.2 1.7.1 2.6-.2l26.2-8.7h60.6l-2.3 3.5c-1.3 1.9-1.1 4.5.5 6.2l3.8 4.1-24.2 133c-.3 1.5.2 3.1 1.2 4.2l23.3 26.4 8.7 9.9c.2.3.5.5.8.7h-77.6zm306.9-15.1c-.4 1.4-1.7 2.5-3.2 2.7l-57 8.2H360c-2.5 0-4.6 1.9-5 4.3L337.6 499H259c.3-.2.5-.4.8-.7l32-36.3c1-1.1 1.4-2.7 1.2-4.2l-24.3-133.1 3.8-4.2c1.6-1.7 1.8-4.2.5-6.2l-2.3-3.4h61.5l26.2 8.7c.8.3 1.7.3 2.6.2l38-7.6c3.9-.8 8-.7 11.8.2l29 7.3c2.3.6 4.6-.5 5.7-2.6l36-72c.7-1.4.7-3.1 0-4.5l-9-18c-.8-1.7-2.6-2.8-4.5-2.8h-5.9l-6-12 13.3-13.3 21.3 7.1 8.2 40.9z" fill="#ffffff" opacity="1" data-original="#000000" class=""></path><path d="M201.5 238.5c0 12.8 4.3 24.8 12.4 34.7 10.4 12.6 25.7 19.8 42.1 19.8 16.3 0 31.6-7.2 42.1-19.8 8.1-9.9 12.4-21.9 12.4-34.7 0-30.1-24.4-54.5-54.5-54.5s-54.5 24.4-54.5 54.5zm99 0c0 10.5-3.5 20.3-10.2 28.3-8.5 10.3-21 16.2-34.3 16.2s-25.8-5.9-34.3-16.2c-6.6-8-10.2-17.8-10.2-28.3 0-24.5 20-44.5 44.5-44.5s44.5 20 44.5 44.5z" fill="#ffffff" opacity="1" data-original="#000000" class=""></path><path d="M157 104h56.5l-43.3 164.7c-.7 2.7.9 5.4 3.6 6.1s5.4-.9 6.1-3.6l45-171c.4-1.5.1-3.1-.9-4.3s-2.4-1.9-4-1.9h-50.1L256 15.8 342.1 94H292c-1.6 0-3 .7-4 1.9s-1.3 2.8-.9 4.3l45 171c.6 2.2 2.6 3.7 4.8 3.7.4 0 .8-.1 1.3-.2 2.7-.7 4.3-3.4 3.6-6.1L298.5 104H355c2.1 0 3.9-1.3 4.7-3.2.7-1.9.2-4.1-1.3-5.5l-99-90c-1.9-1.7-4.8-1.7-6.7 0l-99 90c-1.5 1.4-2 3.6-1.3 5.5s2.5 3.2 4.6 3.2z" fill="#ffffff" opacity="1" data-original="#000000" class=""></path><path d="m164.2 171.9-3.3 9.4c-.9 2.6.5 5.5 3.1 6.4.6.2 1.1.3 1.7.3 2.1 0 4-1.3 4.7-3.4l3.3-9.4c.9-2.6-.5-5.5-3.1-6.4s-5.5.5-6.4 3.1zM154 216c.6.2 1.1.3 1.7.3 2.1 0 4-1.3 4.7-3.4l3.3-9.4c.9-2.6-.5-5.5-3.1-6.4s-5.5.5-6.4 3.1l-3.3 9.4c-.9 2.6.5 5.5 3.1 6.4zM185.7 131.4c2 0 4-1.3 4.7-3.4l3.3-9.4c.9-2.6-.5-5.5-3.1-6.4s-5.5.5-6.4 3.1l-3.3 9.4c-.9 2.6.5 5.5 3.1 6.4.6.2 1.1.3 1.7.3zM134 272.6c.6.2 1.1.3 1.7.3 2.1 0 4-1.3 4.7-3.4l3.3-9.4c.9-2.6-.5-5.5-3.1-6.4s-5.5.5-6.4 3.1l-3.3 9.4c-.9 2.6.5 5.5 3.1 6.4zM174.2 143.6l-3.3 9.4c-.9 2.6.5 5.5 3.1 6.4.6.2 1.1.3 1.7.3 2 0 4-1.3 4.7-3.4l3.3-9.4c.9-2.6-.5-5.5-3.1-6.4s-5.5.5-6.4 3.1zM144 244.3c.6.2 1.1.3 1.7.3 2.1 0 4-1.3 4.7-3.4l3.3-9.4c.9-2.6-.5-5.5-3.1-6.4s-5.5.5-6.4 3.1l-3.3 9.4c-.9 2.6.5 5.5 3.1 6.4zM109.4 232.5l-4.1 9.1c-1.2 2.5 0 5.5 2.5 6.6.6.3 1.3.4 2 .4 1.9 0 3.7-1.2 4.6-2.9l4.1-9.1c1.2-2.5 0-5.5-2.5-6.6-2.5-1.2-5.5 0-6.6 2.5zM95.6 275.6c.6.3 1.3.4 2 .4 1.9 0 3.7-1.1 4.6-2.9l4.1-9.1c1.2-2.5 0-5.5-2.5-6.6-2.5-1.2-5.5 0-6.6 2.5l-4.1 9.1c-1.2 2.5 0 5.5 2.5 6.6zM119.9 220.7c.6.3 1.3.4 2 .4 2 0 3.8-1.1 4.6-2.9l4.1-9.1c1.2-2.5 0-5.5-2.5-6.6-2.5-1.2-5.5 0-6.6 2.5l-4.1 9.1c-1.2 2.5 0 5.5 2.5 6.6zM364.3 237.5c.8 1.9 2.6 3.1 4.6 3.1.7 0 1.3-.1 1.9-.4 2.6-1 3.8-4 2.7-6.5l-3.8-9.2c-1-2.6-4-3.8-6.5-2.7-2.6 1-3.8 4-2.7 6.5zM352.8 209.8c.8 1.9 2.6 3.1 4.6 3.1.6 0 1.3-.1 1.9-.4 2.6-1 3.8-4 2.7-6.5l-3.8-9.2c-1-2.6-3.9-3.8-6.5-2.7-2.6 1-3.8 4-2.7 6.5zM350.4 178.3l-3.8-9.2c-1-2.6-4-3.8-6.5-2.7-2.6 1-3.8 4-2.7 6.5l3.8 9.2c.8 1.9 2.6 3.1 4.6 3.1.7 0 1.3-.1 1.9-.4 2.6-1 3.8-4 2.7-6.5zM375.9 265.2c.8 1.9 2.6 3.1 4.6 3.1.6 0 1.3-.1 1.8-.4 2.6-1 3.8-4 2.7-6.5l-3.8-9.2c-1-2.6-3.9-3.8-6.5-2.7-2.6 1-3.8 4-2.7 6.5zM355.6 128.4l4.9 8.7c.9 1.7 2.6 2.6 4.4 2.6.8 0 1.6-.2 2.4-.7 2.4-1.3 3.2-4.4 1.9-6.8l-4.9-8.7c-1.3-2.4-4.4-3.2-6.8-1.9s-3.2 4.4-1.9 6.8zM384.7 180.9l4.9 8.7c.9 1.7 2.6 2.6 4.4 2.6.8 0 1.7-.2 2.4-.7 2.4-1.3 3.2-4.4 1.9-6.8l-4.9-8.7c-1.3-2.4-4.4-3.2-6.8-1.9s-3.2 4.4-1.9 6.8zM370.1 154.7l4.9 8.7c.9 1.7 2.6 2.6 4.4 2.6.9 0 1.7-.2 2.4-.7 2.4-1.3 3.2-4.4 1.9-6.8l-4.9-8.7c-1.3-2.4-4.4-3.2-6.8-1.9s-3.2 4.4-1.9 6.8zM401.2 200.3c-2.4 1.3-3.2 4.4-1.9 6.8l1.3 2.3c.9 1.7 2.6 2.6 4.4 2.6.8 0 1.7-.2 2.4-.7 2.4-1.3 3.2-4.4 1.9-6.8l-1.3-2.3c-1.3-2.4-4.4-3.2-6.8-1.9zM422.3 67.6c2.8 0 5-2.2 5-5v-9c0-2.8-2.2-5-5-5s-5 2.2-5 5v9c0 2.8 2.2 5 5 5zM431.3 76.6h9c2.8 0 5-2.2 5-5s-2.2-5-5-5h-9c-2.8 0-5 2.2-5 5s2.2 5 5 5zM422.3 75.6c-2.8 0-5 2.2-5 5v9c0 2.8 2.2 5 5 5s5-2.2 5-5v-9c0-2.8-2.2-5-5-5zM404.3 76.6h9c2.8 0 5-2.2 5-5s-2.2-5-5-5h-9c-2.8 0-5 2.2-5 5s2.2 5 5 5zM90 167c2.8 0 5-2.2 5-5v-9c0-2.8-2.2-5-5-5s-5 2.2-5 5v9c0 2.8 2.2 5 5 5zM99 176h9c2.8 0 5-2.2 5-5s-2.2-5-5-5h-9c-2.8 0-5 2.2-5 5s2.2 5 5 5zM95 189v-9c0-2.8-2.2-5-5-5s-5 2.2-5 5v9c0 2.8 2.2 5 5 5s5-2.2 5-5zM72 176h9c2.8 0 5-2.2 5-5s-2.2-5-5-5h-9c-2.8 0-5 2.2-5 5s2.2 5 5 5zM432 410c2.8 0 5-2.2 5-5v-9c0-2.8-2.2-5-5-5s-5 2.2-5 5v9c0 2.8 2.2 5 5 5zM450 409h-9c-2.8 0-5 2.2-5 5s2.2 5 5 5h9c2.8 0 5-2.2 5-5s-2.2-5-5-5zM432 418c-2.8 0-5 2.2-5 5v9c0 2.8 2.2 5 5 5s5-2.2 5-5v-9c0-2.8-2.2-5-5-5zM423 409h-9c-2.8 0-5 2.2-5 5s2.2 5 5 5h9c2.8 0 5-2.2 5-5s-2.2-5-5-5z" fill="#ffffff" opacity="1" data-original="#000000" class=""></path></g></svg>