<svg width="452" height="480" viewBox="0 0 452 480" fill="none" xmlns="http://www.w3.org/2000/svg">
<path d="M32.0751 337.5L63.2137 321.952C64.6981 321.223 66.3931 321.146 67.9304 321.738C69.4676 322.329 70.7231 323.542 71.4239 325.11L118.815 432.113C118.858 432.219 118.903 432.324 118.955 432.428L119.62 433.928C120.316 435.505 120.394 437.31 119.836 438.948C119.28 440.585 118.134 441.921 116.651 442.662L85.5241 458.213C84.6791 458.628 83.9197 459.217 83.2897 459.944C82.6597 460.672 82.1714 461.526 81.853 462.455C81.5347 463.384 81.3925 464.371 81.4347 465.359C81.4768 466.346 81.7024 467.316 82.0986 468.21C82.4948 469.105 83.0538 469.908 83.7432 470.573C84.4327 471.237 85.2391 471.75 86.1161 472.083C86.993 472.416 87.9232 472.56 88.8533 472.509C89.7829 472.459 90.694 472.213 91.5344 471.787L122.662 456.241C126.754 454.193 130.087 450.755 132.132 446.469C134.179 442.185 134.82 437.298 133.957 432.582C144.857 427.701 163.863 426.301 167.769 426.846L176.42 428.177C183.935 429.392 191.607 428.904 198.932 426.747C202.545 425.716 207.658 424.363 213.581 422.792C248.046 413.647 282.705 403.993 294.753 395.342L417.774 307.087C423.694 302.824 427.782 296.242 429.141 288.785C430.501 281.328 429.021 273.602 425.027 267.301C421.578 261.918 416.51 257.938 410.653 256.013C404.795 254.089 398.496 254.333 392.787 256.707C390.99 253.063 388.439 249.897 385.326 247.447C382.215 244.996 378.621 243.325 374.815 242.557C371.541 241.873 368.172 241.892 364.904 242.612C361.637 243.332 358.539 244.739 355.792 246.75L355.488 246.971C355.472 246.947 355.458 246.921 355.442 246.895C353.62 243.954 351.261 241.432 348.503 239.476C345.746 237.52 342.649 236.173 339.392 235.512C336.216 234.844 332.947 234.859 329.775 235.556C326.605 236.253 323.599 237.619 320.935 239.573L307.882 249.094C304.464 243.759 299.192 240.083 293.224 238.874C287.257 237.665 281.08 239.021 276.054 242.645L224.624 280.072L217.596 276.734C189.186 263.063 152.742 271.8 130.166 283.435C109.047 294.317 98.4954 302.105 83.8918 312.883L81.7157 314.488C78.8728 310.688 74.9056 308.017 70.4558 306.908C66.0059 305.798 61.3339 306.316 57.1956 308.377L26.0641 323.927C24.388 324.786 23.0987 326.312 22.4766 328.175C21.8545 330.038 21.9498 332.085 22.7418 333.874C23.5338 335.662 24.9585 337.046 26.7062 337.725C28.4539 338.405 30.3833 338.323 32.0751 337.5ZM372.161 257.286C374.034 257.66 375.791 258.519 377.278 259.787C378.764 261.054 379.932 262.691 380.681 264.553L340.955 293.07C337.431 289.285 333.046 286.533 328.226 285.079L363.804 259.11C365.011 258.23 366.373 257.615 367.809 257.302C369.244 256.988 370.724 256.983 372.161 257.287V257.286ZM328.947 251.93C330.069 251.11 331.335 250.537 332.669 250.247C334.003 249.956 335.38 249.953 336.715 250.237C338.134 250.527 339.483 251.118 340.682 251.974C341.881 252.829 342.906 253.932 343.697 255.217C343.75 255.301 343.791 255.389 343.842 255.474L297.39 289.386L287.179 292.292C281.606 293.905 275.863 294.767 270.087 294.856L328.947 251.93ZM284.033 255.023C284.977 254.339 286.04 253.861 287.16 253.617C288.28 253.373 289.434 253.37 290.556 253.605C291.705 253.833 292.8 254.303 293.775 254.987C294.752 255.67 295.589 256.554 296.239 257.587L249.745 291.499C247.253 290.646 244.805 289.651 242.413 288.519L239.745 287.253L284.033 255.023ZM136.333 296.93C152.296 288.702 186.147 278.068 211.798 290.411L236.654 302.214C254.369 310.604 272.09 312.098 290.835 306.781L316.583 299.447C320.325 298.478 324.276 299.105 327.589 301.19C330.902 303.275 333.316 306.654 334.312 310.605C335.31 314.557 334.811 318.764 332.924 322.33C331.036 325.896 327.91 328.535 324.214 329.684L234.899 355.125C234.001 355.378 233.16 355.817 232.422 356.417C231.684 357.016 231.066 357.764 230.6 358.617C230.135 359.471 229.833 360.414 229.711 361.391C229.59 362.369 229.651 363.363 229.892 364.315C230.132 365.268 230.547 366.161 231.113 366.943C231.679 367.725 232.385 368.381 233.19 368.873C233.995 369.365 234.883 369.683 235.804 369.811C236.725 369.937 237.66 369.871 238.557 369.613L327.869 344.182C335.255 342.063 341.55 336.923 345.376 329.888C349.201 322.852 350.245 314.492 348.28 306.64C348.229 306.439 348.168 306.242 348.113 306.041L395.474 272.046C398.302 270.028 401.767 269.281 405.112 269.966C408.458 270.651 411.412 272.713 413.332 275.702C415.227 278.707 415.928 282.384 415.281 285.935C414.634 289.486 412.692 292.621 409.877 294.657L286.851 382.914C275.859 390.807 233.123 402.147 210.164 408.239C204.18 409.827 199.012 411.198 195.287 412.257C189.805 413.889 184.058 414.255 178.431 413.329L169.811 412.002C165.018 411.252 143.326 412.141 128.514 418.76L88.2785 327.916C89.534 326.993 90.7584 326.09 91.9529 325.208C106.03 314.813 116.204 307.306 136.333 296.934V296.93ZM154.821 195.473H180.709L199.425 224.403C200.074 225.406 200.942 226.225 201.956 226.793C202.969 227.359 204.097 227.656 205.243 227.656C206.388 227.656 207.517 227.361 208.531 226.794C209.544 226.228 210.414 225.409 211.063 224.407L229.804 195.473H317.707C326.94 195.465 335.793 191.568 342.325 184.637C348.856 177.706 352.532 168.307 352.547 158.501V44.4713C352.532 34.6665 348.856 25.2683 342.325 18.3376C335.794 11.4068 326.942 7.50942 317.709 7.5H154.821C145.587 7.50818 136.734 11.4051 130.202 18.3359C123.67 25.2668 119.994 34.6658 119.979 44.4713V158.506C119.994 168.311 123.67 177.711 130.202 184.642C136.734 191.573 145.586 195.47 154.821 195.478V195.473ZM134.104 44.4713C134.113 38.6423 136.3 33.0552 140.184 28.9362C144.068 24.8171 149.331 22.5024 154.821 22.5H317.709C323.198 22.503 328.462 24.818 332.345 28.9372C336.229 33.0563 338.415 38.6433 338.424 44.4722V158.506C338.415 164.334 336.229 169.922 332.345 174.041C328.462 178.16 323.198 180.475 317.709 180.478H226.093C224.947 180.478 223.819 180.773 222.805 181.34C221.792 181.906 220.922 182.725 220.273 183.727L205.249 206.921L190.251 183.731C189.602 182.728 188.732 181.908 187.719 181.341C186.704 180.774 185.575 180.478 184.429 180.478H154.821C149.331 180.475 144.067 178.161 140.184 174.041C136.299 169.923 134.113 164.335 134.104 158.506V44.4713ZM156.206 75.1772C155.535 74.4951 154.998 73.6792 154.625 72.7763C154.251 71.8735 154.049 70.9013 154.03 69.9154C154.01 68.9295 154.174 67.9492 154.512 67.0308C154.851 66.1123 155.356 65.2736 155.999 64.5628C156.643 63.8519 157.413 63.2828 158.264 62.8881C159.115 62.4932 160.03 62.2806 160.959 62.2621C161.887 62.2436 162.81 62.4198 163.674 62.7804C164.539 63.1412 165.327 63.6793 165.995 64.3641L175.034 73.5938L197.151 47.8434C197.774 47.1079 198.528 46.5105 199.369 46.0856C200.21 45.6608 201.122 45.4169 202.053 45.3681C202.983 45.3191 203.914 45.4663 204.79 45.8009C205.667 46.1355 206.472 46.6509 207.161 47.3177C207.849 47.9843 208.406 48.7891 208.801 49.6854C209.195 50.5818 209.418 51.5522 209.458 52.5406C209.498 53.529 209.352 54.516 209.031 55.4446C208.71 56.3733 208.218 57.2253 207.586 57.9516L180.585 89.3887C179.949 90.128 179.18 90.7245 178.323 91.1432C177.466 91.5618 176.54 91.794 175.598 91.8262C175.521 91.8262 175.443 91.8262 175.366 91.8262C173.542 91.8262 171.787 91.0759 170.472 89.7328L156.206 75.1772ZM230.915 52.8956C230.915 50.9065 231.659 48.9988 232.983 47.5923C234.307 46.1858 236.104 45.3956 237.977 45.3956H311.427C313.3 45.3956 315.096 46.1858 316.421 47.5923C317.745 48.9988 318.49 50.9065 318.49 52.8956C318.49 54.8847 317.745 56.7924 316.421 58.199C315.096 59.6054 313.3 60.3956 311.427 60.3956H237.977C236.105 60.3952 234.308 59.6047 232.984 58.1982C231.661 56.7918 230.916 54.8844 230.916 52.8956H230.915ZM230.915 85.2909C230.915 83.3018 231.659 81.3941 232.983 79.9876C234.307 78.5812 236.104 77.7909 237.977 77.7909H311.427C313.3 77.7909 315.096 78.5812 316.421 79.9876C317.745 81.3941 318.49 83.3018 318.49 85.2909C318.49 87.28 317.745 89.1878 316.421 90.5943C315.096 92.0007 313.3 92.7909 311.427 92.7909H237.977C236.105 92.7905 234.308 92.0001 232.984 90.5935C231.661 89.1871 230.916 87.2797 230.916 85.2909H230.915ZM154.038 117.686C154.038 115.697 154.782 113.789 156.106 112.383C157.43 110.977 159.227 110.186 161.1 110.186H311.428C313.301 110.186 315.097 110.977 316.422 112.383C317.746 113.789 318.491 115.697 318.491 117.686C318.491 119.676 317.746 121.583 316.422 122.99C315.097 124.396 313.301 125.186 311.428 125.186H161.102C159.228 125.186 157.432 124.396 156.108 122.99C154.784 121.583 154.039 119.676 154.039 117.686H154.038ZM154.038 150.082C154.038 148.092 154.782 146.184 156.106 144.778C157.43 143.372 159.227 142.582 161.1 142.582H311.428C313.301 142.582 315.097 143.372 316.422 144.778C317.746 146.184 318.491 148.092 318.491 150.082C318.491 152.071 317.746 153.979 316.422 155.385C315.097 156.791 313.301 157.582 311.428 157.582H161.102C159.228 157.582 157.432 156.791 156.108 155.385C154.784 153.979 154.039 152.071 154.039 150.082H154.038Z" fill="white"/>
</svg>
