<svg width="452" height="480" viewBox="0 0 452 480" fill="none" xmlns="http://www.w3.org/2000/svg">
<path d="M116.588 156.194C113.947 154.431 110.508 155.356 108.9 158.266L101.444 171.796L98.0571 168.352C95.7855 166.038 92.2457 166.202 90.1495 168.697C88.0532 171.2 88.195 175.1 90.4628 177.41L98.8777 185.971C99.9184 187.032 101.276 187.607 102.675 187.607C102.932 187.607 103.193 187.587 103.454 187.545C105.118 187.287 106.588 186.222 107.457 184.64L118.464 164.665C120.068 161.755 119.229 157.966 116.588 156.194Z" fill="white"/>
<path d="M116.588 205.05C113.947 203.283 110.508 204.212 108.9 207.121L101.444 220.652L98.0533 217.203C95.7818 214.893 92.242 215.05 90.1457 217.548C88.0495 220.051 88.1912 223.952 90.4591 226.262L98.8739 234.823C99.9146 235.883 101.272 236.459 102.671 236.459C102.928 236.459 103.19 236.438 103.451 236.397C105.114 236.138 106.584 235.074 107.453 233.491L118.46 213.517C120.068 210.607 119.229 206.817 116.588 205.05Z" fill="white"/>
<path d="M116.588 253.901C113.947 252.134 110.508 253.059 108.9 255.973L101.444 269.503L98.0533 266.059C95.7818 263.745 92.242 263.909 90.1457 266.404C88.0495 268.907 88.1912 272.807 90.4591 275.117L98.8739 283.678C99.9146 284.739 101.272 285.314 102.671 285.314C102.928 285.314 103.19 285.294 103.451 285.253C105.114 284.994 106.584 283.929 107.453 282.347L118.46 262.376C120.068 259.458 119.229 255.669 116.588 253.901Z" fill="white"/>
<path d="M116.588 306.822C113.947 305.054 110.508 305.983 108.9 308.893L101.444 322.423L98.0533 318.979C95.7818 316.669 92.242 316.826 90.1457 319.324C88.0495 321.827 88.1912 325.728 90.4591 328.038L98.8739 336.599C99.9146 337.659 101.272 338.235 102.671 338.235C102.928 338.235 103.19 338.214 103.451 338.173C105.114 337.914 106.584 336.849 107.453 335.267L118.46 315.297C120.068 312.383 119.229 308.593 116.588 306.822Z" fill="white"/>
<path d="M202.482 171.455C202.482 168.048 199.979 165.29 196.887 165.29H130.758C127.666 165.29 125.163 168.048 125.163 171.455C125.163 174.862 127.666 177.62 130.758 177.62H196.887C199.979 177.62 202.482 174.858 202.482 171.455Z" fill="white"/>
<path d="M187.704 224.375C187.704 220.968 185.201 218.21 182.109 218.21H130.758C127.666 218.21 125.163 220.968 125.163 224.375C125.163 227.782 127.666 230.54 130.758 230.54H182.109C185.201 230.54 187.704 227.782 187.704 224.375Z" fill="white"/>
<path d="M163.601 267.062H130.758C127.666 267.062 125.163 269.819 125.163 273.227C125.163 276.634 127.666 279.392 130.758 279.392H163.601C166.693 279.392 169.196 276.634 169.196 273.227C169.196 269.819 166.693 267.062 163.601 267.062Z" fill="white"/>
<path d="M163.567 319.986H130.758C127.666 319.986 125.163 322.744 125.163 326.151C125.163 329.558 127.666 332.316 130.758 332.316H163.563C166.656 332.316 169.158 329.558 169.158 326.151C169.158 322.744 166.656 319.986 163.567 319.986Z" fill="white"/>
<path d="M226.716 194.072C226.716 229.365 252.774 258.077 284.803 258.077C316.829 258.077 342.887 229.365 342.887 194.072C342.887 158.78 316.829 130.067 284.803 130.067C252.774 130.067 226.716 158.78 226.716 194.072ZM284.8 142.397C310.656 142.397 331.693 165.578 331.693 194.072C331.693 222.567 310.66 245.747 284.8 245.747C258.939 245.747 237.902 222.567 237.902 194.072C237.902 165.578 258.943 142.397 284.8 142.397Z" fill="white"/>
<path d="M385.704 307.011C384.316 268.163 353.823 256.15 337.601 255.217C310.003 255.217 292.353 266.079 284.908 271.862C277.694 265.59 260.39 253.749 232.598 253.749C232.401 253.749 232.203 253.762 232.005 253.782C215.366 255.735 183.899 269.421 183.899 307.253V385.578H98.0832C84.8715 385.578 74.1217 373.733 74.1217 359.175V117.141C74.1217 102.584 84.8715 90.7386 98.0832 90.7386H241.86C253.852 90.7386 264.064 100.598 265.616 113.676C266.015 117.051 268.835 119.439 271.89 118.991C274.952 118.551 277.112 115.456 276.713 112.078C274.438 92.884 259.454 78.4086 241.86 78.4086H98.0832C78.7021 78.4086 62.9317 95.7856 62.9317 117.141V359.175C62.9317 380.531 78.7021 397.908 98.0832 397.908H189.487H193.952H344.8H380.105C383.197 397.908 385.7 395.15 385.7 391.743L385.704 307.011ZM374.517 385.578H350.41L350.477 318.317C350.481 314.914 347.978 312.152 344.886 312.148H344.882C341.794 312.148 339.291 314.902 339.287 318.309L339.22 385.582H230.118V318.313C230.118 314.906 227.615 312.148 224.523 312.148C221.431 312.148 218.928 314.906 218.928 318.313V385.578H195.086V307.253C195.086 272.31 229.26 266.589 232.923 266.079C264.62 266.199 280.014 283.382 280.637 284.094C282.741 286.547 286.262 286.662 288.515 284.377C288.679 284.209 305.471 267.547 337.292 267.534C338.758 267.629 373.193 270.263 374.517 307.253V385.578Z" fill="white"/>
</svg>
