<svg width="512" height="512" viewBox="0 0 512 512" fill="none" xmlns="http://www.w3.org/2000/svg">
<path d="M36.3329 360L71.6049 343.415C73.2863 342.638 75.2063 342.556 76.9477 343.187C78.689 343.818 80.1111 345.111 80.9049 346.784L134.587 460.921C134.636 461.034 134.687 461.146 134.745 461.257L135.499 462.857C136.287 464.539 136.375 466.464 135.744 468.211C135.114 469.957 133.816 471.382 132.136 472.173L96.8769 488.76C95.9197 489.203 95.0595 489.831 94.3458 490.607C93.6322 491.384 93.0791 492.294 92.7185 493.285C92.3579 494.276 92.1968 495.329 92.2446 496.383C92.2923 497.436 92.5479 498.47 92.9967 499.424C93.4455 500.379 94.0786 501.235 94.8596 501.944C95.6406 502.653 96.554 503.2 97.5474 503.555C98.5407 503.91 99.5944 504.064 100.648 504.01C101.701 503.956 102.733 503.694 103.685 503.239L138.945 486.657C143.58 484.473 147.355 480.805 149.672 476.234C151.99 471.664 152.717 466.451 151.739 461.421C164.086 456.214 185.615 454.721 190.039 455.302L199.839 456.722C208.351 458.018 217.042 457.498 225.339 455.197C229.431 454.097 235.223 452.654 241.932 450.978C280.973 441.223 320.232 430.926 333.88 421.698L473.231 327.559C479.937 323.012 484.567 315.992 486.107 308.037C487.647 300.083 485.971 291.842 481.447 285.121C477.54 279.379 471.799 275.134 465.164 273.081C458.529 271.028 451.394 271.289 444.927 273.821C442.891 269.934 440.002 266.557 436.476 263.943C432.951 261.329 428.88 259.547 424.569 258.728C420.861 257.998 417.044 258.018 413.343 258.786C409.642 259.554 406.133 261.055 403.021 263.2L402.677 263.436C402.659 263.41 402.643 263.382 402.625 263.355C400.561 260.218 397.888 257.527 394.765 255.441C391.642 253.355 388.133 251.918 384.444 251.213C380.847 250.5 377.143 250.516 373.551 251.26C369.96 252.003 366.555 253.46 363.537 255.544L348.751 265.7C344.88 260.01 338.908 256.089 332.148 254.799C325.388 253.509 318.392 254.956 312.698 258.821L254.441 298.743L246.48 295.183C214.299 280.601 173.017 289.92 147.445 302.331C123.522 313.938 111.57 322.245 95.0279 333.742L92.5629 335.454C89.3427 331.4 84.8488 328.551 79.8083 327.368C74.7678 326.185 69.4756 326.737 64.7879 328.935L29.5239 345.522C27.6253 346.438 26.1649 348.066 25.4602 350.053C24.7555 352.04 24.8635 354.224 25.7606 356.132C26.6578 358.04 28.2716 359.516 30.2513 360.24C32.231 360.965 34.4165 360.878 36.3329 360ZM421.563 274.438C423.685 274.837 425.675 275.754 427.359 277.106C429.042 278.458 430.366 280.204 431.214 282.19L386.214 312.608C382.223 308.571 377.256 305.635 371.796 304.084L412.096 276.384C413.464 275.445 415.007 274.789 416.633 274.455C418.259 274.121 419.935 274.115 421.563 274.439V274.438ZM372.612 268.725C373.883 267.851 375.317 267.24 376.829 266.93C378.34 266.62 379.899 266.616 381.412 266.919C383.019 267.229 384.547 267.859 385.905 268.772C387.264 269.684 388.425 270.861 389.32 272.231C389.38 272.321 389.427 272.415 389.485 272.506L336.866 308.678L325.3 311.778C318.987 313.499 312.482 314.418 305.939 314.513L372.612 268.725ZM321.737 272.025C322.806 271.295 324.01 270.785 325.279 270.525C326.547 270.265 327.855 270.261 329.125 270.512C330.427 270.755 331.667 271.257 332.772 271.986C333.878 272.715 334.827 273.658 335.563 274.759L282.897 310.932C280.074 310.022 277.301 308.961 274.592 307.754L271.57 306.403L321.737 272.025ZM154.43 316.725C172.512 307.949 210.857 296.606 239.913 309.772L268.068 322.362C288.135 331.311 308.208 332.905 329.441 327.233L358.607 319.41C362.846 318.377 367.321 319.045 371.074 321.269C374.827 323.493 377.561 327.098 378.69 331.312C379.82 335.527 379.255 340.015 377.117 343.819C374.979 347.622 371.438 350.437 367.251 351.663L266.08 378.8C265.063 379.07 264.11 379.538 263.274 380.178C262.439 380.817 261.738 381.615 261.211 382.525C260.684 383.436 260.342 384.442 260.204 385.484C260.067 386.527 260.136 387.587 260.409 388.603C260.681 389.619 261.151 390.572 261.792 391.406C262.433 392.24 263.232 392.94 264.144 393.465C265.056 393.989 266.062 394.329 267.105 394.465C268.149 394.6 269.208 394.529 270.224 394.254L371.392 367.127C379.758 364.867 386.889 359.385 391.222 351.88C395.555 344.375 396.738 335.458 394.512 327.083C394.454 326.868 394.385 326.658 394.323 326.444L447.97 290.182C451.174 288.03 455.099 287.233 458.888 287.964C462.678 288.694 466.024 290.894 468.199 294.082C470.346 297.287 471.14 301.21 470.407 304.997C469.674 308.785 467.474 312.129 464.286 314.301L324.929 408.442C312.478 416.861 264.069 428.957 238.062 435.455C231.284 437.149 225.43 438.611 221.21 439.741C215 441.482 208.49 441.872 202.117 440.884L192.352 439.469C186.923 438.669 162.352 439.617 145.573 446.677L99.9969 349.777C101.419 348.792 102.806 347.829 104.159 346.888C120.105 335.8 131.629 327.793 154.43 316.73V316.725ZM175.372 208.505H204.697L225.897 239.363C226.632 240.433 227.616 241.307 228.764 241.912C229.912 242.516 231.19 242.833 232.488 242.833C233.785 242.833 235.063 242.518 236.212 241.914C237.36 241.31 238.345 240.436 239.08 239.367L260.309 208.505H359.88C370.339 208.496 380.367 204.339 387.766 196.946C395.164 189.553 399.328 179.527 399.345 169.068V47.436C399.328 36.9776 395.164 26.9528 387.766 19.5601C380.369 12.1673 370.341 8.01005 359.883 8H175.372C164.913 8.00872 154.884 12.1654 147.485 19.5583C140.086 26.9512 135.922 36.9768 135.905 47.436V169.073C135.922 179.532 140.086 189.558 147.485 196.951C154.884 204.344 164.912 208.501 175.372 208.51V208.505ZM151.905 47.436C151.916 41.2184 154.393 35.2589 158.792 30.8653C163.192 26.4716 169.154 24.0026 175.372 24H359.883C366.1 24.0032 372.063 26.4725 376.462 30.8663C380.861 35.2601 383.337 41.2195 383.348 47.437V169.073C383.337 175.29 380.861 181.25 376.462 185.644C372.063 190.037 366.1 192.507 359.883 192.51H256.105C254.807 192.51 253.529 192.825 252.381 193.429C251.233 194.033 250.248 194.907 249.513 195.976L232.495 220.716L215.505 195.98C214.77 194.91 213.785 194.035 212.637 193.43C211.488 192.826 210.209 192.51 208.911 192.51H175.372C169.154 192.507 163.191 190.038 158.792 185.644C154.392 181.251 151.916 175.291 151.905 169.073V47.436ZM176.941 80.189C176.181 79.4614 175.573 78.5912 175.15 77.6281C174.727 76.6651 174.498 75.628 174.476 74.5764C174.454 73.5248 174.64 72.4792 175.023 71.4995C175.406 70.5198 175.978 69.6252 176.707 68.867C177.436 68.1087 178.308 67.5017 179.272 67.0806C180.236 66.6594 181.273 66.4326 182.325 66.4129C183.376 66.3932 184.422 66.5811 185.401 66.9658C186.38 67.3506 187.273 67.9246 188.03 68.655L198.269 78.5L223.321 51.033C224.027 50.2484 224.881 49.6112 225.834 49.158C226.787 48.7048 227.82 48.4447 228.874 48.3926C229.928 48.3404 230.982 48.4974 231.975 48.8543C232.968 49.2112 233.88 49.761 234.66 50.4722C235.44 51.1833 236.071 52.0417 236.518 52.9978C236.964 53.9539 237.217 54.989 237.262 56.0433C237.307 57.0976 237.142 58.1504 236.778 59.1409C236.415 60.1315 235.858 61.0403 235.142 61.815L204.556 95.348C203.836 96.1365 202.965 96.7728 201.994 97.2194C201.024 97.6659 199.974 97.9136 198.907 97.948C198.82 97.948 198.732 97.948 198.645 97.948C196.578 97.9479 194.591 97.1476 193.101 95.715L176.941 80.189ZM261.567 56.422C261.567 54.3003 262.41 52.2654 263.91 50.7651C265.41 49.2649 267.445 48.422 269.567 48.422H352.767C354.889 48.422 356.923 49.2649 358.424 50.7651C359.924 52.2654 360.767 54.3003 360.767 56.422C360.767 58.5437 359.924 60.5786 358.424 62.0789C356.923 63.5791 354.889 64.422 352.767 64.422H269.567C267.446 64.4215 265.411 63.5784 263.911 62.0781C262.412 60.5779 261.569 58.5434 261.569 56.422H261.567ZM261.567 90.977C261.567 88.8553 262.41 86.8204 263.91 85.3201C265.41 83.8199 267.445 82.977 269.567 82.977H352.767C354.889 82.977 356.923 83.8199 358.424 85.3201C359.924 86.8204 360.767 88.8553 360.767 90.977C360.767 93.0987 359.924 95.1336 358.424 96.6339C356.923 98.1341 354.889 98.977 352.767 98.977H269.567C267.446 98.9765 265.411 98.1334 263.911 96.6331C262.412 95.1329 261.569 93.0984 261.569 90.977H261.567ZM174.485 125.532C174.485 123.41 175.328 121.375 176.828 119.875C178.328 118.375 180.363 117.532 182.485 117.532H352.768C354.89 117.532 356.924 118.375 358.425 119.875C359.925 121.375 360.768 123.41 360.768 125.532C360.768 127.654 359.925 129.689 358.425 131.189C356.924 132.689 354.89 133.532 352.768 133.532H182.487C180.365 133.532 178.33 132.689 176.83 131.189C175.33 129.689 174.487 127.654 174.487 125.532H174.485ZM174.485 160.087C174.485 157.965 175.328 155.93 176.828 154.43C178.328 152.93 180.363 152.087 182.485 152.087H352.768C354.89 152.087 356.924 152.93 358.425 154.43C359.925 155.93 360.768 157.965 360.768 160.087C360.768 162.209 359.925 164.244 358.425 165.744C356.924 167.244 354.89 168.087 352.768 168.087H182.487C180.365 168.087 178.33 167.244 176.83 165.744C175.33 164.244 174.487 162.209 174.487 160.087H174.485Z" fill="#F5F5F5"/>
</svg>
