<svg width="512" height="512" viewBox="0 0 512 512" fill="none" xmlns="http://www.w3.org/2000/svg">
<rect width="512" height="512" fill="#"/>
<path d="M264.75 111.432C241.933 108.989 219.733 115.706 202.467 130.971C185.817 145.626 175.95 166.997 175.95 189.589" stroke="white" stroke-width="15.5152" stroke-miterlimit="10" stroke-linecap="round" stroke-linejoin="round"/>
<path d="M304.833 316.595C307.3 295.224 326.417 275.685 340.6 259.198C358.483 237.827 368.35 210.35 365.883 180.43C360.95 129.139 319.633 87.0076 267.833 81.5121C201.233 74.1848 145.117 125.476 145.117 189.589C145.117 216.456 154.983 240.88 171.017 259.809C184.583 275.685 203.7 295.835 206.167 316.595" stroke="white" stroke-width="15.5152" stroke-miterlimit="10" stroke-linecap="round" stroke-linejoin="round"/>
<path d="M272.767 394.753V402.691C272.767 411.85 265.367 419.788 255.5 419.788C245.633 419.788 238.233 412.461 238.233 402.691V394.753C243.783 396.585 249.333 397.195 255.5 397.195C261.667 397.195 267.217 396.585 272.767 394.753Z" stroke="white" stroke-width="15.5152" stroke-miterlimit="10" stroke-linecap="round" stroke-linejoin="round"/>
<path d="M311.617 347.736C310.383 360.559 304.217 372.161 295.583 380.709C285.1 391.089 270.917 397.195 255.5 397.195C226.517 397.195 202.467 375.824 199.383 347.736C198.767 344.073 201.85 341.02 205.55 341.02H306.067C309.15 341.02 312.233 344.073 311.617 347.736Z" stroke="white" stroke-width="15.5152" stroke-miterlimit="10" stroke-linecap="round" stroke-linejoin="round"/>
<path d="M229.6 246.376L255.5 195.695L282.017 246.376H229.6Z" stroke="white" stroke-width="15.5152" stroke-miterlimit="10" stroke-linecap="round" stroke-linejoin="round"/>
<path d="M229.6 316.595V246.376H282.017L281.4 316.595" stroke="white" stroke-width="15.5152" stroke-miterlimit="10" stroke-linecap="round" stroke-linejoin="round"/>
<path d="M255.5 41.2121V59.5303" stroke="white" stroke-width="15.5152" stroke-miterlimit="10" stroke-linecap="round" stroke-linejoin="round"/>
<path d="M190.75 55.8667L198.15 72.353" stroke="white" stroke-width="15.5152" stroke-miterlimit="10" stroke-linecap="round" stroke-linejoin="round"/>
<path d="M138.333 97.3879L152.517 108.379" stroke="white" stroke-width="15.5152" stroke-miterlimit="10" stroke-linecap="round" stroke-linejoin="round"/>
<path d="M358.483 270.8L372.667 282.402" stroke="white" stroke-width="15.5152" stroke-miterlimit="10" stroke-linecap="round" stroke-linejoin="round"/>
<path d="M109.35 156.617L127.233 160.891" stroke="white" stroke-width="15.5152" stroke-miterlimit="10" stroke-linecap="round" stroke-linejoin="round"/>
<path d="M383.767 218.288L401.65 222.562" stroke="white" stroke-width="15.5152" stroke-miterlimit="10" stroke-linecap="round" stroke-linejoin="round"/>
<path d="M109.35 222.562L127.233 218.288" stroke="white" stroke-width="15.5152" stroke-miterlimit="10" stroke-linecap="round" stroke-linejoin="round"/>
<path d="M383.767 160.891L401.65 156.617" stroke="white" stroke-width="15.5152" stroke-miterlimit="10" stroke-linecap="round" stroke-linejoin="round"/>
<path d="M138.333 282.402L152.517 270.8" stroke="white" stroke-width="15.5152" stroke-miterlimit="10" stroke-linecap="round" stroke-linejoin="round"/>
<path d="M358.483 108.379L372.667 97.3879" stroke="white" stroke-width="15.5152" stroke-miterlimit="10" stroke-linecap="round" stroke-linejoin="round"/>
<path d="M312.85 72.353L320.25 55.8667" stroke="white" stroke-width="15.5152" stroke-miterlimit="10" stroke-linecap="round" stroke-linejoin="round"/>
</svg>
