<svg xmlns="http://www.w3.org/2000/svg" version="1.1" xmlns:xlink="http://www.w3.org/1999/xlink" width="512" height="512" x="0" y="0" viewBox="0 0 32 32" style="enable-background:new 0 0 512 512" xml:space="preserve" class=""><g><path d="M16 7.5a8.462 8.462 0 0 0-4.336 1.19.5.5 0 0 0 .512.86A7.439 7.439 0 0 1 15.5 8.533V11a.5.5 0 0 0 .5.5h1a.5.5 0 0 1 0 1h-1a.5.5 0 0 0-.5.5v2.5h-2V15a1.5 1.5 0 0 0-3 0v.5l-1.967.002a7.438 7.438 0 0 1 1.016-3.326.5.5 0 0 0-.858-.512A8.487 8.487 0 0 0 11.5 23.203V24a.5.5 0 0 0 .5.5h.5v1.002H12a.5.5 0 0 0 0 1h.5v1.5a.5.5 0 0 0 .5.5h.55a2.5 2.5 0 0 0 4.9 0H19a.5.5 0 0 0 .5-.5v-1.5h.5a.5.5 0 0 0 0-1h-.5V24.5h.5a.5.5 0 0 0 .5-.5v-.797A8.495 8.495 0 0 0 16 7.5Zm0 22.002a1.503 1.503 0 0 1-1.415-1h2.83a1.503 1.503 0 0 1-1.415 1Zm2.5-2h-5v-1h5Zm-5-2v-1h5v1Zm3-12.002h.5a1.5 1.5 0 0 0 0-3h-.5V8.525a7.499 7.499 0 0 1 6.975 6.977L21 15.5a.5.5 0 0 0-.5.5v1a.5.5 0 0 1-1 0v-1a.5.5 0 0 0-.5-.5h-2.5Zm-7.966 3.002L11 16.5a.5.5 0 0 0 .5-.5v-1a.5.5 0 0 1 1 0v1a.5.5 0 0 0 .5.5h2.5v2H15a1.5 1.5 0 0 0 0 3h.5v2h-3v-.58a.5.5 0 0 0-.25-.433 7.505 7.505 0 0 1-3.716-5.985Zm11.216 5.985a.5.5 0 0 0-.25.433v.58h-3V21a.5.5 0 0 0-.5-.5h-1a.5.5 0 0 1 0-1h1a.5.5 0 0 0 .5-.5v-2.5h2v.5a1.5 1.5 0 0 0 3 0v-.5l1.966.002a7.505 7.505 0 0 1-3.716 5.985ZM5.5 16a.5.5 0 0 0-.5-.5H2a.5.5 0 0 0 0 1h3a.5.5 0 0 0 .5-.5ZM6.724 10.067l-2.599-1.5a.5.5 0 1 0-.5.866l2.599 1.5a.5.5 0 0 0 .5-.866ZM10.067 6.724a.5.5 0 1 0 .866-.5l-1.5-2.599a.5.5 0 0 0-.866.5ZM16 5.5a.5.5 0 0 0 .5-.5V2a.5.5 0 0 0-1 0v3a.5.5 0 0 0 .5.5ZM21.25 6.907a.5.5 0 0 0 .683-.183l1.5-2.599a.5.5 0 0 0-.866-.5l-1.5 2.599a.5.5 0 0 0 .183.683ZM25.527 11a.497.497 0 0 0 .25-.067l2.598-1.5a.5.5 0 0 0-.5-.866l-2.599 1.5a.5.5 0 0 0 .25.933ZM30 15.5h-3a.5.5 0 0 0 0 1h3a.5.5 0 0 0 0-1ZM28.375 22.567l-2.599-1.5a.5.5 0 1 0-.5.866l2.599 1.5a.5.5 0 0 0 .5-.866ZM6.224 21.067l-2.599 1.5a.5.5 0 0 0 .5.866l2.599-1.5a.5.5 0 1 0-.5-.866Z" fill="#ffffff" opacity="1" data-original="#000000"></path><path d="M9.99 9.99a.5.5 0 1 0 .707 0 .5.5 0 0 0-.707 0Z" fill="#ffffff" opacity="1" data-original="#000000"></path></g></svg>