<?xml version="1.0" encoding="UTF-8"?>
<svg version="1.1" viewBox="0 0 1600 1375" width="534" height="459" xmlns="http://www.w3.org/2000/svg">
<path transform="translate(0)" d="m0 0h1600v1375h-1600z" fill="#FDFCFC"/>
<path transform="translate(1051,131)" d="m0 0h45l28 2 35 5 27 6 20 5 16 5-3 3-22 5-55 11-68 14-52 11-21 5-4 3v8l6 28 5 22 1 1h10l36-7 41-9 50-10 55-12 42-9v-7l-11-53v-4l62-13 6-1h8l3 5 10 46v11l8 3 28 21 14 11 11 10 8 7 17 17 7 8 11 12 11 14 8 10 11 16 12 19 14 25 14 29 10 27 12 39 6 26 6 36 2 20 1 18v37l-4 40-6 34-8 32-9 27-17 42-7 12h4l-2 9-20 60-9 25-1 2-7-1-18-6-14-4-36-12-47-16-34-12-2-1-20 61-8 23h52l9 2 5 5 3 6v8l-4 8-6 5-4 1-111 1 12 6 18 7 13 6 18 8 14 6 11 4 16 8 17 7 8 5-1 8-4 11-16 36-6 15-7 15-1 2h-2l1 2 18 1 7 2 7 8 2 5v7l-3 7-5 4-6 2-35 1-7 14-13 31-1 1h-7l-34-15-26-11-29-13-28-12-30-13-25-11-3-2 1-7 11-26 15-35 34-77 11-25 4-2-10-1-2 5-8 15h-176v-34-2-24l-1 1-1 24-11 2 3 5v10l-3 6-5 4-9 2-6-2-2-3-3 3 2-9 10-10 2-9-14-1-3-1v-2l-4-2-4-8v-8l1-2h-2l-2 5-10 7-8 3-1 9 1 15 6 14 4 7h-155l-1-1v-34l-1 1v34h-54l-4 17-13 50-21 79v2h89l128 1 1-21 2-14 2-1 5 10 8 9 4 2h3l5-13h1l2 10v5l23-12 15-10 4 1 5 12 3 14 1 7 119 1-3 9-11 25h-103l-2-1v2h104l-3 9-12 26h-98l-18 6-5 1h-23l-16-3-4-2v-2l-246 1-13 50-3 10h269l3 27v9l-282 1-3 11-1 1h-6l-3-2 1-8 1-3h-124l-2 9-2 4h-6l-3-2 2-11h-32l-14-4-10-7-7-7-5-10-3-11v-55l3-10 7-13 9-8 4-2-1-7-8-20-17-44-1-3v2l-15 6-44 17-26 10-28 11-40 15-3-1-5-13-4-8-9-25-6-15-5-12-4-13-2-7 12-5 31-12 10-4 17-7 17-6 12-5 40-15 13-5h3l-2-11 4-4h6l4 6 13 34 19 49 16 42 13 33 4 10v2l65-1-13-2-17-9-8-9-5-10-3-12v-131l3-15 6-10 5-6 10-7 9-4 11-2-93-1-9-4-4-4-2-8 6 1 22 7 4 1h15l12-4 9-6 8-10 3-8 70-1h17l-1-3-1-17-1-7v-8l13 1 29 3v12l-2 28-1 3 1 2 2-3 1 2 3 29v29h-17l-2 7-7 21-10 26-9 16-4 7h-7l-10-5v-2h-2l3-11 6-21 7-29 2-9-45 1-5 2-4 3v137l3 3 2 1 12 1 2 1 4-17 9-35v-2l-3-2 1-6 3-6 19 1 2 5 5 2 16 7 2 3 3 1h23l-1-7 2-7 21-2 34 14 8 3 1-7 20-75 5-19-61 1v-14l1-21 6-1-5-1v-34l31-1h47l17-63 2-9-72 1-9 11-17 5-5 1h-19l-27-4-4-4 2-1 14-1 16-4 5-3 4-14-17 4-13 1 1-4 9-16 2-2 11 1 31 5h13l25-9 4-1v4l-11 14-4 5 64-1 7-24 6-23 1-1h10l-3 14-24 90-8 29 36-1h141l11 1 4-6 7-5 3-1h9l6 3 5 6 1 2h244l32-1 4-3 1-4 1-105 20-12 18-11 20-11 8-5-1-8-11-19-12-19-8-13-7-11v-2l-8 2-16 10-3 1-2-33-3-3-3-1-428-1h-2l-5 18-11 42-11 41-3 1-8-2 3-12 10-37 1-3-14 1h-110l-10 38-1 4-4-2-5-4 1-8 12-44 9-34h-15l2 7v13l3 15-2-1-2 8h-1l-1-17-4 2-8-7-3-3-14-8-4 1-4 4-2 8 3 7 1 15-1 9-9 3h-6l-5-3-5-8-2-6 1-10 5-10 4-13 1-2h2l1-4-12 1h-156l-8-3-6-7-2-7 1-9 5-6 7-3 6-1h43l-13-38-4-13-9 3-9-2-30-8-14-4v-4l6-2h12l39 10 3 1-1-5-14-3-24-7 2-2 28-9v-4l-50 16-8 3 1 7 9 27v2l-20 7h-3l-8-26-4-9-9 3-49 16h-3l-4-10-2-8 9-3 49-16 2-1-1-8-8-24v-3l-2-1 21-7h3l11 34 9-2 38-12 8-3h4l-1-4-8 1-21 7-2-1 10-14 10-13 2-1v-6l-5 5-11 14-13 16-4 4-8 3h-5l4-8 8-9 8-10 9-11 7-8 8-1-1-7 2-3 5-1 3 3 14 41 14 43 12 37 9 26v2h33l-7-3-7-8-1-9 3-8 6-5 5-2 14-1 127 1 3 10 6 8 9 6 7 2 12 1 32 1-1 9-9 25-3 9h-42l-9 34-1 4 121-1 3-1 10-37-22 1h-51l2-4 10-9 10-8 16-13 11-9 31-1 9-2 9-6 6-10 2-10 1-44h88l1 1 8-16-97-1-7-10-5-5-8-4-5-1h-123l-10 4-10 9-4 7h-138l-12-6-4-6-1-10 4-8 6-4 7-2 150-1-1-5 4-15 6-18 8-21 7-17 2-3 5 1 7 8v2l4 2v-1l-7-7-6-12-3-10v-20l3-12 6-12 12-13 10-7 10-4 13-3h2v-6l-2 1h-6l-2-3v-7l2-5h25l1-4 11-9 18-18 8-7 13-11 5 1 1-44 4-10 8-8 6-3 6-1 91-1-1-4 18-7 43-12 32-7 28-4z" fill="#FDE8C6"/>
<path transform="translate(393,634)" d="m0 0 7 2h168l-1 4h-2l-3 11-3 7-4 11 1 9 4 8 4 4 2 1 9-1 6-1v-15l-2-12-2-5 3-8 5-5 5 1 14 8 1 3 4 2 5 4 3-1 2 14 1-8 2 3-2-11-1-9v-7l-1-7h15l-2 11-9 34-10 37 1 5 7 5 1-8 9-34 1-1h124l-2 10-8 30-4 12 10 1 16-60 10-39 2-3h42l388 1 5 3 2 2 2 32 17-10 3-2h6l12 19 5 9 14 22 8 14 1 8-9 6-16 9-9 5-13 8-19 11-1 105-2 5-4 3-33 1h-243l-6-8-6-3h-9l-8 4-4 5-3 3-10-1h-177l2-10 15-57 15-56 2-9h-9l-12 45-2 3h-64l2-4 11-13 2-5-10 3-19 7h-13l-36-6h-6l-8 13-4 8 2-1 16-2 12-2-2 11-3 5-10 4-10 2-14 1v2l8 2 21 3h19l20-5 5-5 6-7h72l-1 9-11 41-6 22-1 1h-78v34l21 1v1h-22v34h60l-1 8-23 86-2 7-6-1-21-9-15-6-21 1-1 14-13 1h-10l-4-2-3-3-16-7-5-5v-2h-13l-6-1-2 6-1 6 3 2-4 17-9 35-1 2-14-1-5-3-1-2v-137l6-5 4-1h45l-1 9-8 34-7 23-2 4h2l3 3 9 3 5 1 8-16 4-7 6-16 4-10 7-21 2-7 2-1 16 1-1-29-3-29-1 1-1 8h-1v-10l-2-1h2l3-42h-12l-30-4 2 15 1 20-20 1h-67l-1 5-4 7-8 9-12 6-7 2h-15l-20-6-8-3h-3l3 8 5 4 6 2 104 1v1l-17 2-10 3-10 6-5 5-6 7-4 9-2 12v131l4 15 7 11 7 6 17 8 14 2v1h-69l-11-27-15-39-18-47-16-41-7-18-2-3h-6l-3 3 1 11-27 10-36 14-16 6-15 6-17 6-11 5-21 8-2-1v-11l-6-26-5-32-2-21v-29l2-21 7-36 8-27 10-25 12-24 11-18 13-19 11-13 7-8 4-5 8-7 15-14 14-11 13-10 16-10 16-9 20-10h2v-2l8-4 3-5z" fill="#FDE8C5"/>
<path transform="translate(1320,728)" d="m0 0 6 1 3 3-1 8-1 3 7 1 40 13 41 14 66 22 4 1-2 9-20 60-9 25-1 2-7-1-18-6-14-4-36-12-47-16-34-12-2-1-20 61-8 23h52l9 2 5 5 3 6v8l-4 8-6 5-4 1-111 1 12 6 18 7 13 6 18 8 14 6 11 4 16 8 17 7 8 5-1 8-4 11-16 36-6 15-7 15-1 2h-2l1 2 18 1 7 2 7 8 2 5v7l-3 7-5 4-6 2-35 1-7 14-13 31-1 1h-7l-34-15-26-11-29-13-28-12-30-13-25-11-3-2 1-7 11-26 15-35 34-77 11-25 4-2-10-1-2 5-8 15h-176v-34-2-24l-1 1-1 24-11 2 3 5v10l-3 6-5 4-9 2-6-2-2-3-3 3 2-9 10-10 2-9-14-1-3-1v-2l-4-2-4-8v-8l1-2h-2l-2 5-10 7-8 3-1 9 1 15 6 14 4 7h-155l-1-1v-34l-1 1v34h-54l-4 17-13 50-21 79v2h89l128 1 1-21 2-14 2-1 5 10 8 9 4 2h3l5-13h1l2 10v5l23-12 15-10 4 1 5 12 3 14 1 7 119 1-3 9-11 25h-103l-2-1v2h104l-3 9-12 26h-98l-18 6-5 1h-23l-16-3-4-2v-2l-246 1-13 50-3 10h269l3 27v9l-282 1-3 11-1 1h-6l-3-2 1-8 1-3h-124l-2 9-2 4h-6l-3-2 2-11h-32l-14-4-10-7-7-7-5-10-3-11v-55l3-10 7-13 9-8 4-2-1-7-8-20-17-44-1-3v2l-15 6-44 17-26 10-28 11-40 15-3-1-5-13-4-8-9-25-6-15-5-12-4-13-2-7 12-5 31-12 10-4 17-7 17-6 12-5 40-15 13-5h3l-2-11 4-4h6l4 6 13 34 19 49 16 42 13 33 4 10v2l65-1-13-2-17-9-8-9-5-10-3-12v-131l3-15 6-10 5-6 10-7 9-4 11-2-93-1-9-4-4-4-2-8 6 1 22 7 4 1h15l12-4 9-6 8-10 3-8 70-1h17l-1-3-1-17-1-7v-8l13 1 29 3v12l-2 28-1 3 1 2 2-3 1 2 3 29v29h-17l-2 7-7 21-10 26-9 16-4 7h-7l-10-5v-2h-2l3-11 6-21 7-29 2-9-45 1-5 2-4 3v137l3 3 2 1 12 1 2 1 4-17 9-35v-2l-3-2 1-6 3-6 19 1 2 5 5 2 16 7 2 3 3 1h23l-1-7 2-7 21-2 34 14 8 3 1-7 20-75 5-19-61 1v-14l1-21 6-1-5-1v-34l31-1h47l17-63 2-9-72 1-9 11-17 5-5 1h-19l-27-4-4-4 2-1 14-1 16-4 5-3 4-14-17 4-13 1 1-4 9-16 2-2 11 1 31 5h13l25-9 4-1v4l-11 14-4 5 64-1 7-24 6-23 1-1h10l-3 14-24 90-8 29 36-1h141l11 1 4-6 7-5 3-1h9l6 3 5 6 1 2h244l32-1 4-3 1-4 1-105 20-12 18-11h2v120l-1 13-4 13-7 10-8 7-14 7-5 1-17 1 52-1 13-38 50-150 2-4z" fill="#34293F"/>
<path transform="translate(779,636)" d="m0 0h42l388 1 5 3 2 2 2 32 17-10 3-2h6l12 19 5 9 14 22 8 14 1 8-9 6-16 9-9 5-13 8-19 11-1 105-2 5-4 3-33 1h-243l-6-8-6-3h-9l-8 4-4 5-3 3-10-1h-177l2-10 15-57 15-56 2-9h-9l-12 45-2 3h-64l2-4 11-13 2-5-10 3-19 7h-13l-41-7 4-2 7-4 1-1 9 1 11 3-2-38-1-11-1-4 10-39 2-4h124l-2 10-8 30-4 12 10 1 16-60 10-39z" fill="#FDF2E7"/>
<path transform="translate(963,889)" d="m0 0h1l1 9v23l1 2h-2v34l176-1 8-16 4-4 10 2-4 2h-2l-1 5-15 33-14 32-11 25-30 70v5l22 10 65 28 43 19 26 11 18 8 7 1-2 6-15 36-3 5-4 7-6 16-4 7-1 4h-2l-1 5-3 8h-2l-2 5-2 2h-11l-28-13-23-10-9-4-1 5-6 5-5 2-195 1-2 1 1 5v7l-1 1h-29v-4l4-5 5-2v-3h-14v8l-1 6h-37l-2-1 1-3 10-5 14-4v-11l-2-20v-7h-269l2-10 13-50 1-1h246l1 2 12 3 7 1h23l15-4 10-3 96 1 2-6 13-29h-104v-2l105 1 3-9 11-25h-119l-1-1-3-18-5-13-1-2-4 1-21 13-14 7h-2l-3-13-5 12-5-1-8-7-7-11-1-2-2 14-1 17-1 4h-217l-1-3 14-52 11-42 13-50 1-2h54v-34l-2-1h4v34h154l-7-12-3-8-1-18 2-7 9-4 9-6 2-4h-15v-1h37v1h-20v10l5 9 2 1v2l14 1 3 1v7l-4 6-6 4-3 9 3-2 2 4 8 1 8-3 4-5 1-3v-10l-2-4-2-2 5-1h8v-26z" fill="#FCF1E7"/>
<path transform="translate(1238,244)" d="m0 0h5l3 3v8l-1 3 8 1 49 14-15 55-12 43-2 8-9-2-44-12h-4l-24 87-5 18h119l12 3 12 7 7 6 7 11 3 8 1 17 1 34-3 12-4 10-4 6-13 10-12 5-7 2-86 2 12 4 9 6 7 8 7 14 2 9v39l-4-5-9-14v-2l-8 2-16 10-3 1-2-33-3-3-3-1-428-1h-2l-5 18-11 42-11 41-3 1-8-2 3-12 10-37 1-3-14 1h-110l-10 38-1 4-4-2-5-4 1-8 12-44 9-34h-15l2 7v13l3 15-2-1-2 8h-1l-1-17-4 2-8-7-3-3-14-8-4 1-4 4-2 8 3 7 1 15-1 9-9 3h-6l-5-3-5-8-2-6 1-10 5-10 4-13 1-2h2l1-4-12 1h-156l-8-3-6-7-2-7 1-9 5-6 7-3 6-1h43l-13-38-4-13-9 3-9-2-30-8-14-4v-4l6-2h12l39 10 3 1-1-5-14-3-24-7 2-2 28-9v-4l-50 16-8 3 1 7 9 27v2l-20 7h-3l-8-26-4-9-9 3-49 16h-3l-4-10-2-8 9-3 49-16 2-1-1-8-8-24v-3l-2-1 21-7h3l11 34 9-2 38-12 8-3h4l-1-4-8 1-21 7-2-1 10-14 10-13 2-1v-6l-5 5-11 14-13 16-4 4-8 3h-5l4-8 8-9 8-10 9-11 7-8 8-1-1-7 2-3 5-1 3 3 14 41 14 43 12 37 9 26v2h33l-7-3-7-8-1-9 3-8 6-5 5-2 14-1 127 1 3 10 6 8 9 6 7 2 12 1 32 1-1 9-9 25-3 9h-42l-9 34-1 4 121-1 3-1 10-37-22 1h-51l2-4 10-9 10-8 16-13 11-9 31-1 9-2 9-6 6-10 3-9h127l-2 5-9 10h-2l-2 4-4 4-1 4 12-3 10-6 6-7 4-8 1-3 147-1h213v-2l4-3 1-3v-43l-2-6-5-2-345-1v-13l5-6 8-2 30-1 24-3 17-5 4-1 2-4h128l1-9 26-95 22-80 10-36 2-4z" fill="#526EAA"/>
<path transform="translate(1320,728)" d="m0 0 6 1 3 3-1 8-1 3 7 1 40 13 41 14 66 22 4 1-2 9-20 60-9 25-1 2-7-1-18-6-14-4-36-12-47-16-34-12-2-1-20 61-8 23h52l9 2 5 5 3 6v8l-4 8-6 5-4 1-111 1 12 6 18 7 13 6 18 8 14 6 11 4 16 8 17 7 8 5-1 8-4 11-16 36-6 15-7 15-1 2h-2l1 2 18 1 7 2 7 8 2 5v7l-3 7-5 4-6 2-35 1-7 14-13 31-1 1h-7l-34-15-26-11-29-13-28-12-30-13-25-11-3-2 1-7 11-26 15-35 34-77 11-25 4-2-10-1-2 5-8 15h-176v-34l6-1h138l65-1 7-1 3 1v2l70-2 13-38 50-150 2-4z" fill="#FDC562"/>
<path transform="translate(746,921)" d="m0 0 3 1v34h156l8 3-2 12-4 4-18 3-7 4h-2l4 42 1 5 13 1 6 4 4-2 5-6 4 1 5 4 6 3h5l4-7-2-5v-5-2l-2 1-1-4-5-35-4-9-1-10h217l-3 9-11 26-8 18-2 4v-4h-159l1 12v16l-1 13h142l-3 9-9 21-10 22-1 1h-120l-3-18-5-13-1-2-4 1-21 13-14 7h-2l-3-13-5 12-5-1-8-7-7-11-1-2-2 14-1 17-1 4h-217l-1-3 14-52 11-42 13-50 1-2h54v-34l-2-1z" fill="#FDF2E7"/>
<path transform="translate(416,720)" d="m0 0h117l-2 5-7 7-8 13-4 8-2 7v19l2 12h2l5 8 7 9 9 6 7 3v30l4 3 3 16 1 20-20 1h-67l-1 5-4 7-8 9-12 6-7 2h-15l-20-6-9-4-11-1-20 7-29 12-27 10-10 1-2-3 1-4 11-13 9-12 12-15v-2l-21-8-28-10-13-7-7-8-7-14v-15l5-19 13-40 7-16 9-10 5-4 5-3 11-3h11l39 12 36 12 23 7 6 1z" fill="#FDFCFB"/>
<path transform="translate(631,685)" d="m0 0h124l-2 10-8 30-4 12 10 1 6-23 1 3 182-1h206l-1 2h-3v2l-10 7-3 1-1 4v9l5 13 4 7v2h-173v13h-1v-13h-30l1 33v14l-2 9-6 10-9 8-6 2-14 1-32 1 2 9 10 29v3h-6l-16-13-10-8-11-9-9-7-4-4-23-1-13-2-10-6-7-8-3-9-1-7v-45h-19l1-9h-9l-12 45-2 3h-64l2-4 11-13 2-5-10 3-19 7h-13l-41-7 4-2 7-4 1-1 9 1 11 3-2-38-1-11-1-4 10-39z" fill="#FDF2E7"/>
<path transform="translate(1255,750)" d="m0 0h2v120l-1 13-4 13-7 10-8 7-14 7-5 1-17 1h-18l-5-1-5 1-65 1h-142l-2-2v-24l-1 1-1 24-11 2 3 5v10l-3 6-5 4-9 2-6-2-2-3-3 3 2-9 10-10 2-9-14-1-3-1v-2l-4-2-4-8v-8l1-2h-2l-2 5-10 7-8 3-1 9 1 15 6 14 4 7h-155l-1-1v-34l-1 1v34h-54l4-17v-2l-3 6-3 9-6 19-5 20-6 23v2h-2l-1 10-1 2h-2l2-11 5-19 8-30v-10l-1-2-61 1v-14l1-21 6-1-5-1v-34l31-1h47l17-63 2-9-72 1-9 11-17 5-5 1h-19l-27-4-4-4 2-1 14-1 16-4 5-3 4-14-17 4-13 1 1-4 9-16 2-2 11 1 31 5h13l25-9 4-1v4l-11 14-4 5 64-1 7-24 6-23 1-1h10l-3 14-24 90-8 29 36-1h141l11 1 4-6 7-5 3-1h9l6 3 5 6 1 2h244l32-1 4-3 1-4 1-105 20-12z" fill="#40354B"/>
<path transform="translate(1278,1192)" d="m0 0h13l10 2 7 6 7 11 3 7v8l-6 12-4 6 24 1 67 5 36 4 32 5 25 6 1 4-8 4-34 6-38 5-49 4-66 4-114 5-85 2-92 1-248 1-118-1-113-2-88-3-84-4-65-4-44-4-38-5-25-5-8-4v-4l9-3 33-6 31-4 51-4 72-5 23-1 4 10 9 10 9 6 14 4 32 1-1 11 2 1h6l4-12h124l-1 11 2 1h6l3-11 1-1h281v3l-14 4-10 5-1 2 39 1 1-14h14v3l-7 5-2 5h29v-12l-2-1 4-1 195-1 8-4 3-4 1-3 9 3 18 8 33 15h11l4-6h2l2-8 2-5h2l1-6 6-12 4-11 5-9 7-15 5-13 4-3h4v-2h2v-2l3-2z" fill="#E6E5F5"/>
<path transform="translate(654,484)" d="m0 0h123l10 3 8 6 7 11 98 1-6 14-2 6-2-3h-38l-50-1v46l-3 10-7 10-8 5-9 2-31 1-14 12-13 10-21 18-1 2 59-1h14l-2 11-7 26-4 2h-121l1-9 8-29 3-1h25l15 1 2-9 9-25 2-9h-32l-12-1-11-4-9-8-4-7-1-8h-127l3-2v-58h-12v-1l136-1 5-8 9-8z" fill="#FCFBFB"/>
<path transform="translate(354,965)" d="m0 0h6l4 6 13 34 19 49 16 42 13 33 4 10v2h70l-8 32-6 21-15 57-6 22h-33l-14-4-10-7-7-7-5-10-3-11v-55l3-10 7-13 9-8 4-2-1-7-8-20-17-44-1-3v2l-15 6-44 17-26 10-28 11-40 15-3-1-5-13-4-8-9-25-6-15-5-12-4-13-2-7 12-5 31-12 10-4 17-7 17-6 12-5 40-15 13-5h3l-2-11z" fill="#F15F60"/>
<path transform="translate(406,181)" d="m0 0h111l5 4 2 4 1 81 85 1 6 7v111l-5 6-9 2h-102l-6-3-4-6v-14l2-6 14-8-1-5-14-9-1-7-1-32h-28l-9-1-8-13-3-5h-2l-9 15-2 3h-22l-5-3-3-8v-101l1-7 5-5z" fill="#F15F60"/>
<path transform="translate(995,445)" d="m0 0 18 6 14 3h18l10-2h4v2h-2l-1 3-5 2-1 7-2 3h125v1l-128 1-4 4-15 5-17 3-11 1-30 1-9 3-3 4-1 13h345l5 2 2 2 1 5v43l-3 5-3 1v2l-4 1h-356l-1 3v-3l-7-1v-1l6-2-6 1-5-3-1 2h-2v-10l1-3h-13l-9-1v-1h22l2-29v-10l-8 8v-3l8-8h2l1-28 3-8 10-7 25-10 20-5z" fill="#FDF2E7"/>
<path transform="translate(648,814)" d="m0 0h72l-1 9-11 41-6 22-1 1h-78v34l21 1v1h-22v34h60l-1 8-23 86-2 7-6-1-21-9-15-6-21 1-1 14-13 1h-10l-4-2-3-3-16-7-5-5v-2h-13l-6-1-2 6-1 6 3 2-4 17-9 35-1 2-14-1-5-3-1-2v-137l6-5 4-1h45l-1 9-8 34-7 23-2 4h2l3 3 9 3 5 1 8-16 4-7 6-16 4-10 7-21 2-7 2-1 16 1-1-29-3-29-1 1-1 8h-1v-10l-2-1h2l3-41 4-1h15l11-3 3-1v-2h2l-2-19 17-5z" fill="#ECE9EC"/>
<path transform="translate(1320,728)" d="m0 0 6 1 3 3-1 8-1 3 7 1 40 13 41 14 66 22 4 1-2 9-20 60-9 25-1 2-7-1-18-6-14-4-36-12-47-16-34-12-2-1-20 61-8 23h52l9 2 5 5 3 6v8l-4 8-6 5-4 1-114 1-28-12-1-1v-22l4-1h32l38-1 13-38 50-150 2-4z" fill="#333252"/>
<path transform="translate(876,1070)" d="m0 0 2 3 7 11 7 6 5 1 5-13h1l2 10v5l23-12 15-10 4 1 5 12 3 14 1 7 119 1-3 9-11 25h-103l-2-1v2h104l-3 9-12 26h-98l-18 6-5 1h-23l-16-3-4-2-3-8-4-23v-6h-230l4-17 4-14 2-5h90l128 1 1-21 2-14z" fill="#629095"/>
<path transform="translate(922,958)" d="m0 0h217l-3 9-11 26-8 18-2 4v-4h-159l1 12v16l-1 13h142l-3 9-9 21-10 22-1 1h-120l-3-18-5-13-1-2-4 1-21 13-14 7h-2l-3-13-5 12-5-1-8-7-5-7 1-5-1-3h3v-2l6-1-2-10-7-3-10-2-1-2 2-2 1-5-3-15 4-18 5-13 3-1 2 7 2 22 1 5 13 1 6 4 4-2 5-6 4 1 5 4 6 3h5l4-7-2-5v-5-2l-2 1-1-4-5-35-4-9z" fill="#FDF2E7"/>
<path transform="translate(1063,1153)" d="m0 0h6l53 23 32 14 25 11 26 11 34 15 7 3-1 6-3 5-6 16-4 7-1 4h-2l-1 5-3 8h-2l-2 5-2 2h-11l-28-13-23-10-9-4-1 5-6 5-5 2h-199l1-11 3-22 1-3 148-1-28-12-18-8v-2l-4-1 1-7 3-9 11-26z" fill="#FDC661"/>
<path transform="translate(403,449)" d="m0 0 4 1 6 16 14 43 30 90v2h36l151-1-9 34-1 2h-16l2 7v13l3 15-2-1-2 8h-1l-1-17-4 2-8-7-3-3-14-8-4 1-4 4-2 8 3 7 1 15-1 9-9 3h-6l-5-3-5-8-2-6 1-10 5-10 4-13 1-2h2l1-4-12 1h-156l-8-3-6-7-2-7 1-9 5-6 7-3 6-1h43l-13-38-4-13-9 3-9-2-30-8-14-4v-4l6-2h12l39 10 3 1-1-5-14-3-24-7 2-2 28-9v-4l-50 16-8 3 1 7 9 27v2l-20 7h-3l-8-26-4-9-9 3-49 16h-3l-4-10-2-8 9-3 49-16 2-1-1-8-8-24v-3l-2-1 21-7h3l11 34 9-2 38-12 8-3h4l-1-4-8 1-21 7-2-1 10-14 10-13 2-1v-6l-5 5-11 14-13 16-4 4-8 3h-5l4-8 8-9 8-10 9-11 7-8 8-1-1-7 2-3z" fill="#F05F60"/>
<path transform="translate(788,735)" d="m0 0h121l9 3 9 8 5 8 1 3 1 54-2 9-6 10-9 8-6 2-14 1-32 1 2 9 10 29v3h-6l-16-13-10-8-11-9-9-7-4-4-23-1-13-2-10-6-7-8-3-9-1-7 1-50 3-9 9-10 8-4z" fill="#C2CEE7"/>
<path transform="translate(790,600)" d="m0 0h105v6l1 2 9-1 14-6 45-1 9 1 34 1h42l58-1h104l19 5 10 6 8 9 7 14 2 9v39l-4-5-9-14v-2l-8 2-16 10-3 1-2-33-3-3-3-1-428-1h-3l2-9 7-25z" fill="#F05F60"/>
<path transform="translate(1159,984)" d="m0 0 7 1 35 15 23 10 16 7 25 11 33 14 4 3-1 9-10 24-1 4h-2v5h-2l-6 18-4 9-10 23-2 2-9-1-25-10-9-4-7-2-5-3-11-4-14-7-11-4-5-3-13-5-9-4-8-4-10-4-7-3-2-2 1-6 3-5 5-13 16-37 4-8 6-16z" fill="#EFE8E6"/>
<path transform="translate(1255,750)" d="m0 0h2v120l-1 13-4 13-7 10-8 7-14 7-5 1-17 1h-18l-5-1-5 1-65 1h-142l-2-2v-24l-1 1-1 24-14 1-3-1v-2l4-2 3-5v-8l-3-6-6-4-7-2-1-6 7-1h237l32-1 4-3 1-4 1-105 20-12z" fill="#F05F60"/>
<path transform="translate(635,1176)" d="m0 0h246l1 2 4 2v13l1 28v15l-224 1h-44l2-10 13-50z" fill="#FDF2E7"/>
<path transform="translate(529,1068)" d="m0 0h124l-4 17-6 22-4 17-8 28-9 34-1 2h-123l-1-3 3-9 5-21 5-18 7-27 8-29z" fill="#F15F60"/>
<path transform="translate(822,167)" d="m0 0h104l10 4 7 5 5 7 1 3v57l-1 3h-2l-1 4-6 7-4 1v2l-6 2-7 1h-36v5h2l6 19v2h2l2 5v8l-4-1-5-5-3-1v-2l-5-2-1-3-4-1v-2l-4-2-7-6-4-3v-2l-5-2-1-3-4-1v-2l-9-1-21-1-9-3v-2l-5-1v-2l-4-2-4-6-2-14 1-43 4-10 8-8 6-3z" fill="#C2CEE7"/>
<path transform="translate(406,181)" d="m0 0h111l5 4 2 4v82l-27 2-5 1-1 30-2 3h-28l-9-1-8-13-3-5h-2l-9 15-2 3h-22l-5-3-3-8v-101l1-7 5-5z" fill="#526EAA"/>
<path transform="translate(497,565)" d="m0 0 133 1 3 10 6 8 9 6 7 2 12 1 32 1-1 9-9 25-3 9h-42l-9 34-1 4 121-1 3-1 10-37-22 1h-51l2-4 10-9 10-8 16-13 11-9 31-1 9-2 4-3h3l-1 6-5 19-7 26-12 47-8 29-6 23-3 1-8-2 3-12 10-37 1-3-14 1h-110l-10 38-1 4-4-2-5-4 1-8 12-44 9-34 10-35h-153l-7-3-7-8-1-9 3-8 6-5 5-2z" fill="#47394D"/>
<path transform="translate(556,636)" d="m0 0h12l-1 4h-2l-3 11-3 7-4 11 1 9 4 8 4 4 2 1 9-1 6-1v-15l-2-12-2-5 3-8 5-5 5 1 14 8 1 3 4 2 5 4 3-1 2 14 1-8 2 3-2-11-1-9v-7l-1-7h15l-2 11-9 34-10 37-2 2-7-10-5-8-4 2-1 5-7-1-5-8-1-3-4 2-3 1-2 5-11 5-9 2-14 6h-121v-35l1-5h100l35-1v-1l-31-1h-104v-36l1-1z" fill="#FDF2E7"/>
<path transform="translate(995,445)" d="m0 0 18 6 14 3h18l10-2h4v2h-2l-1 3-5 2-1 7-2 3h125v1l-128 1-4 4-15 5-17 3-11 1-30 1-9 3-3 4v14l-1 13h315v2l-7 1h-280l-30-1-1 11-3 14h48l5-6 6-3h34l6 3 5 6 30 1v-4l7 1v3l115-1 5-4 6-2h9l9 4 1 6-23 1 3 5 15 5 2 1v3h40l1-4 4-6 6-4h12l6 3 3 4 1 4-3 1v2l-4 1h-356l-1 3v-3l-7-1v-1l6-2-6 1-5-3-1 2h-2v-10l1-3h-13l-9-1v-1h22l2-29v-10l-8 8v-3l8-8h2l1-28 3-8 10-7 25-10 20-5z" fill="#EBE9EC"/>
<path transform="translate(578,696)" d="m0 0 3 1 3 6 2 5 7 1v-5l5-3 6 9 10 14 6 5 1 3 2 30v19l-11-2-9-1-5 4-8 3-8 13-4 8 2-1 16-2 12-2-2 11-3 5-10 4-10 2-14 1v2l8 2 21 3h24l2 7v11h-2v2l-3 2-11 3h-19l-36-4-6-1-1 2-1-3-4-4v-29l-9-4-6-4-6-7-6-9v-2h-2l-3-12v-19l4-11 5-9 7-10 8-9 4-4 16-7 10-2 7-3 3-5z" fill="#FDC662"/>
<path transform="translate(416,720)" d="m0 0h117l-2 5-7 7-8 13-4 8-2 7v19l2 12h2l5 8 7 9 9 6 7 3v30l4 3 3 16 1 20-20 1h-67l1-7 9-26 5-15 5-25v-8l-6-12-1-3h-2v-2l-4-2-10-6-13-5-8-3-14-5-10-6z" fill="#FDF1E6"/>
<path transform="translate(387,1070)" d="m0 0 2 1 6 17 15 39 6 15-1 5-9 6-6 8-6 13-1 5-1 51h-1l-1-12-5-1-21-9-20-11-18-12-13-10-13-11-11-9-25-25-4-2-1-2-3-2 19-7 28-11 83-32h2z" fill="#FDE8C5"/>
<path transform="translate(680,469)" d="m0 0 241 1-8 16-8 13-5 6h-98l-7-10-5-5-8-4-5-1h-123l-10 4-10 9-4 7h-138l-12-6-4-6-1-10 4-8 6-4 3-1z" fill="#526FAA"/>
<path transform="translate(1238,662)" d="m0 0h6l12 19 5 9 14 22 8 14 1 8-9 6-16 9-9 5-13 8-19 11-5 4-25 12-6 2-3-2-1 7-2 6-9 2-5-2v-2h-2l-8-16-6-8-6-9-1-4-3-1-6-11-3-9v-9l2-4 11-8h2v-2l10-4 13-8 25-14 21-13 5-3 4-4z" fill="#FDFBFA"/>
<path transform="translate(1316,774)" d="m0 0 6 1 41 14 36 12 47 16 21 7 7 3-2 9-9 27-9 25-1 2-7-1-18-6-14-4-36-12-47-16-34-12-2-5 12-36z" fill="#FEC761"/>
<path transform="translate(357,993)" d="m0 0 3 3 19 49 4 10v3l-24 8-40 16-16 6-42 16-25 10-9 2-1 2-7-19-11-28-5-12v-4l25-9 20-8 31-12 44-17 32-12z" fill="#FDC761"/>
<path transform="translate(576,956)" d="m0 0 3 1 14 1 1 9-1 6-15 1 15 1 1 1v32l-1 3h-20v2h17l4 1v17h20l2 5 1-22 1-1h49l-1 8-10 37-6-1-21-9-15-6-21 1-1 14-13 1h-10l-4-2-3-3-16-7-5-5v-2h-13l-6-1-2 6-1 6 3 2-4 17-9 35-1 2-14-1-5-3-1-2v-137l6-5 4-1h45l-1 9-8 34-7 23-2 4h2l3 3 9 3 5 1 8-16 4-7 6-16 4-10 7-21 2-7z" fill="#FDF1E6"/>
<path transform="translate(547,851)" d="m0 0 13 1 29 3v12l-2 28-1 3 1 2 2-3 1 2 3 29v29h-17l-2 7-7 21-10 26-9 16-4 7h-7l-10-5v-2h-2l3-11 6-21 7-29 5-29 1-14h-44l-104-1-9-4-4-4-2-8 6 1 22 7 4 1h15l12-4 9-6 8-10 3-8 70-1h17l-1-3-1-17-1-7z" fill="#A0182C"/>
<path transform="translate(506,922)" d="m0 0h42l-1 15-3 19-1 1-45 1-5 2-4 3v137l3 3 2 1 12 1 2 1-3 14-5 19-2 2-17-3-17-9-8-9-5-10-3-12v-131l3-15 6-10 5-6 10-7 9-4 11-2z" fill="#649294"/>
<path transform="translate(979,275)" d="m0 0h10l8 3 6 7 3 10v19l6 4 20 7 6 5 5 10 1 7-3 9-4 4 1 4 8 13-1 4-6 8-3 3-6 1 9 12 10 14 8 16 4 11v5l-9 3-7 1h-18l-21-5-11-5-12-6 1-5 4-13v-9l-2-4-9-6-5-9v-11l6-30 3-5h2l1 11 5-1 6-11-1-4-2-3-2-15 1-7 1-2v-9l-1-1-8-1-5-8-8-4h-5l-5 5-2 4v17l-1 1h-13l-6-3-5-6-2-5v-8l3-9 7-6 7-2h8l8 4h2l5-6z" fill="#639294"/>
<path transform="translate(619,1237)" d="m0 0h269l3 27v9h-282l4-17 5-17z" fill="#F15F60"/>
<path transform="translate(714,303)" d="m0 0 4 1-5 1 1 2 11 3h9l10-3-6-3 3-1 17 6 1 2-8 4-10 7 1 4 2 1h8l6 3 6 5 13 2 7 6 1 6-10 4-4 5v8l4 5 9 7-3 9-6 10-8 8-13 9-3 2-7 2-4-1h3v-2h-23l-5 1v2l-9-1-10-5-12-11-7-7-6-12-3-10v-20l3-12 6-12 12-13 10-7 10-4z" fill="#526FAA"/>
<path transform="translate(1295,836)" d="m0 0 4 3 62 21 60 20-6 9-3 1-2 4-11 12-12 11-15 14-13 10-9 7-12 10-10 7-16 9-4 3h-3l-2-9 1-10-93 1-2-2 113-1 7-3 5-7 1-3v-8l-4-8-6-3-6-1-52-1 1-5 12-36 14-43z" fill="#FDE8C5"/>
<path transform="translate(1238,244)" d="m0 0h5l3 3v8l-1 3 8 1 49 14-15 55-12 43-2 8-9-2-44-12h-4l-24 87-5 16-1 2-13-1 1-8 26-95 22-80 10-36 2-4z" fill="#526EAA"/>
<path transform="translate(1463,526)" d="m0 0 5 1 10 13 13 21 17 28 1 8-9 6-20 12-16 9-20 12-19 13-5 2-5-1-14-22-10-17-13-21-3-7 1-4 8-5 12-7 16-10 26-15 13-8z" fill="#FDFBFA"/>
<path transform="translate(1083,1107)" d="m0 0 4 4 20 9 65 28 43 19 26 11 18 8 7 1-2 6-15 36-4 2-1-2-9-3-60-26-99-43-7-3-5-1 1-7 8-19 4-9z" fill="#FDE6C4"/>
<path transform="translate(947,763)" d="m0 0h11l6 1 9-1h166l5 9 11 15 5 10v3h2l1 2 4 2-233 1-1-8v-33z" fill="#FDF2E8"/>
<path transform="translate(645,1140)" d="m0 0h210l19 1 5 29 1 6h-245l4-18 5-17z" fill="#F15F60"/>
<path transform="translate(354,965)" d="m0 0h6l4 6 13 34 19 49 16 42 13 33 4 10-1 3-9 3h-3l-16-42-11-28-1-3v2l-15 6-44 17-26 10-28 11-40 15-3-1-5-13v-3l22-8 28-11 36-14 39-15 24-9 7-1-15-39-10-25-3 4-32 12-44 17-21 8-28 11-19 7-8 2-5-12-1-4 12-5 31-12 10-4 17-7 17-6 12-5 40-15 13-5h3l-2-11z" fill="#F15F60"/>
<path transform="translate(951,439)" d="m0 0h33l11 5v2l-13 4-14 4-23 9-9 6-3 8-1 22-1 6-8 7-1 2 7-7h1v11l-2 26-1 3-13 1 13 1-1 13h2l1-3 5 3 7-1-2 3-3 1 5 1-1 8-6 8-9 7-10 4h-6l1-5 6-7 8-7 5-8h-127l-1-1 1-44h88l1 1 8-16 6-9 11-18 5-9 6-9 1-3h2l2-5 4-6 8-6z" fill="#FDF1E6"/>
<path transform="translate(914,875)" d="m0 0h9l6 3 5 6 2 9 7 1 8 6 2 5v8l-5 7h-3v2l4 1 4 4 1 2v10l-3 6-5 4-9 2-6-2-2-3-3 3 2-9 10-10 2-9-14-1-3-1v-2l-4-2-4-8v-8l1-2h-2l-2 5-10 7-8 3-1 9 1 15 6 14 4 7h-155l-1-1v-33l8-1h106l2 1-4-6v-3l10-2 8-8 5-6 4-1 1-3 6-4 7-1 1-6 7-6z" fill="#649294"/>
<path transform="translate(872,1102)" d="m0 0h1v10h54v1l-53 1v27h-230l4-17 4-14 2-5h90l128 1z" fill="#639195"/>
<path transform="translate(631,685)" d="m0 0h124l-2 10-8 30-3 10-2 2-28-2-2-6-5-1v10l-3 5-9 8-9 7-11 3h-23l-9-4-7-6-4-6-5-7-4-2-2-8 10-39z" fill="#FCF1E7"/>
<path transform="translate(494,505)" d="m0 0h136v61h-127l3-2v-58h-12z" fill="#FBF0E6"/>
<path transform="translate(955,1050)" d="m0 0 1 2h142l-3 9-9 21-10 22-1 1h-120l-3-18-5-13-4-5 4-4h3l3-9z" fill="#FDF2E7"/>
<path transform="translate(1091,1236)" d="m0 0 9 3 49 21-3 7-5 4-5 2h-199l1-11 3-22 1-3z" fill="#F15F60"/>
<path transform="translate(970,922)" d="m0 0h194l14 1v21l-6-1-12-5-10-1-2 5-8 15h-176v-34z" fill="#649295"/>
<path transform="translate(1302,273)" d="m0 0 6 1 26 7 24 7v7l-13 48-14 50-4 2-25-7-27-7-2-1 1-9 15-54 11-40z" fill="#FDFCFB"/>
<path transform="translate(1359,289)" d="m0 0 17 4 33 9 7 2-15 55-12 43-2 8-8-1-49-14 4-16 22-80z" fill="#F05E5F"/>
<path transform="translate(730,296)" d="m0 0h7l15 4 12 6 13 12 7 10 4 8 4 12 1 7v9l-3 16-5 12-7 11-9 9-13 8-11 4-9 2h-6l-1-3 1-3h-6l1 5-1 1-8 1-1 2v10l6 2v14l-29 1-1 11-2 1h-47l-1-5 4-15 6-18 8-21 7-17 2-3 5 1 7 8v2l4 2 6 4 8 6 8 4 9 2v-2l5-2h15l8 1 1 2 8-3 11-7 12-11 7-14 1-4-11-9-2-3v-8l5-6 9-3-1-6-6-5-13-2-9-7-5-1h-6l-4-3 1-4 10-7 7-4-15-5 2 2-8 3-3 1h-9l-11-3-1-3 3-3 7-1 7 1-1-4z" fill="#FDE8C6"/>
<path transform="translate(736,886)" d="m0 0h153l12 1v2l-5 2-8 4-3 3-5 4-7 8-3 3-10 2 4 6v2h-115-4-43l4-17 5-18 1-1z" fill="#F15F60"/>
<path transform="translate(939,1178)" d="m0 0 6 3v11l2 1h-2l-1 28-2 15h129v1h-129l-3 25-2 11 4 1-2 1 1 5v7l-1 1h-29v-4l4-5 5-2v-3h-14v8l-1 6h-37l-2-1 1-3 10-5 14-4v-11l-2-20v-7h-225v-1h224l-2-43 1-13 15 2h23z" fill="#FDC6A8"/>
<path transform="translate(648,814)" d="m0 0h72l-1 9-11 41-6 22-1 1h-29l-49-1-1-25-1-10 1-2h2l-2-19 17-5z" fill="#FDF2E7"/>
<path transform="translate(1316,774)" d="m0 0 6 1 41 14 36 12 47 16 21 7 7 3-2 9-7 21-3 1-35-11-62-21-36-12-23-8 1-8z" fill="#F15F60"/>
<path transform="translate(497,565)" d="m0 0 133 1 3 10 6 8 5 4 1 9-1 3-3 1h-151l-7-3-7-8-1-9 3-8 6-5 5-2z" fill="#526EAA"/>
<path transform="translate(1008,537)" d="m0 0h34l6 3 5 6 30 1v-4l7 1v3l115-1 5-4 6-2h9l9 4 1 6-23 1 3 5 15 5 2 1v3h40l1-4 4-6 6-4h12l6 3 3 4 1 4-3 1v2l-4 1h-334v-1l23-1 6-11 5-8 4-5z" fill="#D5D3D7"/>
<path transform="translate(576,956)" d="m0 0 3 1 14 1 1 9-1 6-15 1 15 1 1 1v32l-1 3h-20v2h17l4 1v17h20l2 5 1-22 1-1h49l-1 8-10 37-6-1-21-9-15-6-21 1-1 14-13 1h-10l-4-2-3-3-16-7-5-5v-2h-13l-3-3 3-6 11 3 5 1 8-16 4-7 6-16 4-10 7-21 2-7z" fill="#FDF1E6"/>
<path transform="translate(873,1113)" d="m0 0h59l24 1v19l-2 25-2 12-4 4-6 4-13 4-5 1h-23l-16-3-4-2-3-8-4-23-1-18z" fill="#313150"/>
<path transform="translate(899,896)" d="m0 0h37v1h-20v10l5 9 2 1v2l14 1 3 1v7l-4 6-6 4-3 9 3-2 2 4 8 1 8-3 4-5 1-3v-10l-2-4-2-2 9-1 4 1v34h-39v7l4 11 2 9 4 30 4 1-1 7 2 5-5 8-8-1-8-6-4-1-7 8-5-2-3-2-13-1-2-6-3-33v-9l9-5 19-3 2-3 2-10 1-2-6-1-4-2-7-12-3-8-1-18 2-7 9-4 9-6 2-4h-15z" fill="#FDC6A8"/>
<path transform="translate(1253,921)" d="m0 0 66 1 9 2 5 5 3 6v8l-4 8-6 5-4 1-114 1-28-12-1-1v-22l4-1h32z" fill="#639294"/>
<path transform="translate(1300,140)" d="m0 0h8l3 5 10 46v10l-9 4-4 1h-7v2l-10 1-5 2-16 1v2l-21 3h-5l-10-50-2-9v-4l62-13z" fill="#C2CEE7"/>
<path transform="translate(354,775)" d="m0 0h10l6 4 13 11 13 10 16 13 10 7 18 2 2 6-13 37-3 4h-5l-5 6-8 4-4 1h-14l-9-7-5-7-1-6-20 1-9 1h-11l-7-6-3-5 1-3 4 6 4 2h10l7-4 9-9 8-16 4-16v-15l-2-8-4-6-5-3h-7l-10 3 4-4z" fill="#F15F60"/>
<path transform="translate(946,982)" d="m0 0 4 2 4 13 2 8 1 18v16l-1 11-4 12-2 3h-3l-1 2-4 6-21 13-14 7h-2l-3-13-5 12-5-1-8-7-5-7 1-5-1-3h3v-2l6-1-2-10-7-3-10-2-1-2 2-2 1-5-3-15 4-18 5-13 3-1 2 7 2 22 1 5 13 1 6 4 4-2 5-6 4 1 5 4 6 5h7l2-4 2-10 2-17 3-21z" fill="#FDFCFB"/>
<path transform="translate(494,1198)" d="m0 0h124l-2 11-7 26-1 2h-124l4-17z" fill="#FCF0E5"/>
<path transform="translate(691,620)" d="m0 0 1 4-2 11h5v2l59-1h14l-2 11-7 26-4 2h-121l1-9 8-29 3-1h25l15 1 2-9z" fill="#FCF0E5"/>
<path transform="translate(716,281)" d="m0 0h20l11 2 16 6 14 9 10 9 9 13 7 15 3 13 1 10v9l-3 18-7 16-8 11-13 13-13 8-16 6-14 1v15h27l1 1v11h-70v-11l1-1h29l-1-14-6-2v-10l2-3 8-1v-5h6v5l11-1 13-4 12-7 10-9 7-10 5-11 3-11 1-8v-9l-3-14-4-10-9-13-7-7-10-7-13-5-16-3v6h-7l1-7-2 1h-6l-2-3v-7z" fill="#333252"/>
<path transform="translate(529,1068)" d="m0 0h124l-4 17-6 21h-123l-1-3 9-33z" fill="#FCF1E6"/>
<path transform="translate(338,479)" d="m0 0h3l11 34 9-2 38-12 8-3h5l5 14v4l-31 10-26 9 1 7 9 27v2l-20 7h-3l-8-26-4-9-9 3-49 16h-3l-4-10-2-8 9-3 49-16 2-1-1-8-8-24v-3l-2-1z" fill="#F05F60"/>
<path transform="translate(802,566)" d="m0 0h127l-2 5-9 10h-2l-2 4-4 4-1 4 12-3 10-6 6-7 4-8h2l-1 7-3 7-4 5-11 9-5 5-17 7h-6l-2-5 1-4-2 1h-105l3-14 7-10 3-10z" fill="#526EAA"/>
<path transform="translate(945,1193)" d="m0 0h84l8 1-2 7v9l9 4v2l9 3 34 15 4 2v1l-149-1v-9l1-13z" fill="#FDF1E7"/>
<path transform="translate(963,889)" d="m0 0h1l1 9v23l1 2h-2v34l176-1 8-16 4-4 10 2-4 2h-2l-1 5-15 33-14 32-11 25-30 70-3 6-6 10-5 14-5 11-4 12-14 31-5 12-3 12-6-3v-9l2-6-7-1h-22l-60-1-2-1v-11l-4-2 3-3 5-1 96 1 2-6 13-29h-104v-2l105 1 3-9 11-25h-119v-1l119-1 15-33 9-21 3-5 6-16 7-14 5-13 14-32 5-12h-217l1-3v2h39v-34l-4-1h4v-26z" fill="#ECE9EB"/>
<path transform="translate(484,1237)" d="m0 0h124l-4 17-5 19h-124l1-8 6-22z" fill="#F15F60"/>
<path transform="translate(635,1176)" d="m0 0h246l1 2 4 2v12l-2 2h-248l-5-1 1-8z" fill="#FDF0E3"/>
<path transform="translate(439,287)" d="m0 0 3 1 10 17 9 1h28l1 1 1 36 1 3 13 8 2 2-1 5-11 6-4 1-4 4-8 2v-6l-44-1-4-2-1-4-1-19v-23h-5l-1-3 3-9h-17v-1l19-1 8-14z" fill="#C2CEE7"/>
<path transform="translate(416,720)" d="m0 0h117l-2 5-7 7-8 13-4 8-3 9-93-1z" fill="#FEF2E7"/>
<path transform="translate(519,1105)" d="m0 0 124 1-2 10-7 25-124-1 2-12 6-21z" fill="#639194"/>
<path transform="translate(521,886)" d="m0 0h29v10l3 1-3 1v16l-1 8-3 1h-43l-104-1-9-4-4-4-2-8 6 1 22 7 4 1h15l12-4 9-6 8-10 3-8z" fill="#F15F60"/>
<path transform="translate(658,1088)" d="m0 0h215v14l-1 4h-217l-1-3z" fill="#FBF1E6"/>
<path transform="translate(746,921)" d="m0 0 3 1v34h156l8 3-2 12-2 2-6 1-164 1h-44l-6-1 2-11 2-6h54v-34l-2-1z" fill="#FDF2E7"/>
<path transform="translate(314,770)" d="m0 0 6 1 14 12 2 4h2l2-4 4-2 10-3h7l5 3 4 5 2 4 1 6v15l-4 16-8 16-10 10-7 4h-10l-5-3-4-4-3-4-2-9-26 1-1-1v-6l15-2h12l2-9 2-7-9-2-21-8 1-5 4-1 23 8 5 1 3-9 2-4-7-7-8-7-5-5z" fill="#D6D3D5"/>
<path transform="translate(1415,557)" d="m0 0h7l5 9-1 4-24 15-2 3 6-1 13-8 18-10 9-6h2l3 11 1 9v9l-2 9-10-2-14-7-10-7-2-1 2 5 8 7 10 6 13 4-1 6-9 12 3 5-2 5-5 4-4 5-6 3-6-1-7-7-3-4v-2h-2l-3-6-8-13-6-12-2-10-3-8 5-9 5-5 14-9 3-2z" fill="#FDFBFA"/>
<path transform="translate(955,1141)" d="m0 0h105l-3 9-12 26h-100l6-6z" fill="#F15F60"/>
<path transform="translate(403,449)" d="m0 0 4 1 6 16 14 43 30 90v3l-11-1-13-38-4-13-9 3-9-2-30-8-14-4v-4l6-2h12l39 10 3 1-1-5-14-3-24-7 2-2 28-9-3-11-5-15-8 1-21 7-2-1 10-14 10-13 2-1v-6l-5 5-11 14-13 16-4 4-8 3h-5l4-8 8-9 8-10 9-11 7-8 8-1-1-7 2-3z" fill="#333251"/>
<path transform="translate(622,719)" d="m0 0 122 1v8l-3 8-4 1-25-2-2-6-5-1v10l-3 5-9 8-9 7-11 3h-23l-9-4-7-6-4-6-5-7-4-2-2-8z" fill="#FDF2E7"/>
<path transform="translate(1159,984)" d="m0 0 7 1 35 15 23 10 16 7 25 11 33 14 4 3-1 9-8 19-4 1-2-1 2-11-30-13-32-14-1-2 2-5-5 2v2l-5-1-30-13-25-11-6-1-1 2-2-4-4 4 2-9z" fill="#FDEEE0"/>
<path transform="translate(435,1176)" d="m0 0h54l-2 11-13 49-1 1h-41l-4-4-2-5v-43l3-6 2-2z" fill="#FDF0E4"/>
<path transform="translate(979,275)" d="m0 0h10l8 3 6 7 3 10v19l6 4 20 7 6 5 5 10 1 7-3 9-5 5-5-5-7-8-10-7-4-2-8 1-5 3-3-1-2-3-2-15 1-7 1-2v-9l-1-1-8-1-5-8-8-4h-5l-5 5-2 4v17l-1 1h-13l-6-3-5-6-2-5v-8l3-9 7-6 7-2h8l8 4h2l5-6z" fill="#333251"/>
<path transform="translate(914,875)" d="m0 0h9l6 3 5 6 2 9 7 1 8 6 2 5v8l-5 7h-3v2l4 1 4 4 1 2v10l-3 6-5 4-9 2-6-2-2-3-3 3 2-9 10-10 2-9-14-1-3-1v-2l-4-2-4-8v-8l1-2h-2l-2 5-10 7-8 3-1 9 1 15 6 14-1 3-13-7-6-8-1-4v-8l2-3-8 1-9-2-5-7 1-1 10-2 8-8 5-6 4-1 1-3 6-4 7-1 1-6 7-6z" fill="#373250"/>
<path transform="translate(1238,244)" d="m0 0h5l3 3v8l-4 10-12 44-13 47-3 16-25 91-3 7-13-1 1-8 26-95 22-80 10-36 2-4z" fill="#333252"/>
<path transform="translate(531,1055)" d="m0 0h2l1 5 7 3 12 2h24l12 1v-3l4-2 10 1h13l18 1h7l9-1h4v6h-125l-4 17-13 47-4 17-6 21-3 12-1 5h99v1l-87 2-1 4h-8v2l118 1-1 2-124-1-2 11-9 34-7 25-5 17-1 1h-6l-3-2 2-11 20-75 6-23 5-18 7-25 2-1 6-21 4-11 3-8 5-18v-9l4-7h6z" fill="#49394C"/>
<path transform="translate(1145,1036)" d="m0 0 6 2 25 11 33 14-3 9-11 24-3 7-6-1-34-14-25-11 5-13 7-14 5-13z" fill="#FDC666"/>
<path transform="translate(680,1221)" d="m0 0h207v15h-213v-11l4-1v-2z" fill="#FEF2E7"/>
<path transform="translate(939,1178)" d="m0 0 6 3v11l2 1h-2l-1 28-2 15h129v1h-129l-3 25-2 11 4 1-2 1 1 5v7l-1 1h-29v-4l4-5 10-6v-10l-2-26h-14l-1-3 1-13 2-1-1-1v-24l1-3v-9l14-1z" fill="#FDC7A9"/>
<path transform="translate(379,1058)" d="m0 0 5 1 4 11v4l-15 6-44 17-26 10-28 11-40 15-3-1-5-13v-3l22-8 28-11 36-14 39-15 24-9z" fill="#F15F60"/>
<path transform="translate(648,814)" d="m0 0h72l-1 9-7 25-1 1h-87l-2-19 17-5z" fill="#FCF1E6"/>
<path transform="translate(1278,1192)" d="m0 0h13l10 2 7 6 7 11 3 7v8l-6 12-4 6h-19l-46-2 1-6 3-6 7-15 5-13 4-3h4v-2h2v-2l3-2z" fill="#ECEAEE"/>
<path transform="translate(621,736)" d="m0 0 5 2 8 11 5 5 5 4 6 2h23l11-3 11-9 1 4 6 5 8 4h3l-2 4-13 14-13 10-8 5-4-1-2-1v-2l-2-1 5-6v-2l-10 3-19 7h-13l-41-7 4-2 7-4 1-1 9 1 11 3-2-38z" fill="#EBE9ED"/>
<path transform="translate(1157,1006)" d="m0 0h6l27 12 30 13 3 1v-2l5-2-1 6 43 19 19 8 1 4-3 8h5l-1 5-3 1-2 3-2-3v-5l-6-1-34-15-25-10-3 12 1 3v3l-5 1-12 28-4 9h-2l1 3-4-1 3-10 8-18 7-15-5-1-30-13-25-11-5-1v-6l3-2v3l6 1 56 24 3 1 3-9v-3l-59-26-3-2 1-6z" fill="#FDF8F6"/>
<path transform="translate(672,780)" d="m0 0 3 1-2 5-7 8-11 14-5 6-5 5-6 7-17 5-5 1h-19l-27-4-4-4 2-1 14-1 16-4 5-3 4-14-17 4-13 1 1-4 9-16 2-2 11 1 31 5h13l25-9z" fill="#526EAA"/>
<path transform="translate(654,886)" d="m0 0h18l29 1-2 11-6 22-3 2-14 1h-32l-16-1-5-1v-34z" fill="#F15F60"/>
<path transform="translate(737,754)" d="m0 0h10l-3 14-24 90-10 37-8 29-2 1-2-7-5 12-1 4h-2l1-9 11-43 16-59 2-9h-70l6-9 2-2 65-1 7-24 6-23z" fill="#3F3348"/>
<path transform="translate(415,761)" d="m0 0h90l4 1 1 17 2 12h2l5 8 6 9-40-1-2-1-6-12-1-3h-2v-2l-4-2-10-6-13-5-8-3-14-5-10-6z" fill="#FEF2E7"/>
<path transform="translate(550,296)" d="m0 0h9l7 15 17 40 5 12 2 4v3h-12l-3-4-4-12-35 1-5 12-2 3h-10l-1-5 6-15 13-29 9-21z" fill="#FDF7F4"/>
<path transform="translate(618,636)" d="m0 0h15l-2 11-9 34-10 37-2 2-7-10-5-8-4 2-1 5-7-1-5-8-1-3-6 3 2-4 6-5 1-2h-2v-15l-2-12-2-5 3-8 5-5 5 1 14 8 1 3 4 2 5 4 3-1 2 14 1-8 2 3-2-11-1-9v-7z" fill="#FDC6A8"/>
<path transform="translate(354,965)" d="m0 0h6l4 6 13 34 19 49 16 42 13 33 4 10-1 3-9 3h-3l-16-42-11-28-7-20-14-36-13-33-5-14 1-5z" fill="#343251"/>
<path transform="translate(730,296)" d="m0 0h7l15 4 12 6 13 12 7 10 4 8 4 12 1 7v9l-3 16-5 12-7 11-9 9-13 8-11 4-9 2h-6l-1-3 1-3-8 1-12-2v-1h5v-2l5-2h15l8 1 1 2 8-3 11-7 12-11 7-14 1-4-11-9-2-3v-8l5-6 9-3-1-6-6-5-13-2-9-7-5-1h-6l-4-3 1-4 10-7 7-4-15-5 2 2-8 3-3 1h-9l-11-3-1-3 3-3 7-1 7 1-1-4z" fill="#F4EAE1"/>
<path transform="translate(876,1070)" d="m0 0 2 3 7 11 7 6 5 1 5-13h1l2 10v5l23-12 15-10 4 1 5 12 3 14 1 14h-83v-27l2-14z" fill="#323252"/>
<path transform="translate(484,806)" d="m0 0 37 1 6 2 8 5 7 3v29h-2v2h-64l5-25 2-9z" fill="#FEF2E7"/>
<path transform="translate(951,439)" d="m0 0h33l11 5v2l-13 4-14 4-23 9-9 6-3 8-1 22-1 6-8 7-11 12-8 8-5-1-7-6v-5l9-17 6-9 9-15 5-9 6-9 1-3h2l2-5 4-6 8-6z" fill="#F15F60"/>
<path transform="translate(1008,537)" d="m0 0h34l6 3 5 6 30 1v19h-119v-1l23-1 6-11 5-8 4-5z" fill="#D6D3D6"/>
<path transform="translate(716,281)" d="m0 0h20l11 2 16 6 14 9 10 9 9 13 7 15 3 13v8l-3 1-1 4h-3v2h-3l-1 9-2 9-3 12-5 9-7 9-5 4-9 3v2l-12 4-3-1 2-2 12-6 9-7 8-9 8-16 3-11 1-8v-9l-3-14-4-10-9-13-7-7-10-7-13-5-16-3v6h-7l1-7-2 1h-6l-2-3v-7z" fill="#333354"/>
<path transform="translate(737,600)" d="m0 0 41 1-4 17-5 18-23 1h-51l2-4 10-9 10-8 16-13z" fill="#F05F60"/>
<path transform="translate(507,549)" d="m0 0h122l1 7v10h-127l3-2v-11z" fill="#FDF2E7"/>
<path transform="translate(583,626)" d="m0 0 2 1-6 5-5 8-1 5h-2l1 5 8-16 5-4 2-1 15-2 8 1 6 5 4 10v13l3 15-2-1-2 8h-1l-1-17-4 2-8-7-3-3-14-8-4 1-4 4-2 8 3 7 1 15-1 9-9 3h-6l-5-3-5-8-2-6 1-10 5-10 4-13 1-2h2l2-4 9-8z" fill="#F06060"/>
<path transform="translate(1213,958)" d="m0 0h91v10l1 9 3 1-3 5 1 9 1 8-9-3-8-4-13-5-15-6-8-4-16-7-17-7-8-4z" fill="#FCF1E7"/>
<path transform="translate(658,974)" d="m0 0h19l-1 10-7 26-3 2-48-1 2-32 1-4z" fill="#FDF2E7"/>
<path transform="translate(699,320)" d="m0 0 7 2h11l5-1-1 5-6 7 10 3 3 3-1 7-5 4-10 4-13 5 1 6 7 5 7-1 10 4 7 5 2 3v7l-6 11-6 7-3 1-1-4 1-4v-7l-14-7v-11l-11-6-6-9 1-7 6-8-4-3-12-5-2-4 5-4 10-3z" fill="#FBE7C7"/>
<path transform="translate(459,203)" d="m0 0 5 1 2 10 37 1 1 1v5l-1 1-14 1-1 8-5 13-6 11-8 11v2l20 10v6l-3 1-19-8-5-3-5 1-15 8-5 2-4-1-2-5 5-3 9-4 8-4-6-8-7-10-5-10-3-9v-6h7l6 16 6 11 8 9 4-2 9-12 6-13 3-10-8-1h-25l-29-1-1-1v-5l2-1h38v-11z" fill="#F5F5F8"/>
<path transform="translate(635,1139)" d="m0 0 1 4-1 8-4 14-4 16-2 4-4 20-5 19-3 11h2l2-9 3-5 2-1v7l-11 40-5 18-1 1h-6l-3-2 1-8 19-71 3-8h-125v-1h7v-2h8v-5l44-1h68l4-16 8-31h2z" fill="#32263B"/>
<path transform="translate(954,494)" d="m0 0h1l1 12-1 13h315v2l-7 1h-280l-30-1-1 11-3 14 47 1-1 5-6 10-2 3-23 1h-22l-1 3v-3l-7-1v-1l6-2 4-8 6-26 3-20z" fill="#EAE0D6"/>
<path transform="translate(719,754)" d="m0 0h18l-9 35-4 13-1 1h-64l2-4 7-9h3v2l6 1 12-8 13-11 10-11 4-7z" fill="#FCF1E6"/>
<path transform="translate(1081,1089)" d="m0 0 1 2-7 14h-120l-1-7v-8h115z" fill="#FDF2E7"/>
<path transform="translate(618,1013)" d="m0 0h49l-1 8-10 37-6-1-21-9-15-6-5-1 5-5h2l1-22z" fill="#FDF2E7"/>
<path transform="translate(705,922)" d="m0 0h39l3 1v34h-54l4-17 4-16z" fill="#659395"/>
<path transform="translate(1309,782)" d="m0 0 2 4-2 9-12 36-12 38-12 36-6 16-1 1h-12l1-7 12-36 22-65 6-18 3-2 2 4 3 1 1-8h2l1-7z" fill="#353250"/>
<path transform="translate(1337,625)" d="m0 0 29 2 5 1-3 10-9 20-4 1-8-12-9 7-14 8-12 7h-2l6 11 1 5h-14l-17-2-3-1 1-6 7-16 5-10 4 2 3 6 3 4 7-4 4-1v-2h3v-2l22-12-1-5-5-10z" fill="#F15F60"/>
<path transform="translate(676,1213)" d="m0 0 2 1 2 4 206 1v2l-32 1h-176v2l-3 1-1 3 2 1h-2l1 3-1 4-11 1h-44l2-10 3-12 1 4 18-1h32z" fill="#ECE9EC"/>
<path transform="translate(473,306)" d="m0 0h16l1 1 1 34-2 4-10-3v5l-2 1h-26l-1-1-1-10v-14l1-3 5-2-3-11z" fill="#FCFAFB"/>
<path transform="translate(653,601)" d="m0 0h45l-3 11-7 18-2 7h-40l-2-1 1-8 7-24z" fill="#F15F60"/>
<path transform="translate(801,504)" d="m0 0 99 1-6 14-2 6-2-3h-38l-50-1z" fill="#FCF1E6"/>
<path transform="translate(947,1175)" d="m0 0 97 1-3 9-3 7h-93v-11l-4-2 3-3z" fill="#FDF1E4"/>
<path transform="translate(963,394)" d="m0 0 15 8-1 6-9 10-5 5-9 8-9 5-22 5-21 1-16 2-7-1-3-5v-5l13-2 1-2h6l4 2h16l14-5 11-7 9-8 1-2h2l2-4z" fill="#FDC7A9"/>
<path transform="translate(965,291)" d="m0 0 8 1 6 4 4 6v2h8l2 2v9l-2 4 1 15 2 6 2 3-1 5-6 10-3 1-2-1v-15l-9-3-10-9-7-16-1-3v-11l5-8z" fill="#FDC7A9"/>
<path transform="translate(912,974)" d="m0 0 5 2 1 4 2 13 2 14v12l-2 6-3 1-7-4-3-4v-2l-6-2-4-7-8 1-6 6-2-12-1-11v-9l5-3 13-2 12-1z" fill="#FEC761"/>
<path transform="translate(628,678)" d="m0 0 23 1h93l7-1 7 1h3 3v7l1 3-9 34-4 15-3 1-8-2 3-12 10-37 1-3-14 1h-110l-2 7-4 2-2 9-2 6-2 9-2 4-2-3 5-21 4-12 3-8z" fill="#6C4549"/>
<path transform="translate(500,1176)" d="m0 0h124l-3 12h-123l-1-3z" fill="#FCEBDF"/>
<path transform="translate(1301,1104)" d="m0 0 19 1 7 2 7 8 2 5v7l-3 7-5 4-6 2-35 1-2 1 2-6 13-30z" fill="#639093"/>
<path transform="translate(1044,382)" d="m0 0 3 4 16 31 12 22 1 2 12 3 7 6 3 9-4 5h-5l-5-6-6-2-1 3-5-2-4-4-5-12-8-13-5-5-6-10-14-18v-2l7-3z" fill="#FDC7AA"/>
<path transform="translate(916,898)" d="m0 0h33l3 4 1 3v8l-5 7h-3v2l4 1 4 4 1 2v10l-3 6-5 4-9 2-6-2-2-3-3 3 2-9 10-10 2-9-14-1-3-1v-2l-4-2-4-8v-8z" fill="#343251"/>
<path transform="translate(666,1036)" d="m0 0h2l1 6h-2l-1 9-1 4-5 12 1 10-2 11-6 22-6 21-9 35-13 49-2 8-2-2-3 5-3 9h-2l3-15 4-15 4-20 3-7 3-13 5-18v-6l-1-3 5-19 2 1 3-10 8-24 6-21 3-13z" fill="#3F364E"/>
<path transform="translate(1090,548)" d="m0 0h106l7 1 1 1 1 8 5 3 5 2 11 1v1h-28l-4-10-3-3-9 2-6 5-2-1-1-5h-5l1 4 2-3 1 5-2 2-1 4h-7l-6-8-6-4-7-1-7 3-5 5-3 5h-28l4-1-1-4 3-3h2v-2l7-1 2 4h5v-5l-6 1-4-1-6 1-5 5-5 6h-6z" fill="#EBE9EB"/>
<path transform="translate(698,930)" d="m0 0h1l-1 10-22 84-14 53h-2v-6l-1-4 5-12 1-4v-6l3-4v-5h-2l-9 36-4 14-8 24-4 13h-1v-7l9-35 3-11 2 1 3-9-1-8 15-55 10-38 3-4v12l-10 37-3 12-3 11h2l2-12 2-7 9-33 6-21 3-7 3-9z" fill="#3A3048"/>
<path transform="translate(531,1055)" d="m0 0h2l1 5 7 3 12 2h24l12 1v-3l4-2 10 1h13l18 1h7l9-1h4v6h-125l-4 17-12 43-5 7-4 12-2 2 1-9h-2v-8l2-1 6-21 4-11 3-8 5-18v-9l4-7h6z" fill="#6D4549"/>
<path transform="translate(788,588)" d="m0 0h3l-1 6-5 19-7 26-12 47-3 1 1-8-6 2v-4h2l-1-8 16-59 3-9h-39v-3l5-4 31-1 9-2z" fill="#423A52"/>
<path transform="translate(771,423)" d="m0 0 1 2 2 1-11 7-16 6-14 1v15h27l1 1v11h-70v-11l1-1h29l-1-15h2v2h3v-2l4-1v-2l4-2 15 1 5-1 1-3 5-2 6-2h2v-3z" fill="#333455"/>
<path transform="translate(366,782)" d="m0 0 4 4 2 4 1 6v15l-4 16-8 16-10 10-7 4h-10l-2-2h6l1-4v-12l4-8 13-14 3-8 1-13 1-6z" fill="#EBE0D5"/>
<path transform="translate(985,674)" d="m0 0h92l101 1v4h-39l-50-1h-234l-82 1-5-1 1-3h4z" fill="#E3DBD6"/>
<path transform="translate(921,981)" d="m0 0 3 3 2 9v4h2v2l3 1 2 14 4 1-1 7 2 5-5 8-8-1-8-6-4-1-7 8-5-2-3-2-13-1-2-6-1-14 2 2 5-5 8-1 4 6v2l6 2 3 4v2l4 2 5 1 2-6v-12l-1-25z" fill="#FEC7A7"/>
<path transform="translate(1460,549)" d="m0 0 2 1-1 5-6 3h-2l4 18v15l-2 11 13-1 9-1 1 4-4 2-21 2-6 11-5 7-3 1-3-3 10-14 1-4-10-2-10-5-9-7-4-4v-4l5 2 14 9 10 4 7 2 1-9v-9l-2-13-1-7-10 6-17 10-12 7-5 3-5-1 4-5 23-14-1-5-2-5 4-1 4 7 10-5 13-8z" fill="#F05E5F"/>
<path transform="translate(1157,1006)" d="m0 0h6l27 12 30 13 3 1v-2l5-2-1 5-4 2-2 10v2l-4-1-13-5-30-13-18-8-3-2 1-6z" fill="#FCF9F8"/>
<path transform="translate(705,728)" d="m0 0h5l2 6 28 2 11 3 9 4-1 2-9 1v2h-2l-2 7h-27l-5 5-4 2-11-6-4-4 2-5 6-6z" fill="#FDC6A8"/>
<path transform="translate(1234,1075)" d="m0 0 10 3 11 5-1 5-10 23-5 11-1 2-9-3-9-4-5-1 2-1 1-6 13-29z" fill="#FCFAFA"/>
<path transform="translate(1079,1111)" d="m0 0 2 1-6 12-6 15-5 14-8 18-13 30-3 12-6-3v-9l2-6-7-1h-22l-60-1v-1l30-1h41l20 1 3-9 15-33 4-9h-104v-2l105 1 3-9 7-16h5z" fill="#F6E9DF"/>
<path transform="translate(602,627)" d="m0 0 8 1 6 5 4 10v13l3 15-2-1-2 8h-1l-1-17-4 2-8-7-3-3-14-8-4 1-4 4-2 6-4-1-3-2 2-5 7-14 5-4 2-1z" fill="#37293E"/>
<path transform="translate(1265,157)" d="m0 0h12l8 5 3 5 1 10v5l14 10-1 4-6-2-11-7-5 2-4 2h-10l-8-5-4-9 1-8 3-6 5-5z" fill="#F7F6F9"/>
<path transform="translate(1145,1036)" d="m0 0 6 2 25 11 33 14-3 9-2 5-14-5-29-13-17-7-4-2 1-5z" fill="#343454"/>
<path transform="translate(581,796)" d="m0 0 1 2-4 8 2-1 16-2 12-2-2 11-3 5-10 4-10 2-14 1-5 1-13-6-1-5 5-8 9-4h2l1-2 2 1 1-2h8z" fill="#FCC8AB"/>
<path transform="translate(942,566)" d="m0 0h22v32l-1 3h-44l5-5 12-10 4-6 2-7z" fill="#5571AB"/>
<path transform="translate(1212,1066)" d="m0 0 9 3 12 5-1 6-13 29-2 5-5-1-16-7-1-2 15-34z" fill="#639294"/>
<path transform="translate(1219,1048)" d="m0 0 5 1 29 12 30 13-2 9-2 4-6-1-26-11-27-12-5-3 3-10z" fill="#F15F60"/>
<path transform="translate(948,280)" d="m0 0h8l8 4h2l2-2-1 4-1 3 3 2-7 3-4 7v17l-1 1h-13l-6-3-5-6-2-5v-8l3-9 7-6z" fill="#3F374E"/>
<path transform="translate(1255,1085)" d="m0 0 5 1 15 6 1 2-16 36-1 2-6-1-14-6 1-7 14-32z" fill="#F15F60"/>
<path transform="translate(1139,1050)" d="m0 0 5 1 13 5 15 7 25 11 6 2-3 9-3 5-24-10-35-16-3-1 1-6z" fill="#F06564"/>
<path transform="translate(622,942)" d="m0 0h65l-4 17-1-2-61 1v-14z" fill="#628F96"/>
<path transform="translate(1152,1019)" d="m0 0 6 1 34 15 23 10 1 4-4 9-6-1-29-13-29-12 1-6z" fill="#639294"/>
<path transform="translate(1231,1022)" d="m0 0 9 3 30 13 25 11-1 5-4 7-5-1-24-10-34-15-1-2z" fill="#F15F60"/>
<path transform="translate(722,812)" d="m0 0h1v10l-4 17-8 29-5 18-2 8-2 5h4v-9l8-30 7-24 5-16 3-3v7l-19 71-8 29-2 1-2-7-5 12-1 4h-2l1-9 11-43 16-59 1-5h2v-5z" fill="#3A3149"/>
<path transform="translate(1163,993)" d="m0 0 5 1 31 13 25 11 4 2-5 12-5-1-58-25-1-2z" fill="#F05F60"/>
<path transform="translate(622,957)" d="m0 0h60l-1 8-2 7-58 1z" fill="#FCF1E6"/>
<path transform="translate(865,841)" d="m0 0h23v1l-20 1-1 3h97v2l6-1h209v3h-215v32h-1l-1-31-8-1h-84l-2-1-2 2-2-9z" fill="#E9DFD6"/>
<path transform="translate(757,715)" d="m0 0 1 3 182-1h206l-1 2-3 1h-385z" fill="#E7DED6"/>
<path transform="translate(1320,728)" d="m0 0 6 1 3 3-1 8-2 8-8 24-6 15-2 3v-6h-2l-5 15-5-1-1-3-1-2 20-60 2-4z" fill="#3E374F"/>
<path transform="translate(1446,563)" d="m0 0h2l3 11 1 9v9l-2 9-10-2-14-7-10-7-4-2 25-14z" fill="#FDF8F5"/>
<path transform="translate(1388,572)" d="m0 0 2 1-5 7-1 4 4 10 2 9 8 15 7 11v3h2l7 9 5 4 6-1 6-4 5-6 3-3-1-5h4l2-4 6-10 2-2 3 7h17v-2l11-4 2 1-21 12-20 12-19 13-5 2-5-1-14-22-10-17-13-21-3-7 1-4 8-5z" fill="#FEF2E6"/>
<path transform="translate(947,549)" d="m0 0h49l-6 11-3 5-23 1h-22l-1 3v-3l-7-1v-1l9-3z" fill="#FDF2E7"/>
<path transform="translate(644,589)" d="m0 0 11 3 12 1 32 1-1 7-18 1h-17l-10-1-2 9-7 24-2 2v-8l3-14v-3l-6 18-2 9-1 6-3 11-1 2h-3l1-10 14-50z" fill="#3D2B3D"/>
<path transform="translate(676,1213)" d="m0 0 2 1 2 4 206 1v2l-32 1h-216l-15-1 1-6 1 4 18-1h32z" fill="#E6DDD7"/>
<path transform="translate(963,889)" d="m0 0h1l1 9v23l1 2h-2v34l177-1-1 6-6 16-7 15-11 26-7 15-8 19-4 7-5 14-8 17-7 15-2 2v-2h-119v-1l119-1 15-33 9-21 3-5 6-16 7-14 5-13 14-32 5-12h-217l1-3v2h39v-34l-4-1h4v-26z" fill="#DCD6D5"/>
<path transform="translate(914,875)" d="m0 0h9l6 3 5 6 2 9 7 1 4 4h-31l-2-1-1 2-27-1 2-4 6-4 7-1 1-6 7-6z" fill="#383654"/>
<path transform="translate(752,300)" d="m0 0 7 1 13 6v3l6 5v2l3 1 7 7 4 5 2 6 2 3v6l1-3 1-2 3 4 4-1 1 5v8l-3 1-1 4h-3v2h-3l-1 9-2 9-3 12-5 9-7 9-5 4-9 3v2l-12 4-3-1 2-2 12-6 9-7 8-9 8-16 3-11 1-8v-9l-3-14-4-10-9-13-7-7-10-7-7-3z" fill="#413A53"/>
<path transform="translate(1176,720)" d="m0 0 5 1 13 10 21 15 3 1-2 4-5-1-5-4-5 1-16 9 1 13-5 3-5-37-1-13z" fill="#F05E5F"/>
<path transform="translate(621,1199)" d="m0 0 1 3-4 14-4 17-1 2h2l2-9 3-5 2-1v7l-11 40-5 18-1 1h-6l-3-2 1-8 19-71 1-4z" fill="#3F354B"/>
<path transform="translate(852,533)" d="m0 0h16l10 1-2 4v4l7 2h12l6-1v8l-3 5-2 1h-9l-18-4-14-6-7-6-1-6z" fill="#363554"/>
<path transform="translate(354,965)" d="m0 0h6l4 6 13 34 7 18-2 8h-2l-7-15-2-2h-2l-2-5h-3l-11-28-3-9 1-5z" fill="#3E364D"/>
<path transform="translate(1143,551)" d="m0 0 7 1 6 4 5 6 1 2 7 1v-5l3-1-1-3-2 2-2-2 1-4h5l2 3 1 3 8-6 7-1 4 4 4 10v1h-70l-1-3 5-7 6-4z" fill="#D9D4D6"/>
<path transform="translate(1216,1061)" d="m0 0 6 2 36 16 17 7 4 1 3-10 2-3 3 5h3v3h-2v5h-2l-6 18-8 18-3 1-1-5 2-3-2-3 1-5 6-15-20-8v-2l-9-3-10-4h-3v-2l-9-3-10-4 2-2v-3z" fill="#FBEBDE"/>
<path transform="translate(696,360)" d="m0 0 1 3h2l5 5 3 2 7-1 10 4 7 5 2 3v7l-6 11-6 7-3 1-1-4 1-4v-7l-14-7v-11l-11-6-1-4 4-2z" fill="#F9E7C9"/>
<path transform="translate(907,1237)" d="m0 0h15l2 15 1 11v10h-22l3-30z" fill="#F15F60"/>
<path transform="translate(1146,1029)" d="m0 0 1 3 6 1 56 24 3 1 3-9v-4l6 2-2 1-3 12 1 3v3l-5 1-12 28-4 9h-2l1 3-4-1 3-10 8-18 7-15-5-1-30-13-25-11-5-1v-6z" fill="#F4F3F4"/>
<path transform="translate(1153 1e3)" d="m0 0 3 2v6l-3 7 2 1h-3l-3 9-2 4-1-2-1 1-1 9-9 21-6 12-1 3 6 3-3 2h-2v2l6 2 1 2-7-2-8-4-2-2 1-6 3-5 5-13 16-37 6-12z" fill="#EEE8E7"/>
<path transform="translate(910,1183)" d="m0 0h11l-1 11 1 6v20l1 2v14h-15l1-15 2-1-1-1v-24l1-3z" fill="#FCF1E4"/>
<path transform="translate(588,897)" d="m0 0 2 2 3 29v29h-16l-1-1 1-9 3-17 2-5 1-9 2-13 2-3z" fill="#3D344A"/>
<path transform="translate(660,1088)" d="m0 0h213v14h-1v-12l-8 1h-200l-4-1z" fill="#E8DFD6"/>
<path transform="translate(956,804)" d="m0 0h223l-1 3h-214v13h-1v-13h-29v-2z" fill="#EBE0D6"/>
<path transform="translate(689,467)" d="m0 0h73l28 1 131 1v1h-429v-1l175-1z" fill="#DAD8DD"/>
<path transform="translate(481,1212)" d="m0 0h1l-1 14-6 24 4-14h2v-3h2l1-2v9l-12 42-2 4h-6l-3-2 2-11 16-60z" fill="#40374D"/>
<path transform="translate(785,380)" d="m0 0h3v6l-7 13-9 10-9 7-14 7-13 3h-6l-1-3 1-3-8 1-12-2v-1h5v-2l5-2h15l8 1 1 2 8-3 11-7 12-11 8-15z" fill="#F7EDE3"/>
<path transform="translate(1113,1023)" d="m0 0 3 2v2l2 1-13 30-8 19-12 28-3 6-3 1-4 5-3-2 1-5 1-2h2l2-7 6-12 8-18 6-15 6-12 7-17z" fill="#EDEAEB"/>
<path transform="translate(690,921)" d="m0 0h2l-1 7-1 3-33 1h-34l-1 3v-12l54-1z" fill="#669197"/>
<path transform="translate(785,340)" d="m0 0 5 1 3 14v9l-3 16-2 3v-3l-5 1v-3l-11-9-2-3v-8l5-6 9-3-1-8z" fill="#FBE7C7"/>
<path transform="translate(328,548)" d="m0 0h4l-1 4-16 20-10 13-7 8-5 2h-7v-4l13-16 10-13 8-10z" fill="#F15F60"/>
<path transform="translate(759,310)" d="m0 0 4 2 16 16 4 9v2h-2v-2l-17-1-9-7-5-1h-6l-4-3 1-4 10-7z" fill="#EFDFC6"/>
<path transform="translate(698,930)" d="m0 0h1l-1 10-22 84-14 53h-2v-6l-1-4 5-12 1-4v-6l3-4v-5h-3l1-7 2-2v2h2l2-12 2-7 9-33 6-21 3-7 3-9z" fill="#3B324A"/>
<path transform="translate(373,533)" d="m0 0h12l39 10 4 2 1 4-9 4-9-2-30-8-14-4v-4z" fill="#F15F60"/>
<path transform="translate(954,922)" d="m0 0 8 1v34h-39l1-7 5-5 2 1 1 3 8 1 8-3 4-5 1-3v-10l-2-4-2-2z" fill="#659197"/>
<path transform="translate(775,593)" d="m0 0h7l-1 13-5 19-7 25v5h-2l-2 9-3 7-2 1v-7l15-55 3-9h-39v-3l5-4z" fill="#3C3147"/>
<path transform="translate(268,502)" d="m0 0 39 10 14 4 1 3-8 3h-11l-44-12-2-1 2-4z" fill="#F05E60"/>
<path transform="translate(395,460)" d="m0 0 5 1 1 3-13 16-11 14-9 10-8 3h-5l4-8 8-9 8-10 9-11 7-8z" fill="#F15F60"/>
<path transform="translate(941,569)" d="m0 0h2l-1 7-3 7-4 5-11 9-5 5-17 7h-6l-2-5 6-10 11-12 10-8 3-1-2 4-4 4h-2l-2 4-4 4-1 4 12-3 10-6 6-7z" fill="#323150"/>
<path transform="translate(666,1036)" d="m0 0h2l1 6h-2l-1 9-1 4-5 12 1 10-2 11-6 22-3 10-4 7-8 20-1-3v-9l4-15 3-10 8-24 6-21 3-13z" fill="#6C4549"/>
<path transform="translate(921,981)" d="m0 0 3 3 2 9v4h2v2l3 1 2 14 4 1-1 7 2 5-5 8-8-1-8-6-2-3 5-1 1-5v-12l-1-25z" fill="#FEC7A9"/>
<path transform="translate(739,758)" d="m0 0 3 1v10l-2 4 1 6-11 41h-3l-5 16-5 18-7 24-3 12-1 9-4 1v-4l2-4 4-17 11-40 5-19 2-5 3-19 3-9 4-13z" fill="#68454C"/>
<path transform="translate(1223,711)" d="m0 0h6l6 5 10 16-1 3h-3l-2-4-4 10-4 2h-8l-5-5v-7l6-7 5-3h3l-5-5-7 2-5 4-3 3h-2l1-5 5-6z" fill="#ED5C5D"/>
<path transform="translate(603,777)" d="m0 0 9 1 20 6 3 1h7l15-7 6-1 9 2v2l-24 9-3 1h-13l-41-7 4-2 7-4z" fill="#FAF8F8"/>
<path transform="translate(631,1189)" d="m0 0 1 2h209l44 1-1 2h-248l-5-1z" fill="#ECE1D7"/>
<path transform="translate(768,675)" d="m0 0 2 1 3-1h194v2l-37 1h-75l-82 1-5-1z" fill="#EBE1D7"/>
<path transform="translate(1268,161)" d="m0 0h7l6 4 3 4v9l-3 5-5 3h-9l-6-4-2-4v-7l4-7z" fill="#C2CEE8"/>
<path transform="translate(1309,782)" d="m0 0 2 4-2 9-12 36-3 10-2 1-1-17 3-4h-2l-2 6-2 3-4 1 3-11 8-24 3-2 2 4 3 1 1-8h2l1-7z" fill="#382B41"/>
<path transform="translate(1037,760)" d="m0 0 80 1h19l1 3h-173v13h-1v-13h-30v-2l18-1z" fill="#E9DFD6"/>
<path transform="translate(311,901)" d="m0 0v3l-6 10-1 10 8-1 17-6 26-7 8-3 4 1-28 11-36 14-7 2h-6l-2-3 1-4 11-13 9-12z" fill="#FEF3E8"/>
<path transform="translate(689,971)" d="m0 0 1 2 4-1h215v1l-6 1-164 1h-44l-6-1z" fill="#DBD6D6"/>
<path transform="translate(1208,224)" d="m0 0h7v1l-42 9-36 8-65 13-41 9-12 2h-10l-1-2h9l29-6 17-4 17-5h6l9-3 7 1v-2l9-1 5-1 3-2 12-1 14-3v-1l10-1 11-3 13-3 16-3z" fill="#FEF3E8"/>
<path transform="translate(756,683)" d="m0 0h4v5l-3 8-2 6 5-1v7l-8 30-3 1-8-2 3-12 11-41z" fill="#423A53"/>
<path transform="translate(365,1007)" d="m0 0 4 3v4l3-1 8 16v2h2l1-6 3 3 14 37v2l-3-1-3-3-3-7-2-6-4-4h-3l1 5-2 2-16-42z" fill="#382C42"/>
<path transform="translate(368,544)" d="m0 0 18 4 22 6 2 2-31 10h-4l-7-20z" fill="#5370A9"/>
<path transform="translate(378,466)" d="m0 0 1 2-9 12-13 16-2 3-3-1-6-21 8-3z" fill="#5370A9"/>
<path transform="translate(1178,1051)" d="m0 0 5 1 26 11-3 9-2 5-14-5-13-6z" fill="#373A5C"/>
<path transform="translate(747,1049)" d="m0 0h85l35 1-2 2h-195l-1-2z" fill="#EADFD6"/>
<path transform="translate(312,488)" d="m0 0 2 1 5 18 1 3-8-1-30-8-3-2 8-3z" fill="#526FA9"/>
<path transform="translate(1355,543)" d="m0 0 5 1v8h8l-1 5-6 1v20l7-1 1 5-5 3h-6l-4-2-2-6-1-20-3 1v-5l3-1 1-8z" fill="#EAE0D6"/>
<path transform="translate(499,1178)" d="m0 0 12 3 9 2 31-2 47 1 6 2v2l-107 1z" fill="#FDFCFC"/>
<path transform="translate(333,556)" d="m0 0 3 1 6 19v2l-30 10-3-1 10-13 11-14z" fill="#5370A9"/>
<path transform="translate(260,514)" d="m0 0 40 11-1 2-21 7-11 3-4-9-3-10z" fill="#526FAA"/>
<path transform="translate(926,972)" d="m0 0h200l6 1v1l-6 1-197-1z" fill="#E7DED6"/>
<path transform="translate(1255,1025)" d="m0 0 6 1 27 12 10 4 4 3-1 9-8 19-4 1-2-1 2-11 6-13-9-3-9-4v-2l-6-5-7-4-9-4z" fill="#EEE0D2"/>
<path transform="translate(306,555)" d="m0 0 3 1-13 16-11 14-2 1-7-21 2-2z" fill="#5370A9"/>
<path transform="translate(517,674)" d="m0 0h15l20 1v3l-36 1-99-1v-3z" fill="#ECE1D7"/>
<path transform="translate(592,1061)" d="m0 0 11 1h13l18 1h7l9-1h4v6h-124v-1l59-1v-3z" fill="#684D5B"/>
<path transform="translate(893,1274)" d="m0 0h9l2 2v12h-37l-2-1 1-3 10-5z" fill="#FEC766"/>
<path transform="translate(933,564)" d="m0 0 8 2-1 8-6 8-9 7-10 4h-6l1-5 6-7 8-7 4-6h2l1-3z" fill="#FDC7AA"/>
<path transform="translate(1214,364)" d="m0 0h1l-1 8-22 80h-3l-1-4 3-13 1-5 3-10 2-5 2-14h2l1-7 2-7 4-11 1-9 1-2 4 1z" fill="#3F3750"/>
<path transform="translate(621,679)" d="m0 0 1 2-10 37-2 2-4-6-5-11v-2l-4-2 2-4 7-6 11-3z" fill="#FCEFE3"/>
<path transform="translate(402,467)" d="m0 0 2 4 5 13 1 7-27 8-4 1 4-7 10-13 6-8 2-1z" fill="#5370AA"/>
<path transform="translate(878,776)" d="m0 0h9l4 6 1 8-3 7-4 3h-7l-5-4-1-3v-10l4-6z" fill="#C2CEE7"/>
<path transform="translate(679,1009)" d="m0 0 2 2h190l-1 2-185 1-6-1z" fill="#E2DBD6"/>
<path transform="translate(1083,543)" d="m0 0 7 1v3h84v1h-84v17l6-1 8-10 5-2h6 3l4 1v5l-5 1-2-2v-2h-7v2l-4 4v3l24 1v1h-44l-1-1z" fill="#DDD9DB"/>
<path transform="translate(1236,548)" d="m0 0 16 1v2l2 1-7 3-5 6-1 3-2 1h-7v-3l-10-3-8-3-3-6 24-1z" fill="#FDF2E8"/>
<path transform="translate(545,751)" d="m0 0h1l1 15-3 32-4-2-1-5h-2l-4-13 1-10 4-4 4-9z" fill="#FEF1E3"/>
<path transform="translate(418,518)" d="m0 0h2l6 20-2 1-30-8-6-2 2-2z" fill="#5370A9"/>
<path transform="translate(395,858)" d="m0 0h14l5 4v5l-6 5-3 1h-11l-7-3-5-8v-3z" fill="#FEF7F3"/>
<path transform="translate(728,817)" d="m0 0h1v7l-19 71-6 23-2 1v-9h2v-11h2v-9l8-30 7-24 5-16z" fill="#3F3144"/>
<path transform="translate(1055,549)" d="m0 0h28v16h-19l-6-11z" fill="#FDF2E8"/>
<path transform="translate(622,716)" d="m0 0 1 2 17-1 107-1-2 9h-1v-5h-121z" fill="#EBE0D7"/>
<path transform="translate(756,1219)" d="m0 0h130v2l-32 1h-100l2-1z" fill="#ECE1D7"/>
<path transform="translate(956,1088)" d="m0 0h126l-1 2-12 1h-106l-8-1z" fill="#E6DDD6"/>
<path transform="translate(924,1273)" d="m0 0 13 1 2 1 1 5v7l-1 1h-29v-4l4-5z" fill="#FEC769"/>
<path transform="translate(648,591)" d="m0 0 7 1 12 1 32 1-1 7-18 1h-17l-10-1 1-8-6-1z" fill="#526FAA"/>
<path transform="translate(892,525)" d="m0 0 8 6 4 2-2 4-1 6-6 2h-12l-8-3 1-5 3-3 6-3 3-1 2-4z" fill="#FDC6A9"/>
<path transform="translate(1262,894)" d="m0 0 1 2h12l-2 9-6 16-1 1h-12l1-7z" fill="#403A54"/>
<path transform="translate(963,889)" d="m0 0h1l1 9v23l1 2h-2v34h175v1h-217l1-3v2h39v-34l-4-1h4v-26z" fill="#EAE0D6"/>
<path transform="translate(1283,551)" d="m0 0h12l6 3 3 4 1 4-3 1v2h-24l1-2h-6l-1 2 1-4 4-6z" fill="#E7DED7"/>
<path transform="translate(612,1273)" d="m0 0h278v3l-14 4-3 1v-6l-261-1z" fill="#EDDDD0"/>
<path transform="translate(552,314)" d="m0 0 3 1 10 23v3h-23l1-5z" fill="#F15F60"/>
<path transform="translate(698,917)" d="m0 0h1l2 11-2 3-3 9-4 10-5 16-5 18-8 31v2h-2l-1 10-1 2h-2l2-11 5-19 11-41v-8l7-23z" fill="#6D4447"/>
<path transform="translate(977,350)" d="m0 0h2l-5 26-1 6v11l3 6v2l-6-2-8-6 1-10 2-4 2-8 6-15z" fill="#F6EDE5"/>
<path transform="translate(957,1011)" d="m0 0h158v2l-13 1h-25l-120-1z" fill="#E1DAD6"/>
<path transform="translate(1124,549)" d="m0 0h12l2 2 2 1-7 5-5 8h-28l4-1-1-4 3-3h2v-2l7-1 2 4h5l-1-7z" fill="#FCF2E8"/>
<path transform="translate(415,761)" d="m0 0h90l4 1v17h-1v-14h-54l-36-1z" fill="#ECE3DC"/>
<path transform="translate(583,626)" d="m0 0 2 1-6 5-5 8-1 5h-2v6h-2l2 4 4 3-1 3h2l2 5v11l-5-1 1-8-2-4-1-3h-2v-4h-7v2h-2l-2 4-1-3 3-5 4-13 1-2h2l2-4 9-8z" fill="#A11B2F"/>
<path transform="translate(1017,553)" d="m0 0h11l6 5 3 4v4h-31l-2-2 5-5 6-5z" fill="#EBE8EC"/>
<path transform="translate(576,956)" d="m0 0 3 1 14 1 1 9-1 6h-22l-1 2 1-6 2-5 2-7z" fill="#FDEFE4"/>
<path transform="translate(621,1199)" d="m0 0 1 3-4 14-3 12-2 3-5 21-8 30 4 1 1 3h-6l-3-2 1-8 19-71 1-4z" fill="#3C2F44"/>
<path transform="translate(912,203)" d="m0 0h6l5 5 1 9-3 5-4 3-7-1-4-6v-8l4-6z" fill="#C2CEE8"/>
<path transform="translate(645,609)" d="m0 0h1l-1 12-2 7v6l1 3-9 34-2 4-4-4v-6l2-6 5-17 1-11 2-3 3-12z" fill="#46394E"/>
<path transform="translate(444,717)" d="m0 0h92v2h-2l-1 2-117-1v-2z" fill="#EADFD6"/>
<path transform="translate(936,295)" d="m0 0 2 2 1 3 3 6 5 1 2-2 6 2 2 1 1 10-1 1h-13l-6-3-5-6-1-2v-6l2 1z" fill="#363352"/>
<path transform="translate(956,804)" d="m0 0h99l-1 2-52 1h-38v13h-1v-13h-29v-2z" fill="#E9DFD6"/>
<path transform="translate(625,680)" d="m0 0 1 3-1 4-7 23-2 11h2l1-7 2-9 2-7 3-5h2l-1 7-7 28-4-2-5-4 1-8 8-30 4-2z" fill="#3C334B"/>
<path transform="translate(699,1274)" d="m0 0h165l-3 2-8 1-19-1h-39l-29 1h-18l-22-1h-14l-13-1z" fill="#ECEAEE"/>
<path transform="translate(618,636)" d="m0 0h15l-2 11-5 20-2 1-5-12v-13z" fill="#FBEDE1"/>
<path transform="translate(481,1212)" d="m0 0h1l-1 14-5 19h-2l-1 8-8 30 2 2h-5l-1-4 11-42 7-26z" fill="#3C2E42"/>
<path transform="translate(521,1054)" d="m0 0 10 1v2l-4 1-2-1-2 4-1 4v8l-6 21-4 9-5 17-4 14h-1l1-9 16-64z" fill="#40364E"/>
<path transform="translate(690,522)" d="m0 0 4 1 9 26v3l-4-1-2-8-12-1-1 7-2 3-3-1 9-26z" fill="#5473A5"/>
<path transform="translate(1178,725)" d="m0 0 4 2 20 14-1 2-9 4-8 5-2-2-2-17z" fill="#FDF3ED"/>
<path transform="translate(777,300)" d="m0 0 5 2 9 10 8 14 4 9 1 10h-4l-3-5-4-11-4-7-3-6-2-6-4-3v-2l-3-1zm19 40 2 4-2 2-1-4z" fill="#3C354D"/>
<path transform="translate(757,304)" d="m0 0 5 1 10 8 9 10 6 10 2 9-4-1-3 1-5-5h4v2h2l-4-8v-3l-4-2-7-8-7-7-8-3v-2z" fill="#F9EEE3"/>
<path transform="translate(695,748)" d="m0 0 1 4 6 5 8 4h3l-2 4-13 14-13 10-6 3 2-5 5-2v-2l11-9 6-7 2-6-9-4-7 1-13 4-16 1-3-2 16-1 11-3z" fill="#ECE1D6"/>
<path transform="translate(775,593)" d="m0 0 5 1-2 7h-39v-3l5-4z" fill="#526EAA"/>
<path transform="translate(852,773)" d="m0 0h4l9 26 1 4-4-1-3-10-2 1h-10l-2 9-3 1 1-5 7-22z" fill="#54729F"/>
<path transform="translate(636,676)" d="m0 0h110l-3 2-16 1h-76l-14-1z" fill="#32263B"/>
<path transform="translate(746,921)" d="m0 0 3 1v34h156l2 2h-214v-1h54v-34l-2-1z" fill="#E9DFD6"/>
<path transform="translate(1388,572)" d="m0 0 2 1-5 7-1 4 4 10 2 9 8 15 7 11-1 3-7-10-10-18-9-14-3-7 1-4 8-5z" fill="#FEF3E8"/>
<path transform="translate(1159,1159)" d="m0 0 6 1 4 3 1 6-3 7-3 2h-6l-5-4-1-2v-6l3-5z" fill="#E25256"/>
<path transform="translate(1238,547)" d="m0 0h24v2l3 2 3 3-1 4-4 2-9-1-7 5-5-2 1-4 7-6 2-1v-2h-15z" fill="#DAD6D7"/>
<path transform="translate(1044,1176)" d="m0 0h1v9l-3 3-4 10-2 11h3l2-6 1 3-2 7-6-3v-9l2-6-7-1h-22l-60-1v-1l30-1h41l20 1 3-9z" fill="#E8DFD6"/>
<path transform="translate(771,423)" d="m0 0 1 2 2 1-11 7-16 6-14 1v15h-1l-2-6-2-1-1-2-2 1-1 3h-2v5h-1l-1-15h2v2h3v-2l4-1v-2l4-2 15 1 5-1 1-3 5-2 6-2h2v-3z" fill="#42415F"/>
<path transform="translate(1e3 566)" d="m0 0h5l2 9 5 5 3 2 7-1 3-1 2-5 1-9h5l-2 17 11 9 1 3-4-1-11-9-1-4-7 5h-6l-8-5-4-5-2-5z" fill="#639294"/>
<path transform="translate(877,773)" d="m0 0h10l5 4 3 6v9l-3 6-5 4-7 1-5-2-6-7-1-8 4-10zm1 3-5 5-1 2v10l3 5 3 2h7l5-4 2-6-1-8-4-6z" fill="#5574A5"/>
<path transform="translate(671,382)" d="m0 0 2 3 6 10 8 8h-3l-5-5-7-8-4-1-3 9-7 16-8 21-6 19-2 10v4h25v1h-30l2-1v-9l2-4 2-8 14-37 7-16 3-8 4-2z" fill="#FEF3E8"/>
<path transform="translate(574,1060)" d="m0 0h27l54 1v5l-2-3h-7l-7 1h-13l-10-1h-16l-8-1-3 1v3h-29v-2h9l1-3z" fill="#3D354C"/>
<path transform="translate(590,941)" d="m0 0h3v16h-16l-1-1 1-9 2-5z" fill="#639194"/>
<path transform="translate(1189,551)" d="m0 0 5 2 4 8 1 5h-26l-3-2 2-3 3 1 6-5 6-3z" fill="#DAD5D6"/>
<path transform="translate(1268,703)" d="m0 0 4 4 11 19 1 8-9 6-16 9-10 5 2-4 5-4 9-4 8-6 3-4-1-8-5-15z" fill="#FEF3E8"/>
<path transform="translate(661,1048)" d="m0 0 2 2-3 9-4 16-7 24-2 5-2 6-4 13h-1v-7l9-35 3-11 2 1 3-9-1-8 2-3 1 1z" fill="#3D354D"/>
<path transform="translate(1098,1132)" d="m0 0 4 2 5 2 2 2v8l-5 5-9-1-3-2 1-8z" fill="#C83B46"/>
<path transform="translate(1420,881)" d="m0 0 11 2 6 2v1h-7l-7-2-4 2-1 2h-2l-2 4-9 10-15 15h-2l-2 4-8 7-9 7-4 4-5 2-1 3-5 3-5 5-5 3-2-1 11-10 11-8 11-9 31-29 6-8 5-5z" fill="#FEF3E8"/>
<path transform="translate(296,797)" d="m0 0 9 2 17 6 6 3-3 5-7-1-24-9 1-5z" fill="#C3CEE5"/>
<path transform="translate(699,893)" d="m0 0 2 4 4 4-1 9h-2l1 11-2 4-2-2-1-5-5 12-1 4h-2l1-9z" fill="#40354A"/>
<path transform="translate(380,647)" d="m0 0 3 1-30 15-21 13-16 12-11 9-10 9-8 7-6 6-2-1 14-14 8-7 6-6h2v-2l17-12 9-6 13-8 23-12z" fill="#FEF3E8"/>
<path transform="translate(674,1022)" d="m0 0h2l-4 17-10 38h-2v-6l-1-4 5-12 1-4v-6l3-4v-5h-3l1-7 2-2v2h2l2-6z" fill="#423A52"/>
<path transform="translate(825,846)" d="m0 0 5 4h-108v-3z" fill="#EBE1D8"/>
<path transform="translate(737,754)" d="m0 0h10l-3 14-3 8-2 2v-5l2-4v-10l-2-1-1 8-3 11-4 14-2 5h-2v-7l9-34z" fill="#3D334A"/>
<path transform="translate(689,971)" d="m0 0 1 2 4-1h81l-3 2-28 1h-49l-6-1z" fill="#E9DFD6"/>
<path transform="translate(1090,548)" d="m0 0h17l3 1-1 4-6 3-7 9h-6z" fill="#FCF2E8"/>
<path transform="translate(948,280)" d="m0 0h8l3 1v3l4 2-2 5-6-2-1 3-5-2-7 1-1 3-4-1 1-5 3-6z" fill="#333354"/>
<path transform="translate(905,1274)" d="m0 0h14v3l-7 5-5 9-2 1h-8l-2-2h-20l-1 1h-6l-4-3 1-3v2l39 1z" fill="#EDEAED"/>
<path transform="translate(954,494)" d="m0 0h1l1 12-1 15h-2l-1 11-3 14 47 1v2h-49l-1 7-3 6-1-3 4-13 5-25 2-13z" fill="#E6DDD6"/>
<path transform="translate(656,805)" d="m0 0 9 2 2 1v2l8 1 36 1 10 1v5l-1-4h-70z" fill="#6D4547"/>
<path transform="translate(496,1187)" d="m0 0h101v1l-87 2-1 4h-8v2l-4-1-1-2z" fill="#4E5176"/>
<path transform="translate(1124,1147)" d="m0 0 5 1 3 1 4 1 2 2-1 7-2 5-6 1-2-2 2-4h-7l-2-2v-6z" fill="#FEECDE"/>
<path transform="translate(908,1221)" d="m0 0h13l1 1v14h-15z" fill="#FEF2E6"/>
<path transform="translate(354,965)" d="m0 0h6l4 6-1 6-1 8-2 1-2-1-1 3-3-4-4-12 1-5z" fill="#373452"/>
<path transform="translate(320,828)" d="m0 0h1l-1 8-1 1-25 1-1-1v-6l15-2z" fill="#C2CEE8"/>
<path transform="translate(729,522)" d="m0 0h3l1 22 1 4 7 1 4-2 1-2 1-23h3v23l-3 5-4 2h-8l-5-4-2-9v-13z" fill="#526FA8"/>
<path transform="translate(1093,1063)" d="m0 0 2 4-5 11-8 17-6 13-1-2h-119v-1l119-1 15-33z" fill="#E8DED6"/>
<path transform="translate(680,1219)" d="m0 0h76v2l-2 1h-54l-20-1z" fill="#E6DDD6"/>
<path transform="translate(865,841)" d="m0 0h23v1l-20 1-1 3 56 1v2l-6 1h-47l-2-1-2 2-2-9z" fill="#EADFD6"/>
<path transform="translate(314,770)" d="m0 0 6 1 14 12 2 2-1 5-5 1-15-14-3-3z" fill="#C2CEE7"/>
<path transform="translate(1063,211)" d="m0 0h5l2 2v7l-2 2 1 4 4 4-3 1-5-6h-4l1 9h-3l-4-20 3-2z" fill="#F15F60"/>
<path transform="translate(1252,1219)" d="m0 0 2 1 3 14 3 6-2 2h-15l1-6 3-6z" fill="#FCFBFB"/>
<path transform="translate(913,200)" d="m0 0 7 1 5 4 2 4v8l-3 6-5 4h-9l-6-7-1-2v-7l4-8zm-1 3-5 5-1 2v8l4 6 7 1 6-5 1-9-3-6-3-2z" fill="#516EA3"/>
<path transform="translate(1014,468)" d="m0 0 8 2v2l-12 2v2l-2 1h-7l-15-3v-3l10-2z" fill="#E6E6F6"/>
<path transform="translate(620,945)" d="m0 0h1l1 13v11l-1 4 5-1h52l-1 4v-2l-19 1h-38l-1-7z" fill="#EBE0D7"/>
<path transform="translate(951,761)" d="m0 0h74v1l-16 1-45 1v13h-1v-13h-30v-2z" fill="#DFD8D6"/>
<path transform="translate(932,477)" d="m0 0h1v26l-5 59h-2v-10l1-3h-13l-9-1v-1h22l2-29v-10l-8 8v-3l8-8h2z" fill="#E7DDD6"/>
<path transform="translate(594,959)" d="m0 0 2 4v37l-1 15-5-1-17-1v-2h20v-35l-21-2v-1h21z" fill="#E5DBD3"/>
<path transform="translate(1196,549)" d="m0 0h7l1 1 1 8 5 3 5 2 11 1v1h-28l-4-10-1-4z" fill="#FAF0E6"/>
<path transform="translate(824,200)" d="m0 0 3 1v12l2-1h11l-1-11h3v26h-3l1-12h-13v12h-4v-17z" fill="#57799F"/>
<path transform="translate(1086,1085)" d="m0 0 2 4-1 1 2 2-2 4 1 2-6 13-3 1-4 5-3-2 1-5 1-2h2l2-7 6-12z" fill="#ECE9EB"/>
<path transform="translate(921,981)" d="m0 0 3 3 2 9v4h2v2l2 1v7l-4 8-3-3-2-9-1-11v-10z" fill="#ECE1D7"/>
<path transform="translate(1082,207)" d="m0 0 3 1 11 16 1 3h-3l-3-4-10 2-2 5h-2l2-16z" fill="#EA595B"/>
<path transform="translate(1100,1062)" d="m0 0 2 1-3 9-10 24h-3l2-4-2-2 1-3 1-6 5-13 3-5z" fill="#FBF1E7"/>
<path transform="translate(759,673)" d="m0 0 1 4h-2v2h-11l-6 1h-90l4-2h76l12-1 3-1 13-1z" fill="#3D354C"/>
<path transform="translate(728,817)" d="m0 0h1v7l-11 41-4-2 2-9 7-26 4-9z" fill="#403951"/>
<path transform="translate(649,592)" d="m0 0 5 1-1 11-7 24-3 8h-1v-8l3-14 2-17h2l-1-4z" fill="#3D2F43"/>
<path transform="translate(540,846)" d="m0 0 5 4h-69l1-3h34l29 1z" fill="#E7DED6"/>
<path transform="translate(788,588)" d="m0 0h3l-1 6-5 19-7 26-2-1 1-10 3-14 6-20 1-5z" fill="#3F2D3F"/>
<path transform="translate(1294,1047)" d="m0 0h6l1 7-8 19-4 1-2-1 2-11 7-14z" fill="#ECE0D5"/>
<path transform="translate(1118,847)" d="m0 0h61v3h-61z" fill="#ECE1D7"/>
<path transform="translate(1153,170)" d="m0 0h5l-4 2-47 10-36 7-15 3-4 1h-7v-1l63-13z" fill="#FEF3E8"/>
<path transform="translate(572,1088)" d="m0 0h65l1 2-8 1h-43l-15-1z" fill="#ECE1D7"/>
<path transform="translate(1046,1175)" d="m0 0 1 3-1 2h3l1 5-9 20-2 4h-3l1-11 5-11 2-4 1-7z" fill="#FEF2E6"/>
<path transform="translate(619,976)" d="m0 0h1v17l-1 14-1 4h50l-1 3-51-1 1-23z" fill="#EBE0D6"/>
<path transform="translate(803,519)" d="m0 0h87l2 1v5l-2-3h-38l-49-1z" fill="#EADFD5"/>
<path transform="translate(720,414)" d="m0 0h15v2h2l1 2 4 2-7 4-5-1v-3l-8 1-12-2v-1h5v-2z" fill="#FEE8C5"/>
<path transform="translate(1112,201)" d="m0 0h3l3 11 1 11-4-1-10-9-3-4h-2l3 14v3h-2l-4-15v-7l4 1 10 9 4 3-2-12z" fill="#ED5B5D"/>
<path transform="translate(1232,722)" d="m0 0h2l2 4v7l-5 6h-7l-3-2 1-5 8-7z" fill="#FEF6F2"/>
<path transform="translate(754,705)" d="m0 0h1l-1 9-2 17-1 6v2l-10-2 3-12 1 2h2l1-6 3-7z" fill="#66454C"/>
<path transform="translate(1211,1181)" d="m0 0 6 2 3 4-1 5-2 2-1 7h-3l-1-7-3-2-2 6-3-1 3-9z" fill="#E65559"/>
<path transform="translate(1050,1011)" d="m0 0h65v2l-13 1h-25l-28-1z" fill="#E6DDD6"/>
<path transform="translate(1267,1112)" d="m0 0 3 3 2-2-1 4-2 4 2 1v1l-3 9-3 6-4-4-5-1 3-1 2-6z" fill="#EEDED0"/>
<path transform="translate(1083,543)" d="m0 0 7 1v3h84v1h-84v10l-2 3-1-3-1-11-2 7h-1z" fill="#C9C9D2"/>
<path transform="translate(850,201)" d="m0 0h13v2l-10 1v8h10v3l-10 1v8l11 1v2h-14l-1-1v-23z" fill="#5575A6"/>
<path transform="translate(919,922)" d="m0 0 5 2 3 5-2 5-4 3-7-1-2-6 3-6z" fill="#FDC5A8"/>
<path transform="translate(665,1208)" d="m0 0h3l3 3 3 1 1 6h-23l-2-4 5 1 2-1 1-5 4 1z" fill="#ECEAEE"/>
<path transform="translate(635,1139)" d="m0 0 1 4-1 8-4 14-4 16-2 4-3 1 1-8 8-29 2-8h2z" fill="#3E2C3D"/>
<path transform="translate(816,773)" d="m0 0h11v3h-8l-7 2-2 7 1 9 3 4 3 1h11v3h-14l-6-5-2-6v-7l4-8z" fill="#495E82"/>
<path transform="translate(722,828)" d="m0 0 1 4-6 22-7 24-3 12-1 9-4 1v-4l2-4 4-17 11-40z" fill="#6D4649"/>
<path transform="translate(1140,556)" d="m0 0 10 1 7 7-1 1h-25l1-3h3l1-4z" fill="#FAF0E7"/>
<path transform="translate(1198,416)" d="m0 0 2 2-1 9-7 25h-3l-1-4 3-13 1-5 3-10z" fill="#3E354D"/>
<path transform="translate(1050,456)" d="m0 0 2 1-2 9-2 3h125v1h-127z" fill="#DAD5D6"/>
<path transform="translate(588,897)" d="m0 0 2 2 2 16v8h-9l-1-2 3-18 2-3z" fill="#F15F60"/>
<path transform="translate(755,522)" d="m0 0h21l1 3h-9l-1 23-1 5h-3v-28l-8-1z" fill="#577AA3"/>
<path transform="translate(1021,556)" d="m0 0 6 1 4 4v4l4 1h-24l4-6 3-3z" fill="#D6D3D6"/>
<path transform="translate(1176,1166)" d="m0 0h3l2 8 1 7 5-10h3l-1 5-5 10-4 1-2-6v-10l-2 1-4 10-3-1 1-4h2l2-9z" fill="#D64950"/>
<path transform="translate(1161,551)" d="m0 0 5 1 3 5 2-3 1 5-2 2-1 4h-7l-9-12z" fill="#FAF0E6"/>
<path transform="translate(941,569)" d="m0 0h2l-1 7-3 7-4 5-6 5-13 1-1-2 12-5 9-8z" fill="#3E3249"/>
<path transform="translate(1030,131)" d="m0 0h21v1l-26 2-30 5-30 7-7 2-4-1 36-10 2-1z" fill="#FEF3E8"/>
<path transform="translate(650,718)" d="m0 0h96l-1 7h-1v-5h-38l-56-1z" fill="#DBD6D6"/>
<path transform="translate(1294,551)" d="m0 0 7 3 3 4 1 4-3 1v2l-2-1-2-2-4-2-11-1v-3l4-2z" fill="#E4DCD7"/>
<path transform="translate(1135,1148)" d="m0 0 5 2 13 5-2 6-4 10h-3l1-6 4-8-4-1v-2l-3 1-6 12h-2l1-6 2-4v-5z" fill="#E66060"/>
<path transform="translate(483,1231)" d="m0 0h1v9l-6 21-3 12-3 1 1-8 1-4 3-11v-7l2-8h2v-3h2z" fill="#3E2E40"/>
<path transform="translate(659,524)" d="m0 0h3l1 9 6 2 5 4 1 7-4 5-8 1-6-2v-2h11l3-2-1-6-9-5-2-2-1-7z" fill="#526EA6"/>
<path transform="translate(1075,972)" d="m0 0h51l6 1v1l-6 1h-27l-25-1z" fill="#EAE0D6"/>
<path transform="translate(1159,984)" d="m0 0 2 1-1 7 3 1-2 9-1 4h-3l-1 2-2-4-4 4 2-9z" fill="#FDEDDE"/>
<path transform="translate(963,889)" d="m0 0h1l1 9v23l1 2h-2v34h-2v-34l-4-1h4v-26z" fill="#D1D2DA"/>
<path transform="translate(779,593)" d="m0 0 3 1-1 12-5 19-2 1-1 5-3 1 2-11 7-25z" fill="#3E2C3E"/>
<path transform="translate(442,563)" d="m0 0h3l12 36v3l-11-1v-5l3 3 4 1-6-18-1-4-4-12z" fill="#3C2E45"/>
<path transform="translate(1168,552)" d="m0 0h5l2 3 1 3 8-6h4l-1 3-9 5-3 3-3-1-1 2 2 2h-13l-5-8 4 1 3 5 7 1v-5l3-1-1-3-2 2-2-2z" fill="#D7D4D6"/>
<path transform="translate(789,344)" d="m0 0h2l2 11v9l-1 8-2 1v-2h-2l-2-25h3z" fill="#F9EFE4"/>
<path transform="translate(691,456)" d="m0 0h1v10l30-1 4-2h8l2 2 24 1v-10h1v11h-70z" fill="#403E5C"/>
<path transform="translate(709,522)" d="m0 0h3v27h14l-1 3h-16z" fill="#526EAA"/>
<path transform="translate(401,1100)" d="m0 0 5 5 3 6 5 20-1 3-3-4-10-27z" fill="#423B55"/>
<path transform="translate(1123,1070)" d="m0 0h6l-1 6 6 3-3 2h-2v2l6 2 1 2-7-2-8-4-2-2 1-6z" fill="#FEEDDE"/>
<path transform="translate(1326,743)" d="m0 0 1 3-10 28-6 16-1-4-1-9 2-5 3-2h3l2-9 6-17z" fill="#43507F"/>
<path transform="translate(1198,183)" d="m0 0h6v2l-8 1-1 3 1 3h10v2l-10 1 1 7 5 1 8-1-1 2-7 2h-7l-3-13v-8z" fill="#F15F60"/>
<path transform="translate(484,804)" d="m0 0h38l3 4-40-1z" fill="#ECE4DE"/>
<path transform="translate(616,1239)" d="m0 0h1l-1 10-6 23-2 6h-3l1-8 7-24z" fill="#3E2C3E"/>
<path transform="translate(802,841)" d="m0 0h19l4 4v2l-24-1z" fill="#FAF9FA"/>
<path transform="translate(1161,191)" d="m0 0 4 1 11 16-1 3-6-5-6 1-1-2 7-1-5-9-2-1-1 12-2 8-4-1 2-5z" fill="#EC5B5D"/>
<path transform="translate(631,1189)" d="m0 0 1 2h37l5 1v1l-7 1h-31l-5-1z" fill="#E9DFD6"/>
<path transform="translate(624,1195)" d="m0 0h2v6l-5 13-2 9-4 12h-2l3-15 4-15z" fill="#6E4547"/>
<path transform="translate(699,900)" d="m0 0h2l-1 8-3 8-2 10-3 8h-2l1-9 6-24z" fill="#3B2B3E"/>
<path transform="translate(910,1183)" d="m0 0h11l-1 10-1 1h-8l-1-2z" fill="#F9EEE4"/>
<path transform="translate(1160,1162)" d="m0 0 5 2 1 1v7l-4 3-4-1-3-3v-5z" fill="#FEECDD"/>
<path transform="translate(679,992)" d="m0 0h1v17l-4 13-4 1-1-3 2-5z" fill="#3F364D"/>
<path transform="translate(545,751)" d="m0 0h1l1 15-1 14h-1l-1-23h-2l-1 7-3 3-2 5v8l2 7-1 4-4-13 1-10 4-4 4-9z" fill="#FBDBBE"/>
<path transform="translate(1130,197)" d="m0 0 3 1v2l-8 1-1 4v2l8 1 4 2 1 6-5 5h-7l-1-3 9-1v-5l-7-2-4-2-1-2v-6z" fill="#EB5A5C"/>
<path transform="translate(1420,881)" d="m0 0 11 2 6 2v1h-7l-7-2-4 2-1 2h-2l-2 4-9 10-15 15-2-1 18-18 6-8 5-5z" fill="#FEF3E8"/>
<path transform="translate(621,857)" d="m0 0 2 4v25h31v1h-31v12h-1l-1-9-1-25z" fill="#EAD1C4"/>
<path transform="translate(746,921)" d="m0 0 3 1v34l2 2h-58v-1h54v-34l-2-1z" fill="#E7DED6"/>
<path transform="translate(695,748)" d="m0 0 1 4 6 5-3 1-8-1-15 5-16 1-3-2 16-1 11-3z" fill="#EFE2D4"/>
<path transform="translate(691,522)" d="m0 0 3 1 9 26v3l-4-1-2-8-11-2v-1h10l-4-11z" fill="#4C6293"/>
<path transform="translate(869,200)" d="m0 0 3 1v24h12v2h-15z" fill="#4F6A91"/>
<path transform="translate(1122,1144)" d="m0 0 8 1 3 2-1 3-5-2-4 1-2 2v6l1 1 7 1-1 3-7-1-4-3v-7l4-6z" fill="#EE5D5E"/>
<path transform="translate(698,930)" d="m0 0h1l-1 10-7 26-4-1 2-9 3-7 3-9z" fill="#3E374E"/>
<path transform="translate(1283,559)" d="m0 0h11l7 4-1 2h-22z" fill="#FBF1E8"/>
<path transform="translate(621,736)" d="m0 0 5 2 8 11-1 2-7-3-3-1v15h-1z" fill="#ECE1D7"/>
<path transform="translate(615,661)" d="m0 0h2l1 6v8l-1 4-5 1-1-6 1-12z" fill="#EADED5"/>
<path transform="translate(1128,1055)" d="m0 0 3 1v3h2l1 4-4 8h-8l3-9z" fill="#EFE0D3"/>
<path transform="translate(865,841)" d="m0 0h23v1l-20 1-1 3 22 1-3 3h-16l-2-1-2 2-2-9z" fill="#E9E5E8"/>
<path transform="translate(999,545)" d="m0 0 24 1 2 1 11 1v1l-8 2h-11v-2l-11-1-9 1z" fill="#C2CEE7"/>
<path transform="translate(729,522)" d="m0 0h3l1 22 1 6 2 1-4-1-3-5-1-6v-13z" fill="#4B6390"/>
<path transform="translate(594,1033)" d="m0 0h20l1 2-1 2-4 1-16 1z" fill="#FDC5A7"/>
<path transform="translate(584,922)" d="m0 0 8 1 1 8v7h-1v-6h-9l-2-1 1-6z" fill="#5F889A"/>
<path transform="translate(775,626)" d="m0 0h1l-1 11-1 4-4 15-2 5-2 8-2 5h-1l1-10 4-10 1-8z" fill="#6E4547"/>
<path transform="translate(785,590)" d="m0 0 2 1-2 9-7 24-2 2-1-2 5-18 1-12-1-2z" fill="#69454B"/>
<path transform="translate(777,300)" d="m0 0 5 2 9 10 8 14 1 3-3-1-8-13-5-5-4-3v-2l-3-1z" fill="#3C334B"/>
<path transform="translate(683,957)" d="m0 0h1v12l-5 19-3-4 1-8 5-17z" fill="#3B3149"/>
<path transform="translate(742,803)" d="m0 0h22v4l-12 1-16-1v-1h7z" fill="#ECE1D7"/>
<path transform="translate(621,661)" d="m0 0 2 3 2 6-3 9-5 8-7 1 2-1 2-4 3-8h2l1-8 2 3z" fill="#D46669"/>
<path transform="translate(636,631)" d="m0 0h1v11l-4 13-1 2h-3l1-10 4-13z" fill="#3A2F46"/>
<path transform="translate(411,491)" d="m0 0h2l8 23 4 14-1 3-4-10-5-14-4-11z" fill="#382C43"/>
<path transform="translate(1099,1135)" d="m0 0 4 1 3 4v6l-4 2-6-1 1-7z" fill="#FDE5D3"/>
<path transform="translate(429,520)" d="m0 0 2 1 13 39v3l-3-1-6-19-6-20z" fill="#3C354F"/>
<path transform="translate(724,420)" d="m0 0h6v5l3 2-4 2h-4v-2l-7 3-3 9h-1v-10l2-3 8-1z" fill="#413F5C"/>
<path transform="translate(864,1273)" d="m0 0h26v3l-14 4-3 1v-6l-9-1z" fill="#F3EBE7"/>
<path transform="translate(1093,1063)" d="m0 0 2 4-5 11-8 17-6 13-1-2h-6v-1l6-1 15-33z" fill="#E1DAD6"/>
<path transform="translate(585,359)" d="m0 0 2 1 3 7v3h-12l-3-4v-3h8l2-2z" fill="#FEE7D6"/>
<path transform="translate(666,1036)" d="m0 0h2l1 6h-2l-1 9-1 4-5 12v2h-2l1-10 3-11z" fill="#6E4547"/>
<path transform="translate(875,774)" d="m0 0 11 1v1l-10 2-3 5v10l1 4h-3l-3-6 1-9 4-7z" fill="#5677A5"/>
<path transform="translate(1183,556)" d="m0 0 1 2 4 1 2 5-1 1h-15l2-4 5-4z" fill="#FCF2E8"/>
<path transform="translate(641,1143)" d="m0 0h1v8l-7 26-3-3 4-16 2-5 2-9z" fill="#493240"/>
<path transform="translate(839,201)" d="m0 0h3v26h-3l1-12h-13l2-3h11z" fill="#5473A7"/>
<path transform="translate(499,1141)" d="m0 0h1v10l-4 15-2 5-3 1 2-11 5-19z" fill="#402D3D"/>
<path transform="translate(1196,195)" d="m0 0h6l8 5v2l-8 2-5-1-1-1z" fill="#FEE8D9"/>
<path transform="translate(1242,1239)" d="m0 0 1 3h5l-2 1-3 9-7 9-2-2 6-14z" fill="#E4E3E9"/>
<path transform="translate(440,911)" d="m0 0 3 1-12 4h-15l-11-3 4-1h28z" fill="#FEE3D1"/>
<path transform="translate(853,776)" d="m0 0 2 2 3 10-1 3h-9l1-5 3-9z" fill="#C3CEE6"/>
<path transform="translate(834,773)" d="m0 0h3v30h-4v-29z" fill="#597CA1"/>
<path transform="translate(743,298)" d="m0 0 9 2 7 3-4 3-5 1-9-3z" fill="#F8E6C9"/>
<path transform="translate(593,626)" d="m0 0h7v1l-13 3-6 4-9 17h-1v-6h2l1-7 4-6 7-4 1-1z" fill="#FAA994"/>
<path transform="translate(1223,1187)" d="m0 0h3l1 7 9-3v3l-8 5-3 6h-3l1-5 1-6z" fill="#E9595B"/>
<path transform="translate(673,938)" d="m0 0 8 2h6v2h-59v-1l37-1 7-1z" fill="#6E4547"/>
<path transform="translate(922,573)" d="m0 0h2l-2 4-4 4h-2l-2 4-4 4-1 4 3 1-4 1-3-4 1-4 10-9z" fill="#3B324B"/>
<path transform="translate(1109,552)" d="m0 0h6 3l4 1v5l-5 1-2-2v-2h-7v2l-8 5v-3l4-5z" fill="#B3B9CC"/>
<path transform="translate(410,1093)" d="m0 0 2 3 7 18-1 4h-2l-4-8-3-9v-6z" fill="#3E364D"/>
<path transform="translate(1280,874)" d="m0 0 2 1-2 9-4 12-1-2h-2l-1-3 3-8 4-8z" fill="#413A53"/>
<path transform="translate(756,683)" d="m0 0h4v5l-3 8-3 6-3 1 1-8 3-11z" fill="#3B3249"/>
<path transform="translate(1140,956)" d="m0 0 1 3-10 25-6 14h-2l1-5 12-28z" fill="#E0D9D6"/>
<path transform="translate(917,921)" d="m0 0 7 1 4 5v5l-3 5-9 2-3-1-2-3v-9zm2 1-5 3-2 6 2 5 7 1 5-5 1-3-3-5z" fill="#EA585B"/>
<path transform="translate(690,525)" d="m0 0 2 1 4 11v3h-9l2-14z" fill="#F0EAE8"/>
<path transform="translate(636,642)" d="m0 0 2 1-3 16-2 5 1 11-5-4v-6l2-6z" fill="#6E4547"/>
<path transform="translate(1358,544)" d="m0 0h2v8h8l-1 5-8 1v8h-1l-1-20z" fill="#DAD5D5"/>
<path transform="translate(771,423)" d="m0 0 1 2 2 1-11 7-12 5h-2v-2l4-1 1-3 5-2 6-2h2v-3z" fill="#423E5A"/>
<path transform="translate(939,283)" d="m0 0 2 1-3 5v6h-2l-1 8-4 2v-8l3-9z" fill="#423A53"/>
<path transform="translate(1198,1177)" d="m0 0 4 1v17h-3v-9l-1-5-3 1v2l-4 1-1 3-3-1 8-8z" fill="#C13743"/>
<path transform="translate(828,1049)" d="m0 0 39 1-2 2h-38z" fill="#ECE1D7"/>
<path transform="translate(777,243)" d="m0 0 2 1-17 16-12 12-2-1 10-11 4-5 4-3h2l1-3z" fill="#FEF3E8"/>
<path transform="translate(610,1037)" d="m0 0 4 1-3 4-18 1 1-4 2-1z" fill="#FCE0C1"/>
<path transform="translate(1358,569)" d="m0 0 2 1 1 8 7-1 1 5-5 3-5-1z" fill="#E0D9D6"/>
<path transform="translate(932,477)" d="m0 0h1v26l-1 14-2 1-1-10-8 8v-3l8-8h2z" fill="#F8D9C6"/>
<path transform="translate(888,200)" d="m0 0h2v25h12v2h-14l-1-26z" fill="#4F6AA2"/>
<path transform="translate(665,1054)" d="m0 0h2l-1 8-4 15h-2v-6l-1-4 5-12z" fill="#453E57"/>
<path transform="translate(975,353)" d="m0 0 1 2-9 25-3 12h-2l1-9 2-4 2-8 6-15z" fill="#D5D4D9"/>
<path transform="translate(1013,199)" d="m0 0h5l-4 2-8 3-6 5h-2l1 16h-1l-2-11v-8l5-4z" fill="#FEF3E8"/>
<path transform="translate(1187,185)" d="m0 0v3l-7 1 3 8 2 12-3-1-4-18h-7l1-2z" fill="#F15F60"/>
<path transform="translate(785,340)" d="m0 0 5 1-1 5h-3l1 4v20h-2v-19l-2-1 1-5-1-4z" fill="#DCD3CA"/>
<path transform="translate(618,652)" d="m0 0 2 4 3 15-2-1-2 8h-1l-2-20z" fill="#AE323E"/>
<path transform="translate(1238,547)" d="m0 0h24v2l3 2-9 2-4-2v-2h-15z" fill="#E3DBD6"/>
<path transform="translate(1107,548)" d="m0 0h29v1h-12l-1 3-1 1-6 1-6-2v-3z" fill="#EBE9EE"/>
<path transform="translate(1049,213)" d="m0 0h3v2l-6 2 2 13 1 6-3 1-3-15v-4h-8l3-2z" fill="#EC5B5D"/>
<path transform="translate(648,1121)" d="m0 0 1 3-6 23-2-3-1 2-2-1 6-16z" fill="#41354A"/>
<path transform="translate(427,539)" d="m0 0 3 4 4 10 2 7v9l-2-3-7-21z" fill="#3B344E"/>
<path transform="translate(1458,545)" d="m0 0 5 1v7l-3-3-13 7-6 3 2-4 10-6z" fill="#FEECDF"/>
<path transform="translate(1061,213)" d="m0 0h5l2 2-1 5-3 2h-5l-1-1 1-7z" fill="#FDEEE5"/>
<path transform="translate(1264,1188)" d="m0 0 1 3-4 9-12 29-3 2 1-5 9-20 7-17z" fill="#D8D3D3"/>
<path transform="translate(1187,1171)" d="m0 0h3l-1 5-5 10-4 1-1-5 1-8h1l1 7z" fill="#E75659"/>
<path transform="translate(268,865)" d="m0 0 5 1 12 4 10 3 12 5 9 4-3 1-15-6-26-9z" fill="#FEF3E8"/>
<path transform="translate(393,634)" d="m0 0 11 4-3 3-15 6-3-1 8-4 3-5z" fill="#FEEFE1"/>
<path transform="translate(474,1274)" d="m0 0h7l1 4-3 4h-3l-1 2-2-1-1 2-1-3z" fill="#EAE8EB"/>
<path transform="translate(382,859)" d="m0 0 3 1v4h2v2l8 4 13 1-3 2h-11l-7-3-5-8z" fill="#FEE1CD"/>
<path transform="translate(896,600)" d="m0 0h3l1 2 8 3v2l-6 2h-6l-2-5z" fill="#3B2B3E"/>
<path transform="translate(1050,1169)" d="m0 0 2 1v2l3-1-3 9-2 3-1-3h-3l-1-6 1-2h3z" fill="#EEE0D5"/>
<path transform="translate(426,1136)" d="m0 0 3 3-1 3-9 3h-3l-1-8 9 2v-2z" fill="#3B2D41"/>
<path transform="translate(728,817)" d="m0 0h1v7l-4 15-2 1-1-8 4-12z" fill="#40374E"/>
<path transform="translate(1089,558)" d="m0 0h1v7l6-1 3-3 4-1 1 4 24 1v1h-39z" fill="#DFD9D7"/>
<path transform="translate(1343,215)" d="m0 0 5 2 11 8 9 7 7 7h-3l-12-10-17-13z" fill="#FEF3E8"/>
<path transform="translate(626,1201)" d="m0 0h1v7l-4 15-3-2v-7l5-12z" fill="#423B54"/>
<path transform="translate(671,382)" d="m0 0 2 3 6 10 8 8h-3l-5-5-7-8-4-1-1 3h-2l2-6 4-2z" fill="#F5ECE5"/>
<path transform="translate(603,1270)" d="m0 0h3l-1 8h2l-1 7-7-2 3-12z" fill="#3D354D"/>
<path transform="translate(913,200)" d="m0 0 7 1 5 4 2 4v8l-2 3v-2l-2-1-1-9-4-4v-2h-5z" fill="#4E6894"/>
<path transform="translate(746,754)" d="m0 0 1 2-5 19-3 3v-5l2-4v-10l-2-1v-2z" fill="#423B54"/>
<path transform="translate(696,360)" d="m0 0 1 3h2l5 5-1 4-5-1-5-3-1-4 4-2z" fill="#F8EEE4"/>
<path transform="translate(1098,1132)" d="m0 0 4 2-3 1-3 12 2 1v2l-5-1-1-5 3-7z" fill="#E55758"/>
<path transform="translate(730,296)" d="m0 0h7l6 2v5l-12-2-2-1z" fill="#F9EEE4"/>
<path transform="translate(1055,554)" d="m0 0h2l4 5 3 4v2h19v1h-30v-1l6-1v-3h-2z" fill="#E1DAD6"/>
<path transform="translate(609,1273)" d="m0 0 7 1-1 6-4 3h-5l2-9z" fill="#EAE7EA"/>
<path transform="translate(570,1188)" d="m0 0h51l-1 5-1-3-49-1z" fill="#6E4547"/>
<path transform="translate(619,976)" d="m0 0h1v17l-2 20-2-1 1-22z" fill="#DBD6D6"/>
<path transform="translate(1143,551)" d="m0 0 7 1 5 3-1 3-1-2v3l-1 2-2-4-4 1-4-2z" fill="#D6D3D6"/>
<path transform="translate(1294,1047)" d="m0 0h6l1 7-2 5-6-2 1-5 2-4z" fill="#FDF0E3"/>
<path transform="translate(1178,920)" d="m0 0 5 1-1 2h-3l1 5v18h-2v-23h-14v-1z" fill="#D9D0D1"/>
<path transform="translate(1162,194)" d="m0 0 3 1 4 6v3l-6 2h-3z" fill="#FDEBE0"/>
<path transform="translate(469,1133)" d="m0 0 6 1 9 4 10 1v1h-19l-3-1z" fill="#F4EBE2"/>
<path transform="translate(1158,804)" d="m0 0h21l-1 3h-21z" fill="#ECE1D7"/>
<path transform="translate(1488,558)" d="m0 0 3 3 17 28-1 3v-2h-2l-6-11v-2l-2-1-8-14z" fill="#FEF3E8"/>
<path transform="translate(621,1220)" d="m0 0h1v7l-3 9h-3l-1-4 4-10z" fill="#3C354E"/>
<path transform="translate(628,1167)" d="m0 0h1v7l-3 10-4 2 1-8 3-10z" fill="#3C2D40"/>
<path transform="translate(894,926)" d="m0 0 4 1-1 6 3-3 1-2h4l-1 5-4 2h-6z" fill="#FEDCBA"/>
<path transform="translate(1289,553)" d="m0 0 9 4 1 2-5 1-11-1v-3l4-2z" fill="#D6D3D6"/>
<path transform="translate(720,414)" d="m0 0h15v1l-10 1-3 2 7 1v1l-7 1-12-2v-1h5v-2z" fill="#DFD8D6"/>
<path transform="translate(1082,211)" d="m0 0 4 2 3 5v3l-7 1-1-1v-7z" fill="#FEECE2"/>
<path transform="translate(1437,886)" d="m0 0 9 2 7 2 1-2-1 5-4 2h-2v-3l-10-4z" fill="#FEEBD9"/>
<path transform="translate(1018,321)" d="m0 0 12 3 2 2 1 5-9-3v-2l-5-2z" fill="#453B51"/>
<path transform="translate(1081,209)" d="m0 0 3 1-2 1v10l5 1v2l-6 1-2 5h-2l2-16z" fill="#F15F60"/>
<path transform="translate(1198,1180)" d="m0 0h1l1 11-1-2h-5v-2l-3 2h-5l-1-2h5l3-3h2v-2z" fill="#F1887D"/>
<path transform="translate(647,614)" d="m0 0h1v7l-4 13-2 2v-8l3-12z" fill="#3E2B3C"/>
<path transform="translate(1161,191)" d="m0 0 4 1 1 3-4-1-1 12-2 8-4-1 2-5z" fill="#D94A50"/>
<path transform="translate(963,889)" d="m0 0h1l1 9v23l1 2-4-1v-26z" fill="#FDC5A8"/>
<path transform="translate(728,294)" d="m0 0 10 1 2 2-10-1v6h-7l1-7z" fill="#474360"/>
<path transform="translate(478,1252)" d="m0 0h1l-1 9-3 12-3 1 1-8 1-4 3-9z" fill="#412E3E"/>
<path transform="translate(679,1009)" d="m0 0 2 2h23l-2 2-17 1-6-1z" fill="#E2DBD6"/>
<path transform="translate(1153 1e3)" d="m0 0 3 2v3h-2l-2 5-5 3-1-3 3-7h2z" fill="#EDE0D4"/>
<path transform="translate(1228,726)" d="m0 0 2 1-5 6h2l2 4 2 2h-7l-3-2 1-5z" fill="#FDECDE"/>
<path transform="translate(1283,1074)" d="m0 0 4 5h3v3h-2v5l-3-1v-3h-2l-1 2h-2z" fill="#F3DDCD"/>
<path transform="translate(704,882)" d="m0 0 2 1-1 9-3 5h-2v-7l3-7z" fill="#3A2B3E"/>
<path transform="translate(1031,326)" d="m0 0 4 1 6 8 1 4-5-2-6-9z" fill="#3C3148"/>
<path transform="translate(1037,1195)" d="m0 0 1 3-2 11h3l2-6 1 3-2 7-6-3v-9z" fill="#EFD9C8"/>
<path transform="translate(1139,195)" d="m0 0 2 1 4 18 1 3-4-1-3-14z" fill="#E65559"/>
<path transform="translate(1159,1159)" d="m0 0 6 1-1 3-6 1-2 2-1 5-3 1v-6l3-5z" fill="#EA595C"/>
<path transform="translate(639,1119)" d="m0 0h1v7l-2 12-1 9-2-4-1-5z" fill="#4B3849"/>
<path transform="translate(689,964)" d="m0 0h1v7l-4 7-2-1 1-8 2-4z" fill="#3B3148"/>
<path transform="translate(746,921)" d="m0 0 3 1v34l2 2h-5l1-35-2-1z" fill="#D8D2D3"/>
<path transform="translate(946,898)" d="m0 0 4 1 3 6v8l-1 2h-2l-2-13-3-3z" fill="#412B3D"/>
<path transform="translate(899,896)" d="m0 0h37v1h-20l-2 7-2-1 2-6h-15z" fill="#DBD6D6"/>
<path transform="translate(519,804)" d="m0 0 4 1 2 3-10-1-28-1v-1z" fill="#DED8D6"/>
<path transform="translate(810,794)" d="m0 0 4 4 3 1h11v3h-14l-6-5 1-2z" fill="#475B82"/>
<path transform="translate(626,693)" d="m0 0h2l-1 7-4 16h-1v-8l1-5 1-8z" fill="#433B54"/>
<path transform="translate(1262,546)" d="m0 0h7l1 3-1 7-4-3-6-1 2-3z" fill="#EAE6E8"/>
<path transform="translate(864,1285)" d="m0 0 1 2 32 1v1l-22 1-1 1h-6l-4-3z" fill="#ECE6E3"/>
<path transform="translate(1115,1139)" d="m0 0h2l-1 6-4 11-4-1z" fill="#C13441"/>
<path transform="translate(528,1030)" d="m0 0 11 3 4 2-9 1h-7l-1 2-1-2z" fill="#FBB79F"/>
<path transform="translate(1185,427)" d="m0 0 2 4-1 4h-2l-1 9-3 1 1-9 2-8z" fill="#393049"/>
<path transform="translate(533,1059)" d="m0 0 10 2 9 2 7 1v2h-9l-11-3-6-3z" fill="#3D354C"/>
<path transform="translate(1121,1016)" d="m0 0 1 3-4 8h-2l-2-3 1-5 1-2h4z" fill="#FBF1E6"/>
<path transform="translate(1122,998)" d="m0 0h2l-3 9-7 16h-2l1-5 4-9z" fill="#D2CFD2"/>
<path transform="translate(923,218)" d="m0 0h2l-1 5-5 4h-9l-2-3 2-1 7 1 5-4z" fill="#5371A1"/>
<path transform="translate(859,785)" d="m0 0 2 3 5 13v2l-4-1-4-10z" fill="#5574A1"/>
<path transform="translate(759,673)" d="m0 0 1 4h-2v2h-11l-4 1-2-2 5-2 13-1z" fill="#3B3249"/>
<path transform="translate(1150,1156)" d="m0 0h2l-1 5-4 10h-3l1-6z" fill="#CA4048"/>
<path transform="translate(593,1008)" d="m0 0 1 4v2l-21-1v-2h20z" fill="#ECE1D7"/>
<path transform="translate(868,842)" d="m0 0h11l-2 4-11 1 1-4z" fill="#FEFCFC"/>
<path transform="translate(442,563)" d="m0 0h3l5 15v2l-4-2-4-12z" fill="#3A3048"/>
<path transform="translate(644,1100)" d="m0 0 3 6-3 6-3 11h-1v-7z" fill="#3F364E"/>
<path transform="translate(914,875)" d="m0 0h9l6 3 5 6 1 4-9-9-2-1-10-1z" fill="#43364C"/>
<path transform="translate(751,709)" d="m0 0h1l-1 8-4 10h-2l1-9 2-7 2 1z" fill="#443D57"/>
<path transform="translate(1422,551)" d="m0 0h2l1 6 2 1-4 1-1-1h-10l5-4z" fill="#FCF0E5"/>
<path transform="translate(1048,544)" d="m0 0 1 2h2v2h2l1 3-4-1-13-1v-3h11z" fill="#C2CEE7"/>
<path transform="translate(1133,209)" d="m0 0 3 1 1 6-5 5h-7l-1-3 9-1v-5z" fill="#F15F60"/>
<path transform="translate(902,1078)" d="m0 0h1l1 14-5-2 1-8z" fill="#393149"/>
<path transform="translate(1148,940)" d="m0 0h2l-2 8-3 7-4 3 1-6z" fill="#F6ECE3"/>
<path transform="translate(580,930)" d="m0 0 2 2v3l5 1v3h-6l-1 2 4 1-6 1z" fill="#6E4547"/>
<path transform="translate(1420,881)" d="m0 0 11 2 6 2v1h-7l-7-2-4 2-1 2-3-1z" fill="#FEEDDB"/>
<path transform="translate(1185,548)" d="m0 0h11v2l-5 2-8 1-2-1v-2z" fill="#ECE6E5"/>
<path transform="translate(716,426)" d="m0 0h8l-2 3-4 1-3 9h-1v-10z" fill="#494664"/>
<path transform="translate(620,945)" d="m0 0h1l1 13v11l-1 6-2-3z" fill="#DED8D6"/>
<path transform="translate(704,899)" d="m0 0h3v7l-3 12-2 1v-9h2z" fill="#412E3F"/>
<path transform="translate(722,828)" d="m0 0 1 4-5 17h-2l1-7 4-13z" fill="#6E4547"/>
<path transform="translate(485,599)" d="m0 0 8 2v1l-36-1v-1z" fill="#F7E4D9"/>
<path transform="translate(556,636)" d="m0 0h12l-2 4v-2h-28v-1z" fill="#FDCDAE"/>
<path transform="translate(691,522)" d="m0 0 3 1 4 11-1 4-3-3-3-11z" fill="#4C6497"/>
<path transform="translate(876,1070)" d="m0 0 2 3 7 11 1 2-4-2-5-4-2-4v-5z" fill="#3F3852"/>
<path transform="translate(716,862)" d="m0 0h1v7l-2 4h-2l-2 1 1-7 2-4z" fill="#3B3249"/>
<path transform="translate(905,1274)" d="m0 0h14v3l-5 3-2-1v-3l-5 1-2 1z" fill="#FEF2E6"/>
<path transform="translate(1044,1176)" d="m0 0h1v9l-3 3-2 5h-2l1-5z" fill="#EBE0D6"/>
<path transform="translate(1256,1133)" d="m0 0h5l3 4v2l-9-1-1-2z" fill="#FCF1E5"/>
<path transform="translate(508,1110)" d="m0 0 1 2-6 22h-1l1-9 3-12z" fill="#41364B"/>
<path transform="translate(1286,1071)" d="m0 0 1 2h5l-1 5-3 1-2 3-2-3 1-6z" fill="#FEF2E5"/>
<path transform="translate(852,773)" d="m0 0h4l3 8v7h-2l-3-10v-3h-2z" fill="#4A5F88"/>
<path transform="translate(948,461)" d="m0 0h2v2l-6 3-8 7h-2l2-5 9-6z" fill="#FEE3D1"/>
<path transform="translate(725,415)" d="m0 0h8l-1 4-3 1-9-2 3-2z" fill="#FEF3E8"/>
<path transform="translate(762,289)" d="m0 0 11 6 5 5-2 1-6-4-8-6z" fill="#46405A"/>
<path transform="translate(1242,256)" d="m0 0 2 1-3 12-2 3-1-1 1-10z" fill="#3B344C"/>
<path transform="translate(616,1239)" d="m0 0h1l-1 10-2 7-2-2 1-8z" fill="#422E3E"/>
<path transform="translate(676,1213)" d="m0 0 2 1 2 5h-27v-1h22z" fill="#ECE1D7"/>
<path transform="translate(521,1054)" d="m0 0 10 1v2l-4 1-2-1-2 4-2 3v-5l-1-2z" fill="#403952"/>
<path transform="translate(1103,1043)" d="m0 0 1 3-7 14-2 5-1-4 8-16z" fill="#D3D0D3"/>
<path transform="translate(938,895)" d="m0 0 9 2v1h-31v-1l20-1z" fill="#526EAB"/>
<path transform="translate(1198,1177)" d="m0 0h2v7l-2-3-3 1v2l-4 1-1 3-3-1 8-8z" fill="#C63944"/>
<path transform="translate(661,1048)" d="m0 0 2 2-4 11-3-3 1-7 2 1z" fill="#3F3851"/>
<path transform="translate(1130,979)" d="m0 0h2l-1 5-6 14h-2l1-5z" fill="#DAD5D5"/>
<path transform="translate(904,926)" d="m0 0 4 3-2 4-3 3-8 1-1 2-1-5h7l4-2z" fill="#EB5C5E"/>
<path transform="translate(873,797)" d="m0 0 5 2h10l-1 3-7 1-5-2z" fill="#4C638E"/>
<path transform="translate(1325,748)" d="m0 0 3 4-1 2 1 3-4 4h-2l1-7z" fill="#3D354C"/>
<path transform="translate(1232,1128)" d="m0 0 8 1 14 7-2 1-20-8z" fill="#F1E3D2"/>
<path transform="translate(816,773)" d="m0 0h11v3h-8l-7 2-1-3z" fill="#475B81"/>
<path transform="translate(1262,744)" d="m0 0m-4 1h4v2l-12 7v-3l6-5z" fill="#FEEFE2"/>
<path transform="translate(520,360)" d="m0 0h1v5h2l1 3 5 1v1h-10l-1-5z" fill="#FBE4D4"/>
<path transform="translate(621,1199)" d="m0 0 1 3-3 9-3-2 1-8z" fill="#3C3148"/>
<path transform="translate(909,973)" d="m0 0 1 4-22 2 1-2 19-3z" fill="#FEDBBA"/>
<path transform="translate(698,930)" d="m0 0h1l-1 10-3 8h-2l1-7 2-3z" fill="#44364A"/>
<path transform="translate(877,773)" d="m0 0h10l5 4-1 4-5-5-9-1z" fill="#435378"/>
<path transform="translate(649,592)" d="m0 0 3 1-3 11-2 5-1-3 1-9h2l-1-4z" fill="#6E4547"/>
<path transform="translate(788,588)" d="m0 0h3l-1 6-1 5-4 1 1-9z" fill="#3D354E"/>
<path transform="translate(904,1273)" d="m0 0h20l-4 4-1-3h-14v8h-1l-1-8z" fill="#FED2B3"/>
<path transform="translate(1188,1109)" d="m0 0 7 1 8 4v2l4 1-2 1-17-8z" fill="#F3DDC9"/>
<path transform="translate(359,994)" d="m0 0 4 2 3 8-1 5-2-3-4-10z" fill="#413348"/>
<path transform="translate(587,880)" d="m0 0h1l1 17-2 11h-1v-10l-2-1h2z" fill="#E3ADA4"/>
<path transform="translate(1267,885)" d="m0 0 3 1h-2v7l-1 2-4 1 1-8z" fill="#352D45"/>
<path transform="translate(628,655)" d="m0 0 1 2h3l-1 7-5 2z" fill="#433951"/>
<path transform="translate(645,609)" d="m0 0h1l-1 12-1 3-3-1 1-7z" fill="#563D49"/>
<path transform="translate(1188,415)" d="m0 0 2 4-1 6-4 1 1-9z" fill="#372B42"/>
<path transform="translate(1122,1144)" d="m0 0 8 1 3 2-1 3-5-2v-2l-6 2-2 1 2-4z" fill="#CA3D47"/>
<path transform="translate(1078,1116)" d="m0 0 1 3-6 15-2 1 1-6 4-9z" fill="#ECE1D6"/>
<path transform="translate(540,846)" d="m0 0 5 4h-18l1-2h12z" fill="#EDE0D4"/>
<path transform="translate(728,604)" d="m0 0 4 1-14 11v-3z" fill="#FEE6D6"/>
<path transform="translate(1045,220)" d="m0 0h1l3 16-3 1-2-10z" fill="#F15F60"/>
<path transform="translate(1211,1181)" d="m0 0 6 2 3 4v4h-3l-1-4-4-3z" fill="#D0424B"/>
<path transform="translate(1118,1140)" d="m0 0 8 2-5 4-3 1-2-1 1-4z" fill="#FEEDDD"/>
<path transform="translate(410,1093)" d="m0 0 2 3 5 12v3h-2l-6-16z" fill="#433851"/>
<path transform="translate(937,1027)" d="m0 0h2l-2 6-4 4-7-1-1-2h8z" fill="#FEF0DF"/>
<path transform="translate(685,947)" d="m0 0 2 3v8l-2 7h-1l-1-10z" fill="#44364A"/>
<path transform="translate(534,768)" d="m0 0h1l1 12 2 7-1 4-4-13z" fill="#FEDAB9"/>
<path transform="translate(834,773)" d="m0 0h3l-1 3-1 26h-1l-1-28z" fill="#353956"/>
<path transform="translate(777,624)" d="m0 0 1 4-1 10v5l-2 1-2-6 2-7z" fill="#3D344B"/>
<path transform="translate(644,589)" d="m0 0 4 1 1 7h-2v9h-1z" fill="#3C364F"/>
<path transform="translate(922,573)" d="m0 0h2l-2 4-4 4h-2l-2 4-1-4z" fill="#3E4367"/>
<path transform="translate(1055,452)" d="m0 0h4v2h-2l-1 3-5 2-2-4z" fill="#FAEFE5"/>
<path transform="translate(977,350)" d="m0 0h2l-3 16-3-4 3-11z" fill="#E4E0E3"/>
<path transform="translate(1153,1169)" d="m0 0 1 2h2v2l8 2-1 2h-7l-3-3z" fill="#C63B46"/>
<path transform="translate(1215,1045)" d="m0 0 6 2-2 1-3 10-1-4-1-3z" fill="#F2E3DA"/>
<path transform="translate(1161,984)" d="m0 0h2l1 4v4l-4 2-1-7z" fill="#EBE9ED"/>
<path transform="translate(1285,830)" d="m0 0 1 3-4 12-3 1 3-11z" fill="#3F354D"/>
<path transform="translate(635,659)" d="m0 0 2 1-2 11h-2l-1-7z" fill="#443D56"/>
<path transform="translate(864,1273)" d="m0 0h26v3h-3v-2h-23z" fill="#F3E0CC"/>
<path transform="translate(496,1187)" d="m0 0 8 1-4 6-4-1z" fill="#6B454A"/>
<path transform="translate(1150,1164)" d="m0 0 2 1v8l-5-1 1-6z" fill="#FEEBDB"/>
<path transform="translate(1080,1093)" d="m0 0 2 2-6 13-1-2h-6v-1l6-1z" fill="#E2DBD7"/>
<path transform="translate(649,1093)" d="m0 0 1 3-4 9-2-1 1-8z" fill="#3B3147"/>
<path transform="translate(637,649)" d="m0 0h2l-1 10h-3l1-9z" fill="#3D334B"/>
<path transform="translate(719,321)" d="m0 0h3l-1 5-3 1-2-2-9-1v-1l10-1z" fill="#EEE6DE"/>
<path transform="translate(880,1170)" d="m0 0h1v5l3 1v2l8 1v2l-10-2-3-5z" fill="#443449"/>
<path transform="translate(944,1171)" d="m0 0h7l-3 3-6 4h-2l2-4z" fill="#4B364B"/>
<path transform="translate(1115,1145)" d="m0 0 4 2-2 10h-1v-5h-3l1-4z" fill="#FDD7B7"/>
<path transform="translate(865,841)" d="m0 0h23v1l-20 1-4 2z" fill="#EEECEF"/>
<path transform="translate(1083,543)" d="m0 0 6 1-1 4-2-1-2 7h-1z" fill="#A2ACC8"/>
<path transform="translate(964,388)" d="m0 0 3 1 2 5v3l-5-2-2-3h2z" fill="#ECE8EA"/>
<path transform="translate(729,364)" d="m0 0 4 1v4l-4 2-2-5z" fill="#E9E4E2"/>
<path transform="translate(484,1201)" d="m0 0h1v6h-2v5l-3 1 1-7 1-4z" fill="#3C324B"/>
<path transform="translate(1118,1156)" d="m0 0 4 2 7 1-1 3-7-1-3-2z" fill="#CC3E48"/>
<path transform="translate(401,1070)" d="m0 0 2 3 4 10v2l-3-1-4-10z" fill="#423348"/>
<path transform="translate(529,1035)" d="m0 0h5l1 2 4 2h-11l-1-3z" fill="#F6E8D6"/>
<path transform="translate(763,661)" d="m0 0h1v7l-4 4v-7l1-3z" fill="#3C334B"/>
<path transform="translate(440,581)" d="m0 0h2l4 10-1 5-2-3-3-9z" fill="#3B3857"/>
<path transform="translate(1348,553)" d="m0 0h5v11h-2v-7l-3 1z" fill="#DED8D6"/>
<path transform="translate(1102,1135)" d="m0 0 5 1 2 2v8l-3-2-3-7z" fill="#E45959"/>
<path transform="translate(477,923)" d="m0 0h15v1l-11 2h-5z" fill="#F0E8E2"/>
<path transform="translate(1320,731)" d="m0 0 5 2-1 5h-3l-1-1z" fill="#313151"/>
<path transform="translate(562,688)" d="m0 0 8 1 4-1 1 3-9 1-4-2z" fill="#B82C3B"/>
<path transform="translate(1424,558)" d="m0 0 4 1 1 4-2 4-4-6z" fill="#B82C3B"/>
<path transform="translate(1118,552)" d="m0 0 4 1v5l-5 1-2-2h2z" fill="#CDCED7"/>
<path transform="translate(1184,552)" d="m0 0h4l-1 3-6 3h-3l1-3z" fill="#CFCFD6"/>
<path transform="translate(411,491)" d="m0 0h2l3 9-2 4-3-8z" fill="#3E3146"/>
<path transform="translate(1189,453)" d="m0 0 2 1-3 12h-1l-1-11z" fill="#413B55"/>
<path transform="translate(966,376)" d="m0 0 1 4-3 12h-2l1-9z" fill="#CAD0E2"/>
<path transform="translate(942,175)" d="m0 0 4 1 3 3v7l-4-5z" fill="#FDF2E7"/>
<path transform="translate(491,1175)" d="m0 0 2 4-2 5-3 1v-6z" fill="#35293F"/>
<path transform="translate(1138,1157)" d="m0 0 2 1-2 6-2 3h-2l1-6z" fill="#F15F60"/>
<path transform="translate(641,1143)" d="m0 0h1v8l-1 3h-2l-1 2 1-10z" fill="#3E2C3E"/>
<path transform="translate(248,844)" d="m0 0h2l4 5 2 6v3l-7-10z" fill="#FEF3E8"/>
<path transform="translate(728,817)" d="m0 0h1v7l-1 4h-2l-1-6z" fill="#443950"/>
<path transform="translate(726,792)" d="m0 0 2 4-2 9-2 1-3-2h2z" fill="#413B56"/>
<path transform="translate(631,664)" d="m0 0 2 3 1 8-5-4v-5z" fill="#6D464A"/>
<path transform="translate(774,641)" d="m0 0 2 3-2 11h-1l-1-9z" fill="#453B52"/>
<path transform="translate(715,549)" d="m0 0h11l-1 3h-11z" fill="#5676A5"/>
<path transform="translate(1348,542)" d="m0 0h1v5l3-1v6l-4 1z" fill="#FEF3E8"/>
<path transform="translate(771,423)" d="m0 0 1 2 2 1-8 5v-3l1-3z" fill="#43415F"/>
<path transform="translate(894,926)" d="m0 0 4 1v7h-4z" fill="#FEE9C6"/>
<path transform="translate(1055,554)" d="m0 0h2l4 5 2 4-4 1v-3h-2z" fill="#EBE0D6"/>
<path transform="translate(439,553)" d="m0 0 3 1 2 9-3-1-2-5z" fill="#3B334C"/>
<path transform="translate(1057,211)" d="m0 0h6v1l-8 2-1-2zm-5 2 2 1-1 2-5 2-3 2 1-4 6-1z" fill="#FBE0CF"/>
<path transform="translate(626,1201)" d="m0 0h1v7l-2 3-2-1 1-7z" fill="#443D56"/>
<path transform="translate(1212,1185)" d="m0 0 5 2-1 4-2 1v-2l-3-1z" fill="#FEDDBC"/>
<path transform="translate(635,1166)" d="m0 0h1v8l-2 3-2-3 2-7z" fill="#3D2C3D"/>
<path transform="translate(509,1100)" d="m0 0 3 1-2 9-3 1z" fill="#473C53"/>
<path transform="translate(1151,556)" d="m0 0h4l2 2v2l2 5-3-1-4-5z" fill="#E8DED6"/>
<path transform="translate(1444,538)" d="m0 0 2 1-4 4-9 3 3-3z" fill="#FEF3E8"/>
<path transform="translate(763,522)" d="m0 0h13l1 3h-10v-2z" fill="#5677A5"/>
<path transform="translate(1042,354)" d="m0 0 1 2-4 8-3-1 1-4z" fill="#F7EDE2"/>
<path transform="translate(548,298)" d="m0 0 1 2-1 6-6 5 2-6 3-6z" fill="#FEE7D6"/>
<path transform="translate(910,201)" d="m0 0 8 1v1l-8 2-3 3-1-4z" fill="#5472A8"/>
<path transform="translate(1228,1188)" d="m0 0 5 2-2 4h-4z" fill="#FEEFE3"/>
<path transform="translate(661,1042)" d="m0 0h1v6l-3 5h-1l1-9z" fill="#383049"/>
<path transform="translate(687,975)" d="m0 0 1 3-2 4-1-2-3 8-1-4 3-7h2z" fill="#423850"/>
<path transform="translate(594,959)" d="m0 0 2 4v8l-3 1z" fill="#EBE0D6"/>
<path transform="translate(336,787)" d="m0 0h2v2l-3 1zm-2 3 1 3-2 6-2-4v-3z" fill="#E2DBD9"/>
<path transform="translate(561,651)" d="m0 0 1 3 2 1-2 4h-2l-2 4-1-3 3-5z" fill="#C53E4A"/>
<path transform="translate(593,626)" d="m0 0h7v1l-13 3-4 1 3-4z" fill="#FEC7A9"/>
<path transform="translate(1346,566)" d="m0 0h2l1 4-4 5-3 3 3-10z" fill="#F5ECE3"/>
<path transform="translate(1158,203)" d="m0 0h2l1 3-2 8-4-1 2-5z" fill="#F15F60"/>
</svg>
