<svg xmlns="http://www.w3.org/2000/svg" version="1.1" xmlns:xlink="http://www.w3.org/1999/xlink" width="512" height="512" x="0" y="0" viewBox="0 0 512 512" style="enable-background:new 0 0 512 512" xml:space="preserve" class=""><g><path d="M305.78 255.83c34.48 0 62.53-28.05 62.53-62.53 0-34.46-28.05-62.5-62.53-62.5-34.46 0-62.5 28.04-62.5 62.5-.01 34.48 28.03 62.53 62.5 62.53zm0-109.05c25.67 0 46.54 20.87 46.54 46.52 0 25.67-20.88 46.54-46.54 46.54-25.65 0-46.52-20.88-46.52-46.54 0-25.65 20.87-46.52 46.52-46.52zM435.6 396.31h-11.45v-48.9c0-46.98-38.24-85.21-85.24-85.21h-66.27c-44.17 0-80.59 33.76-84.82 76.82-11.83-9.42-26.73-15.9-43.2-18.12 19.93-12.23 33.26-34.22 33.26-59.27 0-38.29-31.17-69.45-69.48-69.45-38.29 0-69.45 31.15-69.45 69.45 0 25.05 13.32 47.04 33.25 59.27-39.98 5.39-70.7 35.84-70.7 72.49v74.83c0 13.16 11.8 23.87 26.31 23.87h161.21c14.49 0 26.28-10.71 26.28-23.87v-22.65h220.3c8.28 0 15.02-6.74 15.02-15.02v-19.22c.01-8.28-6.73-15.02-15.02-15.02zm-120.13-54.58-9.7 17.19-9.7-17.19 5.92-63.53h7.54zm-42.83-63.54h13.31l-6.02 64.54c-.15 1.62.2 3.25 1 4.67l17.89 31.72c1.42 2.51 4.08 4.07 6.96 4.07s5.55-1.55 6.96-4.07l17.89-31.72c.8-1.42 1.15-3.05 1-4.67l-6.02-64.54h13.31c38.19 0 69.25 31.05 69.25 69.22v48.9h-40v-43.57c0-4.42-3.58-7.99-7.99-7.99s-7.99 3.58-7.99 7.99v43.57H259.4v-43.57c0-4.42-3.58-7.99-7.99-7.99s-7.99 3.58-7.99 7.99v43.57H215.3v-2.92c0-13.79-4.35-26.7-11.91-37.73v-8.25c0-38.16 31.06-69.22 69.25-69.22zm-217.7-16.55c0-29.48 23.98-53.46 53.46-53.46 29.49 0 53.49 23.98 53.49 53.46 0 29.49-24 53.49-53.49 53.49-29.48 0-53.46-23.99-53.46-53.49zm144.37 206.59c0 4.27-4.71 7.88-10.29 7.88H27.81c-5.59 0-10.32-3.61-10.32-7.88V393.4c0-31.62 30.23-57.34 67.38-57.34h47.08c23.67 0 44.51 10.46 56.53 26.23.32.54.69 1.05 1.12 1.5 6.15 8.65 9.7 18.79 9.7 29.62v74.82zm235.33-38.64H215.29V412.3h219.35zM491.45 19.9H376.7c-11.33 0-20.55 9.22-20.55 20.55v74.38c0 11.33 9.22 20.55 20.55 20.55h9.5v19.81c0 6.37 3.85 11.93 9.77 14.16 1.78.67 3.61 1 5.42 1 4.21 0 8.31-1.77 11.29-5.08l26.67-29.9h52.1c11.33 0 20.55-9.22 20.55-20.55V40.45c0-11.33-9.22-20.55-20.55-20.55zm4.56 94.93c0 2.47-2.09 4.56-4.56 4.56h-52.47c-4.38 0-8.4 1.8-11.32 5.08l-25.47 28.56v-18.47c0-8.36-6.82-15.17-15.19-15.17h-10.3c-2.52 0-4.56-2.05-4.56-4.56V40.45c0-2.52 2.05-4.56 4.56-4.56h114.75c2.47 0 4.56 2.09 4.56 4.56zm-23.02-53.77c0 4.42-3.58 7.99-7.99 7.99h-61.85c-4.42 0-7.99-3.58-7.99-7.99s3.58-7.99 7.99-7.99H465c4.41 0 7.99 3.58 7.99 7.99zm-23.98 33.17c0 4.42-3.58 7.99-7.99 7.99h-37.87c-4.42 0-7.99-3.58-7.99-7.99s3.58-7.99 7.99-7.99h37.87c4.41-.01 7.99 3.57 7.99 7.99zM20.55 135.39h52.1l26.65 29.88c2.95 3.32 7.04 5.1 11.27 5.1 1.82 0 3.66-.33 5.45-1.01 5.94-2.26 9.77-7.82 9.77-14.16v-19.81h9.5c11.32 0 20.52-9.22 20.52-20.55V40.45c0-11.33-9.21-20.55-20.52-20.55H20.55C9.22 19.9 0 29.12 0 40.45v74.38c0 11.34 9.22 20.56 20.55 20.56zm-4.56-94.94c0-2.52 2.05-4.56 4.56-4.56H135.3c2.5 0 4.54 2.05 4.54 4.56v74.38c0 2.52-2.03 4.56-4.54 4.56h-10.32c-8.36 0-15.17 6.8-15.17 15.17v18.47l-25.47-28.56c-2.92-3.27-6.94-5.08-11.32-5.08H20.55c-2.52 0-4.56-2.05-4.56-4.56zm22.99 20.61c0-4.42 3.58-7.99 7.99-7.99h61.88c4.41 0 7.99 3.58 7.99 7.99s-3.58 7.99-7.99 7.99H46.97c-4.41 0-7.99-3.57-7.99-7.99zm77.87 33.17c0 4.42-3.58 7.99-7.99 7.99H70.98c-4.41 0-7.99-3.58-7.99-7.99s3.58-7.99 7.99-7.99h37.87c4.42-.01 8 3.57 8 7.99z" fill="#ffffff" opacity="1" data-original="#000000" class=""></path></g></svg>