<svg width="471" height="502" viewBox="0 0 471 502" fill="none" xmlns="http://www.w3.org/2000/svg">
<path d="M216.382 209.837C236.512 209.837 255.435 201.999 269.669 187.765C283.902 173.532 291.741 154.608 291.741 134.479C291.741 114.349 283.902 95.426 269.669 81.1923C255.435 66.9587 236.512 59.12 216.382 59.12C196.253 59.12 177.33 66.9587 163.096 81.1923C148.862 95.426 141.024 114.349 141.024 134.479C141.024 154.608 148.862 173.532 163.096 187.765C177.33 201.999 196.253 209.837 216.382 209.837ZM216.382 74.48C249.465 74.48 276.381 101.396 276.381 134.479C276.381 167.562 249.465 194.477 216.382 194.477C183.3 194.477 156.386 167.562 156.386 134.479C156.386 101.396 183.3 74.48 216.382 74.48Z" fill="white"/>
<path d="M333.474 386.009L351.735 323.217C353.79 316.152 352.434 308.725 348.018 302.842C344.134 297.668 338.443 294.435 332.123 293.731C330.891 274.652 322.73 257.323 308.816 244.502C294.124 230.965 274.272 223.508 252.916 223.508H179.718C158.363 223.508 138.51 230.963 123.818 244.502C109.94 257.29 101.784 274.564 100.522 293.583H100.512C92.99 293.583 86.148 297.077 81.739 303.172C77.331 309.268 76.153 316.861 78.511 324.003L98.983 386.078C88.544 388.564 80.756 397.967 80.756 409.156C80.756 422.236 91.398 432.877 104.477 432.877H328.29C341.369 432.877 352.011 422.236 352.011 409.156C352.011 397.859 344.07 388.382 333.474 386.009ZM179.718 238.868H252.919C287.527 238.868 314.062 262.044 316.711 293.583H115.925C118.575 262.046 145.109 238.868 179.718 238.868ZM94.186 312.176C95.671 310.123 97.977 308.945 100.512 308.945H329.491C331.969 308.945 334.245 310.082 335.735 312.066C337.222 314.05 337.68 316.551 336.987 318.932L317.646 385.438H114.945L93.1 319.196C92.304 316.787 92.701 314.229 94.186 312.176ZM328.29 417.52H104.477C99.867 417.52 96.116 413.77 96.116 409.159C96.116 404.548 99.867 400.798 104.477 400.798H328.29C332.901 400.798 336.651 404.548 336.651 409.159C336.651 413.77 332.901 417.52 328.29 417.52Z" fill=""/>
</svg>
