<svg width="355" height="380" viewBox="0 0 355 380" fill="none" xmlns="http://www.w3.org/2000/svg">
<path fill-rule="evenodd" clip-rule="evenodd" d="M283.232 249.287C286.291 249.287 288.772 251.606 288.772 254.463C288.772 257.321 286.291 259.639 283.232 259.639H252.522C249.463 259.639 246.982 257.321 246.982 254.463C246.982 251.606 249.463 249.287 252.522 249.287H283.232ZM283.232 282.843C286.291 282.843 288.772 285.162 288.772 288.019C288.772 290.877 286.291 293.195 283.232 293.195H244.964C241.906 293.195 239.424 290.877 239.424 288.019C239.424 285.162 241.906 282.843 244.964 282.843H283.232ZM70.4257 259.639C67.3669 259.639 64.8856 257.321 64.8856 254.463C64.8856 251.606 67.3669 249.287 70.4257 249.287H101.136C104.195 249.287 106.676 251.606 106.676 254.463C106.676 257.321 104.195 259.639 101.136 259.639H70.4257ZM70.4257 293.195C67.3669 293.195 64.8856 290.877 64.8856 288.019C64.8856 285.162 67.3669 282.843 70.4257 282.843H108.693C111.752 282.843 114.233 285.162 114.233 288.019C114.233 290.877 111.752 293.195 108.693 293.195H70.4257ZM226.848 194.67C231.655 196.935 234.779 201.838 236.284 207.66C236.984 210.373 237.334 213.246 237.334 216.058C237.334 218.87 236.984 221.743 236.284 224.457C234.202 232.506 229.028 238.799 220.592 238.799H217.997L211.391 255.565C209.479 260.422 206.949 264.283 203.964 266.996C200.506 270.135 196.495 271.785 192.094 271.785H183.032V329.427C183.211 329.297 183.39 329.176 183.569 329.054C189.084 325.292 195.601 323.346 201.604 323.346H312.762V188.491V175.099H240.816C236.455 181.871 231.598 188.362 226.848 194.67ZM206.209 238.791L201.002 252.001C199.66 255.406 198.049 257.959 196.26 259.594C194.934 260.802 193.526 261.433 192.094 261.433H177.492H166.55C165.118 261.433 163.711 260.802 162.385 259.594C160.595 257.967 158.984 255.406 157.642 252.001L152.436 238.791H206.209ZM140.648 238.791H138.053C129.625 238.791 124.443 232.506 122.36 224.449C121.661 221.736 121.311 218.863 121.311 216.051C121.311 213.238 121.661 210.365 122.36 207.652C123.89 201.747 127.079 196.791 132 194.564C127.233 188.271 122.352 181.811 117.975 175.092H42.2212V188.484V323.323H153.379C159.383 323.323 165.899 325.277 171.415 329.031C171.594 329.153 171.773 329.282 171.952 329.404V271.777H166.55C162.149 271.777 158.138 270.128 154.681 266.989C151.695 264.275 149.165 260.414 147.254 255.558L140.648 238.791ZM220.592 203.669C222.91 203.669 224.619 206.482 225.546 210.084C226.018 211.901 226.254 213.945 226.254 216.051C226.254 218.156 226.018 220.2 225.546 222.017C224.619 225.62 222.91 228.432 220.592 228.432H214.149H144.504H144.471H138.061C135.742 228.432 134.034 225.62 133.107 222.017C132.635 220.2 132.399 218.156 132.399 216.051C132.399 213.945 132.635 211.901 133.107 210.084C134.034 206.482 135.742 203.669 138.061 203.669H220.592ZM171.976 5.15311C171.976 2.30294 174.449 0 177.492 0C180.534 0 183.007 2.31054 183.007 5.15311V31.0555C183.007 33.9056 180.534 36.2086 177.492 36.2086C174.449 36.2086 171.976 33.898 171.976 31.0555V5.15311ZM48.1924 131.108C45.1417 131.108 42.6768 128.797 42.6768 125.955C42.6768 123.105 45.1499 120.802 48.1924 120.802H75.9169C78.9675 120.802 81.4325 123.112 81.4325 125.955C81.4325 128.797 78.9594 131.108 75.9169 131.108H48.1924ZM82.1484 44.1891C79.9844 42.1673 79.9844 38.8915 82.1484 36.8698C84.3123 34.8481 87.8185 34.8481 89.9825 36.8698L109.588 55.1869C111.752 57.2086 111.752 60.4844 109.588 62.5062C107.424 64.5279 103.918 64.5279 101.754 62.5062L82.1484 44.1891ZM306.791 120.779C309.85 120.779 312.331 123.097 312.331 125.955C312.331 128.813 309.85 131.131 306.791 131.131H279.067C276.008 131.131 273.527 128.813 273.527 125.955C273.527 123.097 276.008 120.779 279.067 120.779H306.791ZM265.001 36.8698C267.165 34.8481 270.671 34.8481 272.835 36.8698C274.999 38.8915 274.999 42.1673 272.835 44.1891L253.23 62.5062C251.066 64.5279 247.56 64.5279 245.396 62.5062C243.232 60.4844 243.232 57.2086 245.396 55.1869L265.001 36.8698ZM179.322 60.6136C158.212 60.6136 139.094 68.6093 125.264 81.5377C111.427 94.4661 102.868 112.32 102.868 132.043C102.868 143.801 106.497 154.601 111.85 164.747H36.6812C33.6224 164.747 31.1412 167.066 31.1412 169.923V183.315H5.54001C2.48121 183.315 0 185.634 0 188.491V357.609C0 360.467 2.48121 362.785 5.54001 362.785H127.925C129.438 362.785 130.764 365.552 132.098 368.318C134.905 374.155 137.711 380 146.351 380H208.649C217.289 380 220.095 374.163 222.902 368.318C224.236 365.552 225.562 362.785 227.075 362.785H349.46C352.519 362.785 355 360.467 355 357.609V188.491C355 185.634 352.519 183.315 349.46 183.315H323.851V169.923C323.851 167.066 321.369 164.747 318.311 164.747H246.876C252.188 154.57 255.784 143.747 255.784 132.043C255.784 112.32 247.226 94.4585 233.388 81.5377C219.55 68.6093 200.433 60.6136 179.322 60.6136ZM225.554 88.8569C237.383 99.908 244.704 115.177 244.704 132.043C244.704 153.035 230.338 172.097 217.167 189.578C216.313 190.711 215.467 191.835 214.36 193.318H144.561C143.56 191.995 142.356 190.399 141.144 188.795C135.978 181.97 130.65 174.94 126.102 167.643C125.988 167.423 125.858 167.218 125.712 167.012C118.935 156.015 113.957 144.424 113.957 132.035C113.957 115.17 121.27 99.9004 133.107 88.8493C144.935 77.7983 161.279 70.9579 179.33 70.9579C197.382 70.9579 213.717 77.8059 225.554 88.8569ZM323.834 193.667V328.507C323.834 331.365 321.353 333.683 318.294 333.683H201.604C197.789 333.683 193.624 334.944 190.061 337.369C187.514 339.102 185.293 341.443 183.748 344.346C182.015 347.599 179.965 349.112 177.5 349.15C175.686 349.173 173.611 349.089 171.48 344.81C169.926 341.694 167.6 339.201 164.923 337.369C161.36 334.944 157.195 333.683 153.379 333.683H36.6812C33.6224 333.683 31.1412 331.365 31.1412 328.507V193.667H11.08V352.433H127.925C136.564 352.433 139.371 358.27 142.177 364.115C143.511 366.882 144.838 369.648 146.351 369.648H208.649C210.162 369.648 211.488 366.882 212.823 364.115C215.629 358.278 218.436 352.433 227.075 352.433H343.92V193.667H323.834Z" fill="black"/>
</svg>
