<svg width="512" height="512" viewBox="0 0 512 512" fill="none" xmlns="http://www.w3.org/2000/svg">
<g clip-path="url(#clip0_3_2)">
<rect width="512" height="512" fill=""/>
<path fill-rule="evenodd" clip-rule="evenodd" d="M299.232 338.287C302.291 338.287 304.772 340.605 304.772 343.463C304.772 346.321 302.291 348.639 299.232 348.639H268.522C265.463 348.639 262.982 346.321 262.982 343.463C262.982 340.605 265.463 338.287 268.522 338.287H299.232ZM299.232 371.843C302.291 371.843 304.772 374.161 304.772 377.019C304.772 379.877 302.291 382.195 299.232 382.195H260.964C257.906 382.195 255.424 379.877 255.424 377.019C255.424 374.161 257.906 371.843 260.964 371.843H299.232ZM86.4257 348.639C83.3669 348.639 80.8857 346.321 80.8857 343.463C80.8857 340.605 83.3669 338.287 86.4257 338.287H117.136C120.195 338.287 122.676 340.605 122.676 343.463C122.676 346.321 120.195 348.639 117.136 348.639H86.4257ZM86.4257 382.195C83.3669 382.195 80.8857 379.877 80.8857 377.019C80.8857 374.161 83.3669 371.843 86.4257 371.843H124.693C127.752 371.843 130.233 374.161 130.233 377.019C130.233 379.877 127.752 382.195 124.693 382.195H86.4257ZM242.848 283.67C247.655 285.935 250.779 290.838 252.284 296.66C252.984 299.373 253.334 302.246 253.334 305.058C253.334 307.87 252.984 310.743 252.284 313.457C250.202 321.506 245.028 327.799 236.592 327.799H233.997L227.391 344.565C225.479 349.422 222.949 353.283 219.964 355.996C216.506 359.135 212.495 360.785 208.094 360.785H199.032V418.427C199.211 418.297 199.39 418.176 199.569 418.054C205.084 414.292 211.601 412.346 217.604 412.346H328.762V277.491V264.099H256.816C252.455 270.871 247.598 277.362 242.848 283.67ZM222.209 327.791L217.002 341.001C215.66 344.406 214.049 346.959 212.26 348.594C210.934 349.802 209.526 350.433 208.094 350.433H193.492H182.55C181.118 350.433 179.711 349.802 178.385 348.594C176.595 346.967 174.984 344.406 173.642 341.001L168.436 327.791H222.209ZM156.648 327.791H154.053C145.625 327.791 140.443 321.506 138.36 313.449C137.661 310.736 137.311 307.863 137.311 305.051C137.311 302.238 137.661 299.365 138.36 296.652C139.89 290.747 143.079 285.791 148 283.564C143.233 277.271 138.352 270.811 133.975 264.092H58.2212V277.484V412.323H169.379C175.383 412.323 181.899 414.277 187.415 418.031C187.594 418.153 187.773 418.282 187.952 418.404V360.777H182.55C178.149 360.777 174.138 359.128 170.681 355.989C167.695 353.275 165.165 349.414 163.254 344.558L156.648 327.791ZM236.592 292.669C238.91 292.669 240.619 295.482 241.546 299.084C242.018 300.901 242.254 302.945 242.254 305.051C242.254 307.156 242.018 309.2 241.546 311.017C240.619 314.62 238.91 317.432 236.592 317.432H230.149H160.504H160.471H154.061C151.742 317.432 150.034 314.62 149.107 311.017C148.635 309.2 148.399 307.156 148.399 305.051C148.399 302.945 148.635 300.901 149.107 299.084C150.034 295.482 151.742 292.669 154.061 292.669H236.592ZM187.976 94.1531C187.976 91.3029 190.449 89 193.492 89C196.534 89 199.007 91.3105 199.007 94.1531V120.055C199.007 122.906 196.534 125.209 193.492 125.209C190.449 125.209 187.976 122.898 187.976 120.055V94.1531ZM64.1924 220.108C61.1417 220.108 58.6768 217.797 58.6768 214.955C58.6768 212.105 61.1499 209.802 64.1924 209.802H91.9169C94.9675 209.802 97.4325 212.112 97.4325 214.955C97.4325 217.797 94.9594 220.108 91.9169 220.108H64.1924ZM98.1484 133.189C95.9844 131.167 95.9844 127.892 98.1484 125.87C100.312 123.848 103.819 123.848 105.982 125.87L125.588 144.187C127.752 146.209 127.752 149.484 125.588 151.506C123.424 153.528 119.918 153.528 117.754 151.506L98.1484 133.189ZM322.791 209.779C325.85 209.779 328.331 212.097 328.331 214.955C328.331 217.813 325.85 220.131 322.791 220.131H295.067C292.008 220.131 289.527 217.813 289.527 214.955C289.527 212.097 292.008 209.779 295.067 209.779H322.791ZM281.001 125.87C283.165 123.848 286.671 123.848 288.835 125.87C290.999 127.892 290.999 131.167 288.835 133.189L269.23 151.506C267.066 153.528 263.56 153.528 261.396 151.506C259.232 149.484 259.232 146.209 261.396 144.187L281.001 125.87ZM195.322 149.614C174.212 149.614 155.094 157.609 141.264 170.538C127.427 183.466 118.868 201.32 118.868 221.043C118.868 232.801 122.497 243.601 127.85 253.747H52.6812C49.6224 253.747 47.1412 256.066 47.1412 258.923V272.315H21.54C18.4812 272.315 16 274.634 16 277.491V446.609C16 449.467 18.4812 451.785 21.54 451.785H143.925C145.438 451.785 146.764 454.552 148.098 457.318C150.905 463.155 153.711 469 162.351 469H224.649C233.289 469 236.095 463.163 238.902 457.318C240.236 454.552 241.562 451.785 243.075 451.785H365.46C368.519 451.785 371 449.467 371 446.609V277.491C371 274.634 368.519 272.315 365.46 272.315H339.851V258.923C339.851 256.066 337.369 253.747 334.311 253.747H262.876C268.188 243.57 271.784 232.747 271.784 221.043C271.784 201.32 263.226 183.458 249.388 170.538C235.55 157.609 216.433 149.614 195.322 149.614ZM241.554 177.857C253.383 188.908 260.704 204.177 260.704 221.043C260.704 242.035 246.338 261.097 233.167 278.578C232.313 279.711 231.467 280.835 230.36 282.318H160.561C159.56 280.995 158.356 279.399 157.144 277.795C151.978 270.97 146.65 263.94 142.102 256.643C141.988 256.423 141.858 256.218 141.712 256.012C134.935 245.015 129.957 233.424 129.957 221.035C129.957 204.17 137.27 188.9 149.107 177.849C160.935 166.798 177.279 159.958 195.33 159.958C213.382 159.958 229.717 166.806 241.554 177.857ZM339.834 282.667V417.507C339.834 420.365 337.353 422.683 334.294 422.683H217.604C213.789 422.683 209.624 423.944 206.061 426.369C203.514 428.102 201.293 430.443 199.748 433.346C198.015 436.599 195.965 438.112 193.5 438.15C191.686 438.173 189.611 438.089 187.48 433.81C185.926 430.694 183.6 428.201 180.923 426.369C177.36 423.944 173.195 422.683 169.379 422.683H52.6812C49.6224 422.683 47.1412 420.365 47.1412 417.507V282.667H27.08V441.433H143.925C152.564 441.433 155.371 447.27 158.177 453.115C159.511 455.882 160.838 458.648 162.351 458.648H224.649C226.162 458.648 227.488 455.882 228.823 453.115C231.629 447.278 234.436 441.433 243.075 441.433H359.92V282.667H339.834Z" fill="white"/>
</g>
<defs>
<clipPath id="clip0_3_2">
<rect width="512" height="512" fill="transparent"/>
</clipPath>
</defs>
</svg>
