<svg width="1137" height="587" viewBox="0 0 1137 587" fill="none" xmlns="http://www.w3.org/2000/svg">
<g clip-path="url(#clip0_86_3)">
<path d="M0 0H1032.99V587H0V0Z" fill="#70BAE2"/>
<path d="M0 0.115601H682.911L683.621 3.59998L685.753 32.8687V58.6531L683.621 73.9843L679.357 93.4968L673.672 111.616L667.987 125.553L659.46 141.581L651.643 153.428L643.116 164.578L633.167 175.031L626.771 180.606H625.35V175.031H621.797V184.091L617.533 187.575H616.822L615.401 182L611.137 175.031L607.584 173.637H597.636L594.082 175.728L589.819 184.091L590.529 189.666L595.504 196.634L600.478 198.028L596.925 200.816L567.789 215.45L540.075 228.691L521.599 237.75L508.807 245.416L497.437 253.081L489.621 259.353L475.408 273.291L468.302 283.047L461.906 294.197L456.221 307.437L451.247 323.466L442.719 357.612L437.745 375.731L430.639 393.85L424.954 405.697L415.716 421.028L407.188 432.875L397.95 444.025L388.001 454.478L378.763 462.841L368.814 470.506L358.155 478.172L344.653 485.837L328.309 494.2L302.016 507.441L286.382 515.803L274.301 522.772L262.221 531.134L250.851 540.194L242.323 547.859L236.638 553.434L230.242 561.1L221.715 572.25L214.609 584.097L213.187 586.884H0V0.115601Z" fill="#FDFDFD"/>
<path d="M682.911 0.115601H893.966L891.124 4.99373L884.728 15.4469L879.043 29.3843L876.201 42.625L874.779 56.5625V71.8937L876.911 94.1937L881.175 119.978L888.281 153.428L896.098 185.484L903.204 217.541L908.179 243.325L911.021 272.594V299.772L908.889 317.194L905.336 331.131L900.362 345.069L898.941 345.766L894.677 339.494L888.992 335.312L889.702 331.131L885.439 329.737L884.017 329.041L883.307 332.525H876.201L870.516 335.312L865.541 338.797L863.409 340.887L864.831 336.706L869.805 331.131L876.201 326.95L881.886 323.466L885.439 317.891L889.702 309.528L891.834 306.044L890.413 305.347H882.596L875.49 309.528L868.384 314.406L860.567 317.891L854.171 319.284L842.091 320.678V315.8L852.75 258.656L856.303 244.022L861.277 234.962L867.673 227.994L873.358 224.509L880.464 222.419L885.439 221.722L864.831 210.572L847.776 201.512L831.431 193.15L817.929 186.181L785.241 170.153L759.658 158.306L738.339 149.247L714.889 141.581L704.94 139.491H696.412L687.174 141.581L675.094 147.156L665.145 154.822L658.039 163.184L652.354 172.941L649.511 179.909V185.484L647.379 188.272L630.324 262.837L604.742 375.731L598.346 403.606L597.636 405.697L604.031 407.787L677.226 438.45L741.892 465.628L751.131 469.809L756.105 486.534L761.79 497.684L767.475 504.653L770.317 506.744L776.713 508.834H786.662L795.9 505.35L802.296 499.775L807.981 490.716L809.402 487.231L816.508 486.534L817.219 488.625H815.087L816.508 492.109L838.537 498.381L859.856 505.35L865.541 506.744V508.137L869.805 508.834L881.175 514.409L891.834 521.378L893.256 524.862H894.677L895.387 526.953L888.281 531.831L881.175 533.922L869.094 534.619L849.197 535.316L839.248 536.709H831.431L825.036 537.406H813.666L810.112 536.709L807.27 537.406L799.453 538.103L796.611 539.497L778.845 540.194H768.896L762.501 540.891L761.079 540.194L749.709 541.587L731.944 544.375L720.574 545.769L719.152 546.466L707.072 547.162L688.596 545.072H680.779L672.251 545.769L660.881 550.647L654.486 554.828H648.09L651.643 552.041L663.724 540.891L665.856 538.8L662.302 521.378L660.881 516.5L641.694 510.228H637.431L628.192 518.591L622.507 523.469L621.797 526.953L622.507 533.922H619.665L620.376 537.406L616.112 543.678L608.295 547.859H596.925L594.082 550.647L590.529 549.95L588.397 548.556L587.687 545.072H552.866L531.547 545.769H525.152L513.782 545.072L502.412 545.769L490.331 546.466L488.199 547.162H481.093L473.276 546.466L469.723 542.981L486.067 536.012L459.064 546.466L428.507 559.009L403.635 570.159L383.027 579.916L369.525 586.884H213.188L214.609 582.703L221.004 572.25L232.374 557.616L242.323 547.162L248.008 541.587L255.825 535.316L267.906 526.256L281.407 517.894L297.041 509.531L317.649 499.078L331.151 492.109L348.917 483.05L362.419 474.687L372.367 467.022L381.606 459.356L390.844 450.994L399.371 441.934L408.609 430.087L417.137 417.544L425.664 402.909L432.06 388.972L437.034 375.731L442.719 354.825L450.536 323.466L456.221 305.347L461.906 292.803L467.591 283.047L473.276 275.381L479.672 268.412L482.514 264.928L488.199 260.05L495.306 253.778L506.676 246.112L519.467 238.447L535.811 230.084L558.551 218.934L574.896 211.269L598.346 199.422L599.057 198.725L594.793 196.634L589.819 189.666L589.108 184.091L593.372 175.728L597.636 172.941H607.584L611.848 175.031L616.112 182L617.533 186.878L621.086 184.091L621.797 175.031H625.35V180.606L631.746 175.728L638.852 168.759L646.669 159.003L654.486 148.55L663.724 132.522L669.409 120.675L674.383 107.434L679.357 90.7093L682.911 73.9843L685.042 58.6531V32.8687L682.911 3.59998V0.115601Z" fill="#A3C6F0"/>
<path d="M696.413 138.794H704.94L719.863 142.278L738.339 148.55L756.105 156.216L774.581 164.578L792.347 172.941L830.721 191.756L846.354 200.119L861.278 207.784L877.622 216.844L886.86 221.722V222.419L877.622 223.812L871.226 226.6L865.541 230.781L859.856 238.447L856.303 246.112L852.039 265.625L842.801 315.8L842.091 320.678L836.406 323.466H834.984L833.563 326.253L831.431 332.525V342.281L833.563 349.25L835.695 352.734L834.274 363.187L813.666 474.687L810.823 485.141L807.27 493.503L801.585 501.169L795.9 506.047L786.662 509.531H776.713L768.896 506.744L762.501 499.775L756.816 490.019L752.552 477.475L750.42 469.809L712.046 453.781L597.636 405.697L599.057 398.031L617.533 315.8L631.746 253.778L645.248 194.544L646.669 188.272L648.801 185.484V179.909L652.354 171.547L657.328 163.184L665.856 153.428L675.094 146.459L687.174 140.884L696.413 138.794Z" fill="#FCFCFC"/>
<path d="M458.353 306.044H460.485V317.194L459.064 318.587V324.162L458.353 327.647L461.906 329.041L465.459 328.344L463.327 326.253V324.162L467.591 322.072L468.302 318.587L470.434 317.891L471.855 322.769V324.162H473.276L474.697 326.95L478.961 327.647L478.251 329.737H482.514L484.646 327.647L486.067 324.859H486.778V334.616L488.91 342.978L489.621 347.159L487.489 351.341L484.646 355.522V359.703L489.621 363.187H491.042L494.595 355.522L498.148 345.069H500.28V349.25L499.569 350.644H501.701L503.122 354.128L501.701 357.612H500.28L500.991 359.703L503.833 360.4L505.965 364.581L503.833 366.672L507.386 367.369V365.278L510.229 364.581V365.975H511.65V367.369L515.203 366.672L511.65 370.853L512.361 376.428L517.335 377.125L520.177 376.428L518.756 379.216L515.203 379.912L514.492 381.306H510.229L510.939 384.094L518.756 386.184L522.309 385.487L526.573 383.397L529.416 377.822L528.705 373.641V370.853L532.969 371.55L532.258 378.519L534.39 379.216L533.679 382.003H532.258L531.547 386.184L528.705 388.972L525.152 391.062H523.731V392.456L517.335 394.547L518.046 397.334L523.731 396.637L529.416 395.244L530.837 391.062L533.679 388.275L536.522 387.578L537.943 379.912H540.075V376.428L540.786 373.641L541.496 371.55L542.917 370.853L543.628 367.369H545.049V369.459L557.841 370.156H572.053L579.159 369.459L580.581 385.487L582.712 414.756L585.555 436.359L586.266 439.147L605.452 446.812L626.061 454.478L656.617 465.628L677.226 473.294L695.702 480.262L714.889 486.534L763.922 504.653H767.475L770.317 506.744L776.713 508.834H786.662L795.9 505.35L802.296 499.775L807.981 490.716L809.402 487.231L816.508 486.534L817.219 488.625H815.087L816.508 492.109L838.537 498.381L859.856 505.35L865.541 506.744V508.137L869.805 508.834L881.175 514.409L891.834 521.378L893.256 524.862H894.677L895.387 526.953L888.281 531.831L881.175 533.922L869.094 534.619L849.197 535.316L839.248 536.709H831.431L825.036 537.406H813.666L810.112 536.709L807.27 537.406L799.453 538.103L796.611 539.497L778.845 540.194H768.896L762.501 540.891L761.079 540.194L749.709 541.587L731.944 544.375L720.574 545.769L719.152 546.466L707.072 547.162L688.596 545.072H680.779L672.251 545.769L660.881 550.647L654.486 554.828H648.09L651.643 552.041L663.724 540.891L665.856 538.8L662.302 521.378L660.881 516.5L641.694 510.228H637.431L628.192 518.591L622.507 523.469L621.797 526.953L622.507 533.922H619.665L620.376 537.406L616.112 543.678L608.295 547.859H596.925L594.082 550.647L590.529 549.95L588.397 548.556L587.687 545.072H552.866L531.547 545.769H525.152L513.782 545.072L502.412 545.769L490.331 546.466L488.199 547.162H481.093L473.276 546.466L469.723 542.981L486.067 536.012L459.064 546.466L428.507 559.009L403.635 570.159L383.027 579.916L369.525 586.884H213.188L214.609 582.703L221.004 572.25L232.374 557.616L242.323 547.162L248.008 541.587L255.825 535.316L267.906 526.256L281.407 517.894L297.041 509.531L317.649 499.078L331.151 492.109L348.917 483.05L362.419 474.687L372.367 467.022L381.606 459.356L390.844 450.994L399.371 441.934L408.609 430.087L417.137 417.544L425.664 402.909L432.06 388.972L437.034 375.731L442.719 354.825L450.536 323.466L454.8 309.528L456.932 308.831L458.353 306.044Z" fill="#7BD0E1"/>
<path d="M1033.25 0.115601H1137V586.884H1033.25L1032.54 140.884V16.1437L1033.25 0.115601Z" fill="#FDFDFD"/>
<path d="M893.966 0.115601H1033.25V140.884L1032.54 240.537L1031.83 243.325L1031.12 274.684V291.409L1030.41 336.009L1029.7 342.281L1028.99 352.734L1026.85 353.431L1026.14 352.037L1025.43 345.766L1021.17 344.372L1018.33 345.069V340.887L1017.62 343.675L1016.9 347.856L1014.06 350.644L1013.35 345.766L1011.93 349.947L1010.51 354.825L1006.96 357.612L1001.98 355.522V354.128H1000.56L997.718 351.341L993.454 349.947L990.611 346.462L982.794 345.766L982.084 340.887L979.241 339.494L978.531 342.281H977.109V340.887L974.978 340.191L972.846 336.706L970.714 331.828L969.293 325.556V322.072H967.161H962.897L960.054 313.012L956.501 310.225L955.08 307.437L944.421 302.559L942.289 301.862L941.578 299.772L942.289 298.378L941.578 292.106V290.712L935.893 288.622L929.498 285.137L925.944 280.956L925.234 278.866V273.987L924.523 273.291V266.322L919.549 264.928L918.128 262.141V257.262L915.996 256.566L914.574 265.625L911.021 269.806H910.311L907.468 243.325L902.494 217.541L895.388 185.484L886.149 147.156L879.043 112.312L875.49 88.6187L874.069 71.8937V56.5625L876.201 38.4437L879.043 27.2937L884.728 14.0531L890.413 4.99373L893.966 0.115601Z" fill="#82AFEB"/>
<path d="M569.921 223.812H579.159L581.291 225.903V227.297L584.134 226.6H598.346L604.742 225.903L607.584 224.509L615.401 223.812L621.797 225.206L623.218 228.691V231.478L625.35 236.356V239.841L626.771 241.931V249.597L627.482 250.991H630.324L631.746 245.416H633.167V250.294L604.742 375.731L598.346 403.606L597.636 405.697L604.031 407.787L677.226 438.45L741.893 465.628L751.131 469.809L756.105 486.534L761.79 497.684L766.764 503.956L766.054 505.35L762.501 504.653L725.548 491.412L704.94 483.747L692.149 479.566L663.724 469.112L637.431 459.356L612.559 450.297L587.687 440.541L585.555 439.147L583.423 425.906L581.291 407.091L579.159 374.337V369.459L572.053 370.853H557.841L545.049 369.459V367.369L543.628 368.762V371.55L541.496 372.944V377.125L540.075 379.912H537.943L537.233 387.578L532.258 389.669L529.416 395.244L522.309 397.334L520.178 398.031L518.046 397.334L516.624 394.547L521.599 392.456H523.731V391.062L528.705 388.275L530.837 386.184L532.258 382.003H533.679V379.216L532.258 378.519V372.944L532.969 371.55H528.705L530.126 377.822L527.284 383.397L520.888 386.881L512.361 385.487L509.518 383.397L510.229 380.609H514.493L519.467 377.822H517.335L512.361 377.125L510.939 374.337L511.65 369.459L514.493 367.369H511.65V365.975H510.229V364.581L507.386 365.278V367.369L504.544 368.066L503.123 365.975L505.254 363.884L503.123 360.4H500.28V357.612H501.701L502.412 353.431L501.701 350.644H499.569L500.28 345.069H498.148L496.727 352.037L491.753 363.187L489.621 363.884L483.936 359.703V355.522L487.489 350.644L488.91 346.462L486.778 336.706L486.068 332.525V325.556L483.936 329.737L481.093 330.434L478.251 329.737V328.344L473.987 327.647L473.276 324.162H471.855L470.434 320.678V317.891L468.302 319.284V322.769L463.328 324.162V326.253L465.459 326.95L466.17 329.041L461.196 329.737L457.643 327.647L458.353 322.769V318.587L459.774 317.194V307.437H457.643L456.932 308.831H455.511L457.643 301.862L464.038 288.622L472.566 276.078L479.672 268.412L482.514 264.928L488.199 260.05L495.306 253.778L506.676 246.112L519.467 238.447L535.811 230.084L545.76 225.206H549.313L547.892 227.994L547.181 230.084L548.603 229.387H554.288L557.13 226.6L562.104 225.206L564.947 225.903V227.297L567.079 225.903L567.789 224.509L569.921 223.812Z" fill="#8CC8E6"/>
<path d="M882.596 304.65H890.413L892.545 306.741L888.281 313.012L884.018 321.375L880.464 324.859L873.358 329.737L869.094 332.525L865.541 336.706L864.831 338.797L872.648 333.222L876.201 331.828H881.175L883.307 332.525L884.018 329.041L888.281 330.434L889.703 331.131L888.992 335.312L892.545 336.706L898.23 342.978L901.783 352.037V353.431L906.758 354.825L913.864 354.128L920.97 352.037H923.102V361.097L916.706 363.884L908.179 365.278H897.519L893.256 364.581L891.834 377.822L890.413 389.669L889.703 391.759V411.272L893.966 432.875L896.809 444.722L897.519 448.903L886.86 453.781L880.464 455.872H877.622L876.201 449.6L873.358 432.875L871.937 412.666L870.516 420.331V436.359L871.937 448.206V457.266L861.278 460.053L847.776 464.931L844.933 464.234L847.065 450.297L847.776 439.147L845.644 421.028L844.223 411.969L844.933 402.909L848.486 394.547L854.171 384.094H852.75L854.171 375.731L854.882 361.794L856.303 354.825L860.567 345.766L855.593 350.644L847.065 354.825L839.959 355.522L835.695 353.431L832.142 347.856L830.721 342.281V332.525L832.853 326.253L836.406 322.769L839.959 320.678L857.724 317.891L865.541 315.103L872.648 310.922L879.754 306.044L882.596 304.65Z" fill="#EB609B"/>
<path d="M582.002 399.425L586.266 400.819L596.214 405L597.636 404.303V405.697L604.031 407.788L677.226 438.45L741.893 465.628L751.131 469.809L756.105 486.534L761.79 497.684L766.764 503.956L766.054 505.35L762.501 504.653L725.548 491.413L704.94 483.747L692.149 479.566L663.724 469.113L637.431 459.356L612.559 450.297L587.687 440.541L585.555 439.147L583.423 425.906L582.002 414.756V399.425Z" fill="#B1CEE2"/>
<path d="M886.86 221.722L893.966 223.813L903.915 227.297L905.336 228.691L908.179 243.325L911.021 272.594V299.772L908.889 317.194L905.336 331.131L900.362 345.069L898.941 345.766L894.677 339.494L888.992 335.313L889.702 331.131L885.439 329.738L884.017 329.041L883.307 332.525H876.201L870.516 335.313L865.541 338.797L863.409 340.888L864.831 336.706L869.805 331.131L876.201 326.95L881.886 323.466L885.439 317.891L889.702 309.528L891.834 306.044L890.413 305.347H882.596L875.49 309.528L868.384 314.406L860.567 317.891L854.171 319.284L842.091 320.678V315.8L852.75 258.656L856.303 244.022L861.277 234.963L867.673 227.994L873.358 224.509L880.464 222.419L886.86 221.722Z" fill="#A3C7F0"/>
<path d="M690.728 122.069L696.413 122.766L697.123 124.856L690.017 125.553L685.753 127.644H682.2L682.911 129.734L678.647 131.825L675.804 136.006V140.884V141.581H680.068L683.621 140.884L684.332 139.491L685.753 140.187L686.464 138.794L691.438 138.097H697.123L696.413 139.491L687.174 141.581L675.094 147.156L665.145 154.822L658.039 163.184L652.354 172.941L649.511 179.909V185.484L647.379 188.272L633.878 247.506L633.167 245.416H631.746L631.035 249.597L628.903 251.687L626.771 250.991L626.061 246.112V241.931L624.639 238.447L623.929 234.266L621.797 230.781L622.508 227.297L621.797 225.903L615.401 224.509L607.584 225.206L604.742 226.6L595.504 227.297H584.134L582.713 227.994L580.581 225.903V224.509H569.921L567.789 225.903L567.079 227.297H564.947V225.903L559.262 226.6L555.709 228.691L552.866 230.084H548.603L545.76 230.781L549.313 225.206L547.181 224.509L580.581 208.481L598.346 199.422L599.057 198.725L594.793 196.634L589.819 189.666L589.108 184.091L593.372 175.728L597.636 172.941H607.584L611.848 175.031L616.112 182L617.533 186.878L621.086 184.091L621.797 175.031H625.35V180.606L631.746 175.728L638.852 168.759L646.669 159.003L654.486 148.55L663.724 132.522L667.988 124.856L669.409 124.159L671.541 130.431L677.936 127.644L681.489 124.159L688.596 122.766L690.728 122.069Z" fill="#94C4E8"/>
<path d="M546.471 369.459L557.841 370.156H572.053L579.159 369.459L580.581 385.488L582.713 414.756L585.555 436.359L586.266 444.722V454.478L584.844 457.963L578.449 459.356L572.053 461.447L569.211 444.025L563.526 400.819L562.104 393.153L558.551 405L555.709 421.725L552.866 446.813L550.024 461.447H535.101L533.679 460.75L535.811 428.694L537.943 414.756L542.918 389.669L546.471 369.459Z" fill="#39379F"/>
<path d="M854.171 384.791L857.725 385.487L866.963 388.275L874.78 389.669L889.703 390.366V411.272L893.966 432.875L896.809 444.722L897.52 448.903L886.86 453.781L880.465 455.872H877.622L876.201 449.6L873.358 432.875L871.937 412.666L870.516 420.331V436.359L871.937 448.206V457.266L861.278 460.053L847.776 464.931L844.933 464.234L847.065 450.297L847.776 439.147L845.644 421.028L844.223 411.969L844.933 402.909L848.486 394.547L854.171 384.791Z" fill="#39379F"/>
<path d="M597.636 288.622H599.057L601.899 292.803L604.031 294.197L603.321 297.681L596.214 305.347L586.266 313.012L578.449 319.981H577.027V345.069L578.449 357.612L579.87 368.762L572.053 370.853H557.841L545.049 369.459L544.339 367.369V345.069L545.049 331.828L537.232 344.372L527.994 356.219L525.862 357.612L522.309 354.825L519.467 353.431L521.599 345.069L527.284 333.222L533.679 324.162L542.207 315.103L547.892 311.619L555.709 309.528L573.474 306.741L580.581 303.256H582.002L583.423 300.469L590.529 294.894L596.214 289.319L597.636 288.622Z" fill="#FED111"/>
<path d="M947.263 322.072L950.816 322.769L952.948 324.859L955.08 330.434L955.791 335.312L958.633 336.009V340.191H955.791L961.476 442.631L962.897 471.203L960.054 482.353L957.212 494.897H955.08L948.684 472.597L947.974 468.416L940.867 338.797V331.131L942.999 324.859L945.131 322.769L947.263 322.072Z" fill="#31358A"/>
<path d="M886.86 221.722L893.966 223.813L903.915 227.297L905.336 228.691L908.179 243.325L908.889 248.9V262.838L906.757 265.625L903.204 278.169L897.519 276.775L877.622 269.806L858.435 262.838L854.171 260.747L853.46 255.172L856.303 244.022L861.277 234.963L867.673 227.994L873.358 224.509L880.464 222.419L886.86 221.722Z" fill="#B1CEE3"/>
<path d="M589.819 441.238L596.925 443.328L618.244 451.691L645.248 461.447L671.541 471.203L692.149 478.869V482.353H690.728V483.747L684.332 485.141L656.618 487.928H644.537L631.746 486.534L628.903 485.141H623.929L620.376 485.838L621.086 483.747L616.112 485.838L613.98 485.141L618.244 481.656L615.401 479.566L614.691 476.778L618.954 477.475V475.384H620.376L622.508 469.113L619.665 468.416L616.112 464.931L611.848 461.447L609.716 457.963L604.742 455.872L601.189 453.781L600.478 451.691L601.189 450.994L598.346 449.6L597.636 453.084L595.504 454.478L594.083 451.691L595.504 449.6H592.661L593.372 446.813H589.819L589.108 444.722L589.819 441.238Z" fill="#8CC8E7"/>
<path d="M637.431 509.531L643.826 510.228L660.881 515.803L663.013 521.378L666.566 538.8L657.328 547.859L649.511 554.131L647.379 554.828L628.192 548.556L625.35 547.162L621.086 526.953L621.797 523.469L626.771 518.591L632.456 513.712L637.431 509.531Z" fill="#EC619B"/>
<path d="M882.596 304.65H890.413L892.545 306.741L888.281 313.012L884.018 321.375L880.464 324.859L873.358 329.737L869.094 332.525L865.541 336.706L861.988 345.069L856.303 349.947L848.486 354.128L844.223 355.522L837.827 354.825L834.274 352.037L831.431 345.069L830.721 342.281V332.525L832.853 326.253L836.406 322.769L839.959 320.678L857.724 317.891L865.541 315.103L872.648 310.922L879.754 306.044L882.596 304.65Z" fill="#3A389F"/>
<path d="M860.567 345.069L861.278 346.463L857.014 354.825L855.593 361.794L854.882 375.731L852.75 384.094H854.171L852.75 388.275L847.065 398.728L844.933 403.606L842.801 409.878L839.248 413.363L827.878 421.028L825.746 422.422H823.614L822.904 423.816L823.614 417.544L834.984 354.825L836.406 353.431L839.959 354.825L847.065 354.128L855.593 349.947L860.567 345.069Z" fill="#94C3E8"/>
<path d="M545.049 329.738H545.76L544.339 367.369L543.628 370.853L541.496 372.944V377.125L540.075 379.913H537.943L537.232 387.578L532.258 389.669L529.416 395.244L522.309 397.334L520.177 398.031L518.046 397.334L516.624 394.547L521.599 392.456H523.731V391.063L528.705 388.275L530.837 386.184L532.258 382.003H533.679V379.216L532.258 378.519V372.944L532.969 371.55H528.705L530.126 377.822L527.284 383.397L520.888 386.881L512.361 385.488L509.518 383.397L510.229 380.609H514.492L519.467 377.822L520.888 376.428L523.02 377.125L523.731 370.853L521.599 366.672L523.731 361.794L527.284 356.219L536.522 344.372L542.917 333.919L545.049 329.738Z" fill="#8CC9E6"/>
<path d="M767.475 109.525H771.028L773.16 111.616L781.688 129.734L780.977 132.522L762.501 141.581L761.79 142.278H758.237L748.999 124.856L747.578 122.766L748.288 119.281L759.658 113.706L767.475 109.525Z" fill="#7BD0E1"/>
<path d="M469.012 486.534H470.434L480.382 503.259L486.778 513.713V515.106H456.932L453.379 514.409L454.8 510.925L463.327 496.291L469.012 486.534Z" fill="#6E85DE"/>
<path d="M916.706 163.184L922.391 167.366L940.868 181.303L942.999 182.697V184.091L915.285 195.241L911.732 195.937L913.864 179.909L915.996 165.275L916.706 163.184Z" fill="#6E85DE"/>
<path d="M676.515 272.594L681.49 273.291L702.808 281.653L735.497 294.197L775.292 309.528L809.402 322.769L813.666 324.162L812.955 327.647L806.56 325.556L782.398 316.497L679.358 276.775L676.515 275.381V272.594Z" fill="#A7C9EB"/>
<path d="M670.83 254.475L677.936 256.566L704.94 267.019L795.189 301.863L803.006 305.347L807.27 306.741L806.559 309.528L803.006 308.831L775.292 298.378L735.497 283.047L672.251 258.656L670.119 257.959L670.83 254.475Z" fill="#A7C9EC"/>
<path d="M650.222 283.744L654.486 284.441L681.489 294.894L694.281 299.772L701.387 302.559L734.076 315.103L777.424 331.828L785.951 335.312L787.372 336.706L786.662 338.797L779.556 336.706L714.178 311.619L687.174 301.166L649.511 286.531L650.222 283.744Z" fill="#A2C8EA"/>
<path d="M663.724 236.356L670.119 238.447L699.255 249.597L709.914 253.778L744.735 267.019L800.164 288.622L800.874 291.409L799.453 292.106L770.318 280.956L737.629 268.412L697.834 253.081L663.724 239.841L663.013 238.447L663.724 236.356Z" fill="#A0C8E8"/>
<path d="M644.537 299.772L660.171 305.347L688.596 316.497L741.182 336.706L778.845 351.341L780.977 352.038V354.825L776.713 354.128L750.42 344.372L712.757 329.738L677.936 316.497L643.826 303.256L644.537 299.772Z" fill="#9EC7E8"/>
<path d="M891.834 306.741L894.677 308.134L896.809 311.619L897.519 313.709V322.072L894.677 328.344L891.834 331.131L886.86 330.434L884.018 329.041L883.307 332.525H876.201L870.516 335.313L865.541 338.797L863.409 340.888L864.831 336.706L869.805 331.131L876.201 326.95L881.886 323.466L885.439 317.891L889.703 309.528L891.834 306.741Z" fill="#DFD9DE"/>
<path d="M865.541 457.962H867.673V490.716L858.435 491.412L857.014 484.444V462.841L857.724 460.75L865.541 457.962Z" fill="#DDD8DF"/>
<path d="M581.291 269.109H582.002L582.712 301.862L580.581 303.953L573.474 307.437L564.947 308.831H560.683L562.104 304.65L564.947 298.378L565.657 291.409L567.079 292.803L580.581 292.106L581.291 269.109Z" fill="#90C8E7"/>
<path d="M562.104 392.456L563.526 395.244L567.079 423.119V430.784L562.815 429.391L555.709 423.816V416.15L558.551 402.213L561.394 393.153L562.104 392.456Z" fill="#AAC9E3"/>
<path d="M549.313 276.078L555.709 278.169L559.262 279.562L568.5 280.956L571.343 283.744L570.632 288.622L566.368 291.409L557.841 289.319H551.445L546.471 285.137L545.76 278.866L547.181 276.775L549.313 276.078Z" fill="#39389E"/>
<path d="M553.577 288.622L561.394 289.319L565.657 290.712V298.378L562.815 304.65L559.972 309.528H554.998L550.734 299.075V291.409L553.577 288.622Z" fill="#E0DADF"/>
<path d="M890.413 451.691H892.545L893.256 476.778L891.834 477.475H884.017L882.596 471.203V455.175L888.281 452.388L890.413 451.691Z" fill="#DDD9DF"/>
<path d="M721.284 311.619L726.969 312.316L777.424 331.828L785.951 335.312L787.372 336.706L786.662 338.797L779.555 336.706L746.867 324.162L719.863 313.709L719.152 312.316L721.284 311.619Z" fill="#9EC7E9"/>
<path d="M717.731 328.344L724.838 330.434L741.182 336.706L778.845 351.341L780.977 352.037V354.825L776.713 354.128L750.42 344.372L716.31 331.131L717.731 330.434V328.344Z" fill="#9DC8E7"/>
<path d="M545.049 329.738H545.76L545.049 345.069L543.628 355.522H542.917L542.207 350.644L540.785 349.947L538.654 352.038L535.811 359.703H534.39V363.884H532.969L532.258 359.006H529.415L525.862 362.491L523.73 363.188L525.152 359.006L534.39 347.159L541.496 336.706L545.049 329.738Z" fill="#7DCEE1"/>
<path d="M520.888 354.128L524.441 355.522L525.863 356.916L525.152 360.4L523.02 363.884L522.309 367.369L524.441 370.853V375.034L521.599 377.822L520.888 376.428L517.335 377.822L512.361 377.125L510.939 374.338L511.65 369.459L515.914 366.672H517.335L518.756 360.4L520.888 354.128Z" fill="#DFDADF"/>
<path d="M960.765 335.312H964.318L965.74 356.219L967.161 383.397L963.608 384.094L962.897 382.003L960.765 345.069V335.312Z" fill="#32358C"/>
<path d="M606.163 272.594L609.716 273.291V275.381L614.691 274.684L616.823 275.381V281.653L613.269 284.441L608.295 287.228L603.321 293.5L600.478 292.106L599.057 288.622L604.742 281.653V274.684L606.163 272.594Z" fill="#E0DADF"/>
<path d="M956.501 471.203H962.186L958.633 488.625L957.212 494.897H955.08L949.395 474.687V471.9L956.501 471.203Z" fill="#EC619B"/>
<path d="M857.724 489.322L858.435 491.412L868.384 490.716L871.937 494.2L874.779 496.291L874.069 499.775L870.516 502.562H866.252L860.567 498.381L857.014 492.806L857.724 489.322Z" fill="#31358B"/>
<path d="M883.307 475.384L884.017 477.475L893.966 476.778L896.809 480.262L900.362 483.05L899.651 485.837L896.098 488.625H891.834L887.571 485.837L883.307 480.959L882.596 476.081L883.307 475.384Z" fill="#31358A"/>
<path d="M538.654 467.719L540.075 468.416H545.049L547.892 467.719L547.181 473.991L544.339 477.475H533.679L530.126 475.384L529.416 470.506L530.126 469.809L537.943 468.416L538.654 467.719Z" fill="#39379E"/>
<path d="M930.919 346.462H933.761L934.472 347.856V352.037L937.314 352.734L938.025 356.219L935.182 359.006L925.944 360.4L923.102 361.097V352.037L927.366 349.947L930.919 346.462Z" fill="#DEDADF"/>
<path d="M757.526 273.988H762.5L800.164 288.622L800.874 291.409L799.453 292.106L770.317 280.956L759.658 276.775L757.526 273.988Z" fill="#9EC7E7"/>
<path d="M741.182 124.856L744.735 125.553L749.709 130.431L750.42 133.916L746.867 133.219L746.156 131.128L741.182 129.734L736.918 133.916H732.654L728.391 130.431V129.037L724.837 130.431L722.706 132.522H717.731L718.442 129.734L721.995 127.644L726.259 125.553L729.812 126.25L734.076 129.734L736.207 130.431L736.918 128.341L741.182 124.856Z" fill="#7BD0E1"/>
<path d="M575.606 464.931L577.027 465.628H584.844L591.951 467.022L593.372 467.719L592.661 472.597L589.819 474.687H578.449L576.317 471.9L575.606 464.931Z" fill="#39379F"/>
<path d="M670.83 254.475L677.936 256.566L704.94 267.019L707.072 267.716L709.204 271.897L704.94 271.2L672.251 258.656L670.119 257.959L670.83 254.475Z" fill="#A3C8E9"/>
<path d="M945.131 263.534L945.842 266.322L945.131 267.716V275.381L949.395 280.259L952.948 281.653H960.055L964.318 278.866L966.45 278.169L967.871 265.625H969.293V275.381L966.45 279.563L962.897 283.744L960.055 286.531L955.791 287.925L952.948 285.834H949.395L947.263 283.744V282.35L945.131 283.047L943 276.775V266.322L945.131 263.534Z" fill="#71B8E3"/>
<path d="M676.515 272.594L681.49 273.291L713.468 285.834V287.925L709.915 288.622L679.358 276.775L676.515 275.381V272.594Z" fill="#A9CAEA"/>
<path d="M663.724 236.356L670.119 238.447L699.255 249.597L701.387 253.778L694.281 251.687L663.724 239.841L663.013 238.447L663.724 236.356Z" fill="#9FC7E8"/>
<path d="M710.625 286.531L714.889 287.228L742.603 297.681L744.735 299.772L744.024 301.166L739.05 300.469L717.02 292.106L709.914 289.319L709.204 287.925L710.625 286.531Z" fill="#A1C8E8"/>
<path d="M540.786 253.778H546.471L551.445 257.959L553.577 262.837V264.928L551.445 266.322L544.339 267.716L541.496 269.109L540.075 268.412L539.364 264.231H542.918L542.207 262.837H547.181L549.313 263.534L547.892 259.353L546.471 260.747L542.918 260.05V257.959H540.786L538.654 255.869L540.786 253.778Z" fill="#93C4E8"/>
<path d="M778.845 296.288L782.398 296.984L802.296 304.65L807.27 306.741L806.559 309.528L803.006 308.831L777.424 299.075L776.713 297.681L778.845 296.288Z" fill="#A5C8EB"/>
<path d="M989.901 347.159H991.322L990.611 349.947L993.454 352.734V356.219L990.611 357.613V359.006L986.347 359.703L981.373 355.522L982.084 351.341L985.637 349.25L989.901 347.856V347.159Z" fill="#82AFEC"/>
<path d="M515.203 333.919L516.624 336.706L517.335 340.191L515.914 346.462L515.203 351.341L513.071 354.128L510.939 360.4L508.808 359.006L509.518 347.856L510.229 346.462H511.65L513.071 338.797L515.203 333.919Z" fill="#7BD1E1"/>
<path d="M947.263 322.072L950.816 322.769L952.948 324.859L954.369 331.131L950.106 331.828H941.578L942.289 325.556L945.131 322.769L947.263 322.072Z" fill="#EC619B"/>
<path d="M860.567 345.069L861.277 346.463L857.014 354.825L855.592 361.794L854.882 375.731L853.46 382.003L852.75 383.397L851.329 382.7L852.039 368.763L852.75 365.278V351.341L857.014 348.553L860.567 345.069Z" fill="#A0C3EE"/>
<path d="M559.262 426.603L564.236 429.391L563.526 434.966V444.722L561.394 447.509L559.972 445.419L558.551 449.6H557.841V439.147L558.551 427.3L559.262 426.603Z" fill="#8CC9E7"/>
<path d="M849.197 313.709L856.303 314.406L859.146 315.8L861.277 315.103L864.12 316.497L857.724 318.588L842.091 320.678V315.8L845.644 314.406L849.197 313.709Z" fill="#91BFE8"/>
<path d="M707.072 268.413L714.178 270.503L731.944 277.472L731.233 280.956L724.838 278.866L708.493 272.594V271.2L706.361 269.806L707.072 268.413Z" fill="#A5C9EA"/>
<path d="M761.079 327.647H766.764L777.424 331.828L785.951 335.313L787.372 336.706L786.662 338.797L779.556 336.706L761.079 329.738V327.647Z" fill="#9DC8E7"/>
<path d="M735.497 264.231L739.05 264.928L761.079 273.291L758.237 274.684L758.948 276.078L751.841 273.987L734.076 267.019L735.497 264.231Z" fill="#A7C9EB"/>
<path d="M876.201 326.95L884.728 328.344L883.307 332.525H876.201L870.516 335.312L865.541 338.797L863.409 340.887L864.831 336.706L869.805 331.131L876.201 326.95Z" fill="#A3C6EF"/>
<path d="M746.156 299.075L749.709 299.772L768.185 306.741L767.475 310.225L761.079 308.134L744.735 301.862L746.156 299.075Z" fill="#A7C9EB"/>
<path d="M757.526 344.372L762.5 345.069L780.977 352.037V354.825L776.713 354.128L758.237 347.159L757.526 344.372Z" fill="#9DC9E7"/>
<path d="M538.654 461.447H548.603L547.892 467.719L545.049 469.112H540.075L538.654 467.719V461.447Z" fill="#DDDBE2"/>
<path d="M655.907 145.762L659.46 146.459L664.434 148.55L657.328 154.125V156.216L655.907 157.609H653.064L652.354 154.125L650.222 155.519L651.643 152.731L655.907 145.762Z" fill="#A3C7EF"/>
<path d="M580.581 457.962H584.844L584.134 465.628L583.423 466.325H577.027L574.896 464.931V460.75L580.581 457.962Z" fill="#DCD9E1"/>
<path d="M644.537 299.772L660.171 305.347L665.145 307.438L663.724 310.225L660.171 309.528L643.826 303.256L644.537 299.772Z" fill="#A8C9EB"/>
<path d="M702.097 303.256L708.493 305.347L723.416 310.922L721.284 312.316L717.731 313.013L703.519 307.438L701.387 304.65L702.097 303.256Z" fill="#A4C8EA"/>
<path d="M743.314 319.284L750.42 321.375L764.632 326.95L761.79 328.344L759.658 329.041L743.314 322.769V319.284Z" fill="#A2C8EA"/>
<path d="M767.475 307.438L771.739 308.134L785.951 313.709V315.103L787.373 315.8L786.662 316.497H782.398L768.186 310.922L766.764 308.134L767.475 307.438Z" fill="#A6C9EB"/>
<path d="M782.398 282.35L785.951 283.047L800.164 288.622L800.874 291.409L799.453 292.106L780.977 285.138L783.109 284.441L782.398 282.35Z" fill="#A0C8E6"/>
<path d="M967.871 265.625H969.293V275.381L966.45 279.562L962.186 283.047L960.765 283.744H952.238L946.553 280.259L944.421 277.472L945.131 275.381L949.395 280.259L952.948 281.653H960.054L964.318 278.866L966.45 278.169L967.871 265.625Z" fill="#6B82DB"/>
<path d="M575.606 369.459H579.159V375.731H578.449V370.853L567.079 373.641H559.973L554.288 372.247V370.853L572.053 370.156L575.606 369.459Z" fill="#31358A"/>
<path d="M697.834 137.4H708.493L717.021 138.794L719.863 140.188V141.581L727.68 143.672L731.233 145.066L728.391 145.763L714.889 141.581L703.519 138.794L697.834 138.097V137.4Z" fill="#91C2E7"/>
<path d="M602.61 271.2L605.453 271.897H609.006L606.163 273.291L605.453 274.684V281.653L601.899 285.137L599.768 280.259L600.478 279.562L601.899 271.897L602.61 271.2Z" fill="#96C5E8"/>
<path d="M650.222 283.744L654.486 284.441L667.277 289.319V290.016H663.724L664.434 290.712L665.145 292.106L658.039 290.016L649.511 286.531L650.222 283.744Z" fill="#A6C9EA"/>
<path d="M887.571 301.166L891.834 304.65L890.413 305.347H882.596L875.49 309.528L869.805 313.709L867.673 313.012L870.516 310.225L873.358 309.528V308.134L880.464 303.953L887.571 301.166Z" fill="#8AB5E6"/>
<path d="M825.746 413.363L828.589 415.453L832.852 414.756L834.274 413.363H838.537L834.984 416.15L827.878 421.028L824.325 422.422L825.746 418.938V413.363Z" fill="#8BC9E6"/>
<path d="M693.57 265.625H701.387L707.072 267.716L709.204 271.897L704.94 271.2L694.281 267.019L693.57 265.625Z" fill="#9FC7E8"/>
<path d="M641.694 179.909L645.958 180.606L646.669 181.303V185.484L645.958 186.878H641.694L639.562 184.788L640.273 181.303L641.694 179.909Z" fill="#94C4E9"/>
<path d="M690.728 299.772H694.281L701.387 302.559L702.808 305.347L704.229 306.741L699.966 306.044L689.306 301.863L688.596 300.469L690.728 299.772Z" fill="#9FC7E9"/>
<path d="M663.724 236.356L670.119 238.447L677.226 241.234L674.383 243.325L670.83 242.628L663.724 239.841L663.013 238.447L663.724 236.356Z" fill="#A1C8E8"/>
<path d="M590.529 211.269H591.951L590.529 214.753L587.687 216.844V219.631L591.24 220.328V221.025H582.002L582.713 217.541H584.134L585.555 214.753L590.529 211.269Z" fill="#8CC9E7"/>
<path d="M761.079 327.647H766.764L773.871 330.434V333.919L766.764 331.828L761.079 329.738V327.647Z" fill="#9DC7E8"/>
<path d="M793.057 303.953H800.164L807.27 306.741L806.559 309.528L803.006 308.831L793.768 305.347L793.057 303.953Z" fill="#9EC8E7"/>
<path d="M613.269 190.363L614.69 191.059L611.848 195.241L609.716 197.331L607.584 198.028H602.61L603.32 196.634H604.742V195.241H606.874V193.847L611.137 191.756L613.269 190.363Z" fill="#73BCE3"/>
<path d="M700.676 281.653L704.94 282.35L713.467 285.834V287.925L709.914 288.622L706.361 285.834L699.255 283.047L700.676 281.653Z" fill="#ACCBE8"/>
<path d="M758.947 303.953L762.5 304.65L768.185 306.741L767.475 310.225L761.079 308.134L757.526 306.741V304.65L758.947 303.953Z" fill="#A9CAE8"/>
<path d="M663.013 289.319L670.119 290.713L674.383 292.106L675.094 294.197L674.383 294.894L669.409 294.197L665.145 292.803L663.013 290.713V289.319Z" fill="#A0C8E8"/>
<path d="M969.292 266.322L971.424 268.412L970.714 276.078L967.871 280.956L963.607 282.35L967.871 276.775L968.582 275.381L969.292 266.322Z" fill="#71B3E3"/>
<path d="M716.31 272.594L721.284 273.291L729.812 276.775V278.866L726.259 278.169L715.599 273.987L716.31 272.594Z" fill="#ADCCE7"/>
<path d="M753.973 324.163L758.947 324.859L764.632 326.95L761.79 328.344L759.658 329.041L753.262 326.253L753.973 324.163Z" fill="#A0C7E9"/>
<path d="M870.516 330.434H871.937L872.648 332.525L871.937 334.616L865.541 338.797L863.409 340.887L864.831 336.706L869.805 331.131L870.516 330.434Z" fill="#93BCE8"/>
<path d="M681.489 295.591L685.042 296.287L692.149 299.075V301.166H687.174L683.621 299.772V298.378L681.489 296.984V295.591Z" fill="#A7C9EB"/>
<path d="M721.284 311.619L726.969 312.316L730.522 313.709L728.39 315.8L723.416 315.103L719.152 313.012L721.284 311.619Z" fill="#9EC7E8"/>
<path d="M695.702 280.259L700.676 280.956V283.047L709.204 286.531L706.361 287.228L695.702 283.047L694.281 280.956L695.702 280.259Z" fill="#A4C8EB"/>
<path d="M691.438 138.097H697.123L696.412 139.491L687.174 141.581L682.2 142.975L683.621 139.491L685.753 140.188L686.464 138.794L691.438 138.097Z" fill="#9CC6E8"/>
<path d="M750.42 340.887L757.526 342.978L758.948 344.372H757.526V346.462L750.42 344.372L748.999 342.978H751.131L750.42 340.887Z" fill="#9FC9E6"/>
<path d="M644.537 299.772L653.064 302.559V303.953L651.643 304.65H647.379L643.826 303.256L644.537 299.772Z" fill="#A1C8EA"/>
<path d="M757.526 273.988H762.5L767.475 276.078L766.054 276.775V278.866L759.658 276.775L757.526 273.988Z" fill="#A1C8E9"/>
<path d="M851.329 306.044L852.039 307.437L861.277 308.134L859.146 309.528L857.014 310.225H851.329L849.197 308.831L849.907 306.741L851.329 306.044Z" fill="#94C4E9"/>
<path d="M863.409 337.403L864.12 339.494L861.988 345.069L857.014 348.553L858.435 345.069L862.699 338.1L863.409 337.403Z" fill="#343890"/>
<path d="M775.292 134.613L776.713 135.309L769.607 139.491L763.922 142.278L761.79 143.672L758.948 142.975L761.79 141.581L766.764 138.794L775.292 134.613Z" fill="#92C4E8"/>
<path d="M877.622 305.347H879.043L877.622 308.134L869.805 313.709L867.673 313.013L870.516 310.225L873.358 309.528V308.134L877.622 305.347Z" fill="#8DBAE7"/>
<path d="M779.556 333.222L785.951 335.313L787.373 336.706L786.662 338.797L780.977 337.403V335.313L779.556 334.616V333.222Z" fill="#9EC9E6"/>
<path d="M710.625 286.531L714.889 287.228L719.152 288.622L716.31 290.016L713.467 290.712L709.204 288.622L710.625 286.531Z" fill="#A5C9EA"/>
<path d="M690.017 262.141L693.57 262.837L699.255 264.928L697.123 266.322H692.149L689.306 263.534L690.017 262.141Z" fill="#A7C9EB"/>
<path d="M773.871 350.644L778.845 351.341L780.977 352.038V354.825L776.713 354.128L773.871 352.734V350.644Z" fill="#99C8E6"/>
<path d="M807.27 322.769L813.666 324.163L812.955 327.647L806.559 325.556L807.981 324.859L807.27 322.769Z" fill="#A7CAE8"/>
<path d="M874.069 498.381H875.49L874.069 501.169L870.516 503.956L866.252 504.653L863.409 501.866L864.831 501.169L866.252 501.866H870.516L874.069 498.381Z" fill="#78C9E1"/>
<path d="M967.871 265.625H969.292V275.381L967.871 278.169H966.45L967.871 265.625Z" fill="#5C6AC8"/>
<path d="M731.233 333.919L735.497 334.616L739.05 336.009L736.918 337.403V336.009H735.497V338.1L730.522 336.706L731.233 333.919Z" fill="#A1C8E7"/>
<path d="M718.442 289.319L721.995 290.016L725.548 291.409L726.259 293.5L721.284 292.803L717.021 290.713L718.442 289.319Z" fill="#98C6E8"/>
<path d="M757.526 344.372L762.5 345.069L764.632 346.462L763.922 347.856H759.658L757.526 346.462V344.372Z" fill="#98C9E7"/>
<path d="M899.651 336.706L901.783 339.494L900.362 345.069L898.941 343.675L898.23 337.403L899.651 336.706Z" fill="#94C4E9"/>
<path d="M877.622 328.344H884.728L883.307 332.525H881.175V331.131L879.043 330.434V329.041L877.622 328.344Z" fill="#98C5E7"/>
<path d="M715.599 308.831L719.863 309.528L723.416 310.922L721.284 312.316L717.731 313.013L714.889 310.922L715.599 308.831Z" fill="#A7C9EB"/>
<path d="M702.097 303.256L708.493 305.347L707.782 307.438L704.94 308.134L701.387 304.65L702.097 303.256Z" fill="#A6C9EC"/>
<path d="M824.325 413.363H825.746L826.457 418.938L823.614 423.816L822.904 421.028L824.325 413.363Z" fill="#9CC7E7"/>
<path d="M888.992 390.366L889.703 391.759L888.281 393.85L887.571 393.153L876.201 391.759V391.063L888.992 390.366Z" fill="#31358B"/>
<path d="M545.05 329.738H545.76L545.05 345.069H544.339V336.009L542.207 336.706L543.628 332.525L545.05 329.738Z" fill="#A0CDE2"/>
<path d="M945.131 263.534L945.842 266.322L945.131 267.716L944.421 275.381L943 274.684V266.322L945.131 263.534Z" fill="#5E71CC"/>
<path d="M951.527 257.959H959.344V258.656L950.816 260.747L947.263 263.534L945.842 262.838L948.684 259.353L951.527 257.959Z" fill="#5763C2"/>
<path d="M729.101 314.406L734.075 315.103L735.497 316.497L730.522 317.891L726.969 316.497L729.101 314.406Z" fill="#A3C8EA"/>
<path d="M609.716 271.897L616.822 273.291V275.381H609.716L609.006 272.594L609.716 271.897Z" fill="#98C5E8"/>
<path d="M769.607 348.553L773.16 349.25L775.292 350.644H773.871V352.734L768.896 351.341V349.25L769.607 348.553Z" fill="#9FC8E7"/>
<path d="M521.599 366.672H525.862L526.573 368.066L527.284 368.762L525.862 372.247H524.441L521.599 366.672Z" fill="#7BCCE2"/>
<path d="M668.698 291.409L674.383 292.106L675.094 294.197L674.383 294.894L669.409 294.197L667.988 292.106L668.698 291.409Z" fill="#9BC7E8"/>
<path d="M935.893 353.431L938.025 354.128L937.314 356.916L935.182 359.006H930.208L931.629 357.612L935.182 356.219L935.893 353.431Z" fill="#F6F6F7"/>
<path d="M725.548 332.525H730.522L731.944 333.919L730.522 336.009L726.969 335.312L725.548 332.525Z" fill="#9CC7E7"/>
<path d="M781.687 313.709H785.951V315.103L787.372 315.8L786.662 316.497H782.398L780.266 314.406L781.687 313.709Z" fill="#A0C7EB"/>
<path d="M745.446 283.744L749.709 284.441L750.42 287.228L748.288 287.925L746.156 287.228L745.446 283.744Z" fill="#A9CAE9"/>
<path d="M539.364 315.103H541.496L540.075 317.891L537.943 319.981H536.522L537.233 316.497L539.364 315.103Z" fill="#84D0E1"/>
<path d="M552.866 306.741H554.998L555.709 310.225L548.603 310.922L550.024 310.225V308.831L552.866 308.134V306.741Z" fill="#8ACFE2"/>
<path d="M459.064 299.772L460.485 301.166L459.774 304.65L457.643 305.347L456.932 306.741L457.643 301.863L459.064 299.772Z" fill="#80C7E2"/>
</g>
<defs>
<clipPath id="clip0_86_3">
<rect width="1137" height="587" fill="white"/>
</clipPath>
</defs>
</svg>
