<svg xmlns="http://www.w3.org/2000/svg" version="1.1" xmlns:xlink="http://www.w3.org/1999/xlink" width="512" height="512" x="0" y="0" viewBox="0 0 64 64" style="enable-background:new 0 0 512 512" xml:space="preserve" class=""><g><path d="M52 23h-8a12 12 0 0 0-5.17-9.84 8 8 0 1 0-13.66 0A12 12 0 0 0 20 23h-5v-5a1 1 0 0 1 .38-.78l2.9-2.32a1.89 1.89 0 0 0 .72.1 2 2 0 1 0-2-2v.3l-2.91 2.32A3 3 0 0 0 13 18v5h-1a1 1 0 0 0-1 1v4a3 3 0 0 0 3 3h2.19l5.57 26H19a3 3 0 0 0 0 6h26a3 3 0 0 0 0-6h-2.76l5.57-26H50a3 3 0 0 0 3-3v-4a1 1 0 0 0-1-1zM32 3a6 6 0 0 1 6 6 6 6 0 0 1-6 6 4.92 4.92 0 0 1-.67 0A6 6 0 0 1 26 9a6 6 0 0 1 6-6zm-5.6 11.72c.19.18.38.35.58.51l.23.17.45.31.28.17.45.24.3.14.46.19.32.11a4.5 4.5 0 0 0 .49.14l.32.08a4.85 4.85 0 0 0 .55.09h.27a7.25 7.25 0 0 0 1.7 0h.27a4.85 4.85 0 0 0 .55-.09l.32-.08a4.5 4.5 0 0 0 .49-.14l.32-.11.45-.19.32-.14c.14-.08.29-.15.43-.24l.29-.17a4.15 4.15 0 0 0 .43-.3l.25-.18c.18-.14.35-.3.52-.46l.11-.09A10 10 0 0 1 42 23H22a10 10 0 0 1 4.4-8.28zM46 60a1 1 0 0 1-1 1H19a1 1 0 0 1 0-2h26a1 1 0 0 1 1 1zm-5.81-3H23.81l-5.57-26h27.52zM51 28a1 1 0 0 1-1 1H14a1 1 0 0 1-1-1v-3h38z" fill="#ffffff" opacity="1" data-original="#000000" class=""></path><path d="M37.56 55h.21a1 1 0 0 0 1-.79l4.29-20a1 1 0 0 0-2-.42l-4.28 20a1 1 0 0 0 .78 1.21z" fill="#ffffff" opacity="1" data-original="#000000" class=""></path></g></svg>